<svg xmlns="http://www.w3.org/2000/svg" width="75px" viewBox="0 0 49.41 23.39"><title>Asset 7</title><g id="Layer_2" data-name="Layer 2"><g id="Layer_5" data-name="Layer 5"><path d="M0,23v-.9c2-.19,2.24-.35,2.24-2.53V13c0-2-.1-2.11-2-2.43V9.79A20.87,20.87,0,0,0,4.77,8.51V19.58c0,2.18.22,2.34,2.3,2.53V23ZM3.33,5.38a1.75,1.75,0,0,1-1.7-1.7A1.73,1.73,0,0,1,3.36,1.92,1.67,1.67,0,0,1,5,3.68,1.7,1.7,0,0,1,3.33,5.38Z"/><path d="M17.89,23v-.9c1.85-.19,2.05-.42,2.05-2.59V14.24c0-2.24-.8-3.74-2.92-3.74a5.56,5.56,0,0,0-3.55,1.66v7.49c0,2.2.19,2.27,2.08,2.46V23H8.64v-.9c2.11-.22,2.3-.35,2.3-2.46V13.06c0-2.08-.22-2.18-1.95-2.47V9.76a18.17,18.17,0,0,0,4.48-1.28V11c.64-.45,1.35-.93,2.18-1.47a4.86,4.86,0,0,1,2.65-1c2.56,0,4.16,1.88,4.16,5v6.08c0,2.17.19,2.27,2.05,2.46V23Z"/><path d="M28.42,9V8.1a8.22,8.22,0,0,1,2.81-6.4A6.6,6.6,0,0,1,34.81,0a3.62,3.62,0,0,1,2.6,1,1,1,0,0,1,.19,1.12,2.63,2.63,0,0,1-.77,1,.73.73,0,0,1-.93-.07,4.15,4.15,0,0,0-2.59-1.31c-2.37,0-2.37,3.23-2.37,5.67V9h3.39A1.2,1.2,0,0,1,34,10.27H30.94v9.25c0,2.3.36,2.33,2.76,2.59V23H26.18v-.9c2-.19,2.24-.32,2.24-2.4V10.27H26.14L26,9.92l.7-1Z"/><path d="M42.43,8.58a6.88,6.88,0,0,1,7,7.16c0,5.19-3.84,7.65-7,7.65a7,7,0,0,1-7.1-7.14A7.32,7.32,0,0,1,42.43,8.58Zm-.38,1.08c-1.95,0-3.71,1.89-3.71,5.6,0,4.07,1.79,7,4.41,7,2,0,3.65-1.44,3.65-5.82C46.4,12.7,44.86,9.66,42.05,9.66Z"/></g></g></svg>