<svg xmlns="http://www.w3.org/2000/svg" width= "200px" viewBox="0 0 275.02 21.4"><title>email</title><g id="Layer_2" data-name="Layer 2"><g id="Layer_5" data-name="Layer 5"><path d="M14.35,18.69V18c1.54-.16,1.72-.26,1.72-2.08V11.54c0-1.84-.63-3-2.24-3A4.68,4.68,0,0,0,11,9.88c0,.31.07.62.07,1.12v5c0,1.64.24,1.77,1.67,1.93v.72H7.12V18C8.74,17.81,9,17.71,9,16V11.52c0-1.93-.6-3-2.18-3A5,5,0,0,0,3.93,9.88V16c0,1.72.18,1.82,1.66,2v.72H0V18c1.72-.16,1.87-.26,1.87-2V10.61c0-1.67-.1-1.77-1.56-2V7.93a14,14,0,0,0,3.62-1V9A17.9,17.9,0,0,1,5.85,7.64,3.56,3.56,0,0,1,7.9,7,3,3,0,0,1,10.74,9.1c.73-.57,1.4-1,2-1.46A4,4,0,0,1,14.85,7c2,0,3.27,1.45,3.27,4v5c0,1.74.16,1.82,1.64,2v.72Z"/><path d="M29.59,19a1.88,1.88,0,0,1-1.22-.5,2.43,2.43,0,0,1-.63-1.17C26.7,18,25.43,19,24.62,19a3.2,3.2,0,0,1-3.17-3.2,2.64,2.64,0,0,1,2.13-2.6,20.47,20.47,0,0,0,4.11-1.69V11c0-1.85-.94-2.91-2.29-2.91a1.5,1.5,0,0,0-1.22.59,5.49,5.49,0,0,0-.7,1.69.73.73,0,0,1-.76.6,1.25,1.25,0,0,1-1.14-1.14c0-.37.34-.68.86-1A10.77,10.77,0,0,1,26.18,7a3.6,3.6,0,0,1,2.19.7,3.59,3.59,0,0,1,1.32,3v5c0,1.2.44,1.56.91,1.56a2.17,2.17,0,0,0,.94-.28l.26.73Zm-1.9-6.58c-.57.28-1.82.83-2.42,1.09-1,.44-1.58.94-1.58,1.9a1.89,1.89,0,0,0,1.87,2,3.47,3.47,0,0,0,2.13-.94Z"/><path d="M38.87,18.69h-6V18c1.64-.16,1.79-.29,1.79-2V10.58c0-1.71-.1-1.79-1.61-2V8a14.26,14.26,0,0,0,3.67-1.07V9.75C37.65,8.4,38.74,7,40,7a1.35,1.35,0,0,1,1.51,1.25,1.76,1.76,0,0,1-.89,1.43A.5.5,0,0,1,40,9.59a1.64,1.64,0,0,0-1.17-.65c-.55,0-1.51.81-2.08,2.14V16c0,1.72.13,1.85,2.13,2Z"/><path d="M48.26,18.67a2.73,2.73,0,0,1-1.12.34c-1.67,0-2.55-1-2.55-3.1V8.35H42.8L42.69,8l.7-.75h1.2V5.1c.49-.52,1.25-1.2,1.74-1.72l.39.05c0,1.09-.08,2.6-.08,3.85h3a.83.83,0,0,1-.16,1.07H46.64V15c0,2.11.84,2.5,1.51,2.5a3.76,3.76,0,0,0,1.59-.42l.23.68Z"/><path d="M57.9,10.37c-.47-1.5-1.19-2.54-2.78-2.54a1.61,1.61,0,0,0-1.66,1.69c0,1.14.85,1.69,2.26,2.31,2.13.94,3.35,1.77,3.35,3.56,0,2.39-2.18,3.62-4.24,3.62a6.77,6.77,0,0,1-3.09-.76c-.13-.75-.36-2.23-.47-3.09L52,15c.46,1.66,1.37,3.09,3.19,3.09a1.78,1.78,0,0,0,1.88-1.77c0-1.17-.71-1.79-2.14-2.41-1.69-.78-3.35-1.64-3.35-3.62S53.27,7,55.72,7a13.92,13.92,0,0,1,2.55.34c.07.62.26,2.26.39,2.88Z"/><path d="M66.43,2.18A4,4,0,0,1,70.67,6a3.22,3.22,0,0,1-.73,2.11A20.79,20.79,0,0,1,67.78,9.8c1.8,1,3.56,2.24,3.56,4.5,0,3-2.75,4.71-5.22,4.71-2.89,0-5-1.67-5-4.29a3.11,3.11,0,0,1,1.19-2.58,26.66,26.66,0,0,1,2.34-1.61c-1.69-1-2.88-2.24-2.88-4.08A4.39,4.39,0,0,1,66.43,2.18Zm0,16c1.74,0,2.81-1.17,2.81-3.07C69.24,13,67.5,12,65.39,11a4,4,0,0,0-2.18,3.56C63.21,16.93,64.71,18.15,66.43,18.15ZM66.12,3.07a2.39,2.39,0,0,0-2.39,2.65c0,1.9,1.27,2.6,3.3,3.67a3.8,3.8,0,0,0,1.71-3.23C68.74,4,67.47,3.07,66.12,3.07Z"/><path d="M74.88,18.69V18c2.88-.19,3-.32,3-2.27v-10c0-1.33-.18-1.38-1.33-1.48l-1.27-.13V3.46a21.27,21.27,0,0,0,4.76-1.28V15.7c0,2,.15,2.08,3.07,2.27v.72Z"/><path d="M91.65,2.18A4,4,0,0,1,95.89,6a3.22,3.22,0,0,1-.73,2.11A23.48,23.48,0,0,1,93,9.8c1.79,1,3.56,2.24,3.56,4.5,0,3-2.75,4.71-5.22,4.71-2.89,0-5-1.67-5-4.29a3.11,3.11,0,0,1,1.19-2.58,25.21,25.21,0,0,1,2.34-1.61C88.16,9.54,87,8.29,87,6.45A4.39,4.39,0,0,1,91.65,2.18Zm0,16c1.74,0,2.81-1.17,2.81-3.07C94.46,13,92.71,12,90.61,11a4,4,0,0,0-2.19,3.56C88.42,16.93,89.93,18.15,91.65,18.15ZM91.34,3.07a2.39,2.39,0,0,0-2.4,2.65c0,1.9,1.28,2.6,3.31,3.67A3.8,3.8,0,0,0,94,6.16C94,4,92.69,3.07,91.34,3.07Z"/><path d="M111.36,20.36a9.53,9.53,0,0,1-4.63,1,7.74,7.74,0,0,1-7.88-8.11c0-5.36,3.72-10,9.49-10a7.23,7.23,0,0,1,7.57,7.52c0,3.9-2.19,6.18-4.63,6.18a1.93,1.93,0,0,1-1.93-2.28h-.1A4.09,4.09,0,0,1,105.58,17c-1.5,0-2.8-1.22-2.8-3.27a6.13,6.13,0,0,1,6.16-6.16,6.89,6.89,0,0,1,2.78.54l-.88,4.71c-.39,2-.08,2.88.78,2.91,1.32,0,2.8-1.74,2.8-4.76,0-3.77-2.26-6.47-6.29-6.47-4.24,0-7.8,3.35-7.8,8.63,0,4.34,2.84,7,6.68,7a8.09,8.09,0,0,0,3.93-.91ZM109.93,9.13a4.41,4.41,0,0,0-1.3-.19c-2.29,0-4.14,2.16-4.14,4.68,0,1.15.57,2,1.72,2,1.51,0,2.88-1.92,3.17-3.54Z"/><path d="M125.21,18.69V18c1.51-.16,1.67-.34,1.67-2.11V11.57c0-1.82-.65-3-2.37-3a4.56,4.56,0,0,0-2.89,1.35V16c0,1.8.16,1.85,1.7,2v.72H117.7V18c1.72-.19,1.87-.29,1.87-2V10.61c0-1.69-.18-1.77-1.58-2V7.93a15,15,0,0,0,3.63-1V8.94c.53-.36,1.1-.75,1.77-1.19A4,4,0,0,1,125.55,7c2.08,0,3.38,1.53,3.38,4.05V16c0,1.77.16,1.85,1.67,2v.72Z"/><path d="M141.67,16.48A5.93,5.93,0,0,1,137.36,19c-3.18,0-5.1-2.6-5.1-5.59A6.65,6.65,0,0,1,134,8.87,5.3,5.3,0,0,1,137.82,7a4.05,4.05,0,0,1,4,4c0,.52-.1.75-.52.86s-3.85.33-6.94.44c-.08,3.48,2,4.91,3.9,4.91a4.42,4.42,0,0,0,3-1.32ZM137.2,8c-1.2,0-2.37,1.11-2.73,3.22,1.46,0,2.91,0,4.45-.08.46,0,.62-.13.62-.52A2.41,2.41,0,0,0,137.2,8Z"/><path d="M161.2,8c-1.33.21-1.56.5-2.11,1.95-.75,2-2,5.62-3.12,9.05h-.8c-1-2.78-2.11-5.49-3.13-8.16-1,2.39-2.13,5.27-3.17,8.16h-.78c-.93-3.09-1.92-6.16-3-9.28-.47-1.41-.7-1.56-2-1.72v-.7h5.41V8c-1.56.26-1.67.39-1.31,1.59.6,2,1.31,4.13,1.93,6.08,1-2.65,2.08-5.35,3.09-8.24H153c1,2.7,2,5.51,3.12,8.32.57-1.59,1.4-4.13,1.89-6,.34-1.35.13-1.48-1.63-1.72v-.7h4.86Z"/><path d="M168.79,10.37c-.47-1.5-1.2-2.54-2.78-2.54a1.62,1.62,0,0,0-1.67,1.69c0,1.14.86,1.69,2.26,2.31,2.14.94,3.36,1.77,3.36,3.56,0,2.39-2.19,3.62-4.24,3.62a6.73,6.73,0,0,1-3.09-.76c-.13-.75-.37-2.23-.47-3.09l.75-.13c.47,1.66,1.38,3.09,3.2,3.09A1.77,1.77,0,0,0,168,16.35c0-1.17-.7-1.79-2.13-2.41-1.69-.78-3.35-1.64-3.35-3.62S164.16,7,166.6,7a13.79,13.79,0,0,1,2.55.34c.08.62.26,2.26.39,2.88Z"/><path d="M181.74,16.35A6.21,6.21,0,0,1,177.29,19,5.25,5.25,0,0,1,172,13.55a6.18,6.18,0,0,1,2.62-5.1,6.86,6.86,0,0,1,4-1.48,3.82,3.82,0,0,1,2.41.7.82.82,0,0,1,.42.75,1.3,1.3,0,0,1-.94,1.17c-.13,0-.23-.05-.49-.26a3.91,3.91,0,0,0-2.63-1.09c-1.71,0-3.22,1.46-3.22,4.16,0,3.62,2.44,4.81,4,4.81a4.14,4.14,0,0,0,3.17-1.43Z"/><path d="M190.19,18.69V18c1.5-.16,1.71-.29,1.71-2V11.7c0-2.16-.83-3.25-2.57-3.22a3.71,3.71,0,0,0-2.76,1.35V16c0,1.69.21,1.85,1.77,2v.72h-5.67V18c1.51-.13,1.85-.26,1.85-2V3.43c0-1.38-.08-1.71-1.82-1.87V.88A16.18,16.18,0,0,0,186.57,0V8.87A5.87,5.87,0,0,1,190.34,7c2.13,0,3.62,1.32,3.62,4.44V16c0,1.72.2,1.85,1.71,2v.72Z"/><path d="M203.06,7a5.58,5.58,0,0,1,5.66,5.82A5.83,5.83,0,0,1,203.06,19a5.72,5.72,0,0,1-5.78-5.8A6,6,0,0,1,203.06,7Zm-.32.88c-1.58,0-3,1.54-3,4.55,0,3.3,1.45,5.7,3.59,5.7,1.61,0,3-1.17,3-4.74C206.28,10.32,205,7.85,202.74,7.85Z"/><path d="M216.73,7a5.59,5.59,0,0,1,5.67,5.82A5.83,5.83,0,0,1,216.73,19a5.71,5.71,0,0,1-5.77-5.8A6,6,0,0,1,216.73,7Zm-.31.88c-1.59,0-3,1.54-3,4.55,0,3.3,1.46,5.7,3.59,5.7,1.61,0,3-1.17,3-4.74C220,10.32,218.71,7.85,216.42,7.85Z"/><path d="M223.86,18.69V18c1.66-.16,1.87-.29,1.87-2V3.51c0-1.59-.13-1.74-1.8-1.95V.88A18.1,18.1,0,0,0,227.78,0V16c0,1.72.16,1.85,1.85,2v.72Z"/><path d="M233.45,19.06a1.55,1.55,0,0,1-1.59-1.66,1.58,1.58,0,0,1,1.59-1.67,1.62,1.62,0,0,1,1.64,1.67A1.59,1.59,0,0,1,233.45,19.06Z"/><path d="M246.66,16.48A6,6,0,0,1,242.34,19c-3.17,0-5.09-2.6-5.09-5.59a6.65,6.65,0,0,1,1.69-4.55A5.3,5.3,0,0,1,242.81,7a4.06,4.06,0,0,1,4,4c0,.52-.11.75-.52.86s-3.85.33-6.94.44c-.08,3.48,2,4.91,3.9,4.91a4.4,4.4,0,0,0,3-1.32ZM242.19,8c-1.2,0-2.37,1.11-2.73,3.22,1.45,0,2.91,0,4.44-.08.47,0,.63-.13.63-.52A2.42,2.42,0,0,0,242.19,8Z"/><path d="M261.29,18a28.48,28.48,0,0,0-4,1V17.32c-.46.28-1.14.65-1.61.93a4.74,4.74,0,0,1-2.05.76c-2.08,0-4.84-2.08-4.84-5.72A6.55,6.55,0,0,1,255.5,7a5.32,5.32,0,0,1,1.76.28V3.43c0-1.66-.18-1.71-2-1.87V.88A25.43,25.43,0,0,0,259.32,0V15.68c0,1.35.18,1.48,1.14,1.58l.83.06Zm-4-8.73A3.24,3.24,0,0,0,254.53,8c-1.24,0-3.45.83-3.45,4.58,0,3.14,1.95,4.81,3.61,4.84a4.62,4.62,0,0,0,2.57-.94Z"/><path d="M275,18.1a29.75,29.75,0,0,0-4,.91V17c-1.4,1.17-2.54,2-4,2-1.75,0-3.25-1.07-3.25-3.9v-5c0-1.4-.21-1.56-.86-1.69l-.73-.13V7.57c1.12-.06,2.83-.32,3.72-.47-.08.83-.08,2.08-.08,3.79v3.54c0,2.29,1.2,2.94,2.37,2.94a4.1,4.1,0,0,0,2.8-1.25V10.06c0-1.4-.31-1.58-1.19-1.71L269,8.24V7.57a38.39,38.39,0,0,0,4.08-.47v8.71c0,1.3.21,1.48,1.19,1.53l.73,0Z"/></g></g></svg>