<svg xmlns="http://www.w3.org/2000/svg" width= "70%" viewBox="0 0 288.47 130.18"><defs><style>.cls-1{fill:none;stroke:#000;}</style></defs><title>logoname</title><g id="Layer_2" data-name="Layer 2"><g id="Layer_1-2" data-name="Layer 1"><path class="cls-1" d="M33.12,33.41l14.1-.88a10.67,10.67,0,0,0,1.86,5.23,7.84,7.84,0,0,0,6.54,2.91,7.28,7.28,0,0,0,4.9-1.48,4.49,4.49,0,0,0,1.71-3.46A4.39,4.39,0,0,0,60.6,32.4Q59,30.93,53,29.62q-9.75-2.19-13.91-5.83a11.7,11.7,0,0,1-4.18-9.26,12.55,12.55,0,0,1,2.14-7A14.25,14.25,0,0,1,43.5,2.38Q47.8.5,55.3.5q9.2,0,14,3.42T75.06,14.8l-14,.81a7.52,7.52,0,0,0-2.34-4.71,7.53,7.53,0,0,0-4.93-1.47,5.94,5.94,0,0,0-3.89,1.1,3.36,3.36,0,0,0-1.31,2.66,2.66,2.66,0,0,0,1.08,2.06q1,1,5,1.77,9.7,2.1,13.92,4.24a14.62,14.62,0,0,1,6.11,5.31,13.48,13.48,0,0,1,1.92,7.1,15.23,15.23,0,0,1-2.55,8.51,16,16,0,0,1-7.14,5.9,28.62,28.62,0,0,1-11.54,2q-12.24,0-16.95-4.72A18.55,18.55,0,0,1,33.12,33.41Z"/><path class="cls-1" d="M82.22,25.33q0-11.74,6.54-18.29T107,.5q12,0,18.45,6.43t6.48,18q0,8.4-2.84,13.79a20.09,20.09,0,0,1-8.17,8.37q-5.35,3-13.33,3T94.15,47.51a20.15,20.15,0,0,1-8.62-8.18Q82.21,33.74,82.22,25.33ZM97,25.4q0,7.26,2.7,10.43a10.21,10.21,0,0,0,14.74.07q2.61-3.1,2.62-11.16,0-6.76-2.74-9.89A9.32,9.32,0,0,0,107,11.72a9,9,0,0,0-7.19,3.17Q97,18.07,97,25.4Z"/><path class="cls-1" d="M140,1.32H176.6v10.3H154.85V20h18.58v9.68H154.85v19.6H140Z"/><path class="cls-1" d="M185.17,1.32H200v48H185.17Z"/><path class="cls-1" d="M240.15,41.36H223.32L221,49.28H205.85l18-48H240l18,48H242.54ZM237.07,31l-5.29-17.24L226.54,31Z"/><path class="cls-1" d="M.5,81.72H20l7.52,29.18L35,81.72H54.45v48H42.31V93.1L33,129.68H22L12.64,93.1v36.58H.5Z"/><path class="cls-1" d="M93.39,121.76H76.56l-2.34,7.92H59.09l18-48H93.28l18,48H95.79Zm-3.08-10.37L85,94.15l-5.24,17.24Z"/><path class="cls-1" d="M116.21,129.68v-48h24.7a35.69,35.69,0,0,1,10.5,1.18,11.18,11.18,0,0,1,5.86,4.36,13.54,13.54,0,0,1-4.16,19.35,17.64,17.64,0,0,1-5.2,1.9,14.65,14.65,0,0,1,3.85,1.77,14.32,14.32,0,0,1,2.37,2.52,18.71,18.71,0,0,1,2.08,3l7.18,13.9H146.64L138.72,115a11.23,11.23,0,0,0-2.68-3.7,6.23,6.23,0,0,0-3.63-1.11H131.1v19.47Zm14.89-28.53h6.25a22.84,22.84,0,0,0,3.92-.65A3.94,3.94,0,0,0,143.68,99a4.87,4.87,0,0,0-.54-6.35c-1-.82-2.83-1.24-5.53-1.24H131.1Z"/><path class="cls-1" d="M164.17,81.72h45.05V93.56H194.11v36.12H179.29V93.56H164.17Z"/><path class="cls-1" d="M216.52,81.72h14.85v48H216.52Z"/><path class="cls-1" d="M242.1,81.72h13.84L274,108.25V81.72h14v48H274l-18-26.34v26.34H242.1Z"/></g></g></svg>