<svg xmlns="http://www.w3.org/2000/svg"  width= "75%" viewBox="0 0 540.35 50.6"><defs><style>.cls-1{fill:none;stroke:#000;}</style></defs><title>namesvg</title><g id="Layer_2" data-name="Layer 2"><g id="Layer_1-2" data-name="Layer 1"><path class="cls-1" d="M.54,33.41l14.1-.88a10.76,10.76,0,0,0,1.87,5.23,7.82,7.82,0,0,0,6.54,2.91,7.25,7.25,0,0,0,4.89-1.48,4.47,4.47,0,0,0,1.72-3.46A4.4,4.4,0,0,0,28,32.4q-1.64-1.47-7.59-2.78-9.75-2.19-13.9-5.83a11.71,11.71,0,0,1-4.19-9.26,12.55,12.55,0,0,1,2.14-7,14.28,14.28,0,0,1,6.45-5.17Q15.24.5,22.72.5q9.2,0,14,3.42T42.48,14.8l-14,.81a7.52,7.52,0,0,0-2.34-4.71,7.52,7.52,0,0,0-4.92-1.47,5.94,5.94,0,0,0-3.89,1.1,3.33,3.33,0,0,0-1.31,2.66,2.66,2.66,0,0,0,1.08,2.06c.7.64,2.35,1.23,5,1.77q9.72,2.1,13.92,4.24a14.72,14.72,0,0,1,6.12,5.31,13.56,13.56,0,0,1,1.91,7.1,15.23,15.23,0,0,1-2.55,8.51,16,16,0,0,1-7.13,5.9,28.64,28.64,0,0,1-11.55,2q-12.24,0-16.95-4.72A18.6,18.6,0,0,1,.54,33.41Z"/><path class="cls-1" d="M49.65,25.33q0-11.74,6.54-18.29T74.41.5q12,0,18.45,6.43t6.48,18q0,8.4-2.83,13.79a20.12,20.12,0,0,1-8.18,8.37Q83,50.1,75,50.1T61.57,47.51A20.21,20.21,0,0,1,53,39.33Q49.65,33.74,49.65,25.33Zm14.82.07q0,7.26,2.7,10.43A9.1,9.1,0,0,0,74.51,39,9.13,9.13,0,0,0,81.9,35.9q2.63-3.1,2.62-11.16,0-6.76-2.73-9.89a9.32,9.32,0,0,0-7.41-3.13,9,9,0,0,0-7.2,3.17Q64.47,18.07,64.47,25.4Z"/><path class="cls-1" d="M107.39,1.32H144v10.3H122.27V20h18.59v9.68H122.27v19.6H107.39Z"/><path class="cls-1" d="M152.6,1.32h14.85v48H152.6Z"/><path class="cls-1" d="M207.57,41.36H190.75l-2.34,7.92H173.28l18-48h16.17l18,48H210ZM204.5,31l-5.3-17.24L194,31Z"/><path class="cls-1" d="M252.38,1.32h19.49l7.52,29.18,7.46-29.18h19.48v48H294.19V12.7l-9.35,36.58h-11L264.52,12.7V49.28H252.38Z"/><path class="cls-1" d="M345.27,41.36H328.44l-2.34,7.92H311l18-48h16.16l18,48H347.67ZM342.19,31,336.9,13.75,331.66,31Z"/><path class="cls-1" d="M368.09,49.28v-48h24.7a35.69,35.69,0,0,1,10.5,1.18,11.14,11.14,0,0,1,5.86,4.36,13.28,13.28,0,0,1,2.22,7.77,13.31,13.31,0,0,1-1.7,6.89A13.22,13.22,0,0,1,405,26.21a17.64,17.64,0,0,1-5.2,1.9,14.65,14.65,0,0,1,3.85,1.77A14.65,14.65,0,0,1,406,32.4a19.18,19.18,0,0,1,2.07,3l7.18,13.9H398.52L390.6,34.62a11.23,11.23,0,0,0-2.68-3.7,6.23,6.23,0,0,0-3.63-1.11H383V49.28ZM383,20.75h6.25a22.84,22.84,0,0,0,3.92-.65,3.94,3.94,0,0,0,2.41-1.51,4.44,4.44,0,0,0,.93-2.78A4.42,4.42,0,0,0,395,12.24c-1-.82-2.83-1.24-5.53-1.24H383Z"/><path class="cls-1" d="M416.05,1.32H461.1V13.16H446V49.28H431.17V13.16H416.05Z"/><path class="cls-1" d="M468.4,1.32h14.85v48H468.4Z"/><path class="cls-1" d="M494,1.32h13.84l18.06,26.53V1.32h14v48h-14l-18-26.34V49.28H494Z"/></g></g></svg>