<svg xmlns="http://www.w3.org/2000/svg" width= "200px" viewBox="0 0 135.04 16.9"><title>number</title><g id="Layer_2" data-name="Layer 2"><g id="Layer_5" data-name="Layer 5"><path d="M10.84,13.05c-.34,1.17-.78,2.5-1,3.46H0v-.62C1.43,14.48,3,13,4.26,11.47c1.64-1.93,3.2-4,3.2-6.27s-1.14-3.41-3-3.41S1.51,3.2.83,4.21l-.6-.54L1.72,1.56A4.7,4.7,0,0,1,5.28,0,4.25,4.25,0,0,1,9.7,4.5c0,2.21-.81,3.77-3.28,6.29C5.3,12,3.67,13.55,2.55,14.61h5c1.41,0,1.8-.13,2.68-1.77Z"/><path d="M14.12,16.51v-.73c2.88-.18,3-.31,3-2.26v-10c0-1.33-.18-1.38-1.33-1.49l-1.27-.13V1.27A21.28,21.28,0,0,0,19.32,0V13.52c0,2,.15,2.08,3.07,2.26v.73Z"/><path d="M33.83,11.78v2c0,1.72.1,1.85,2.21,2v.73H29.43v-.73c2.21-.18,2.34-.34,2.34-2v-2H24.91V11C27.38,7.49,30.06,3.69,32.66.08h1.17V10.53h2.54v1.25Zm-2.06-9c-1.64,2.39-3.46,5-5.25,7.72h5.25Z"/><path d="M39.73,16.87a1.55,1.55,0,0,1-1.59-1.66,1.57,1.57,0,0,1,1.59-1.66,1.61,1.61,0,0,1,1.63,1.66A1.58,1.58,0,0,1,39.73,16.87Z"/><path d="M51.53,9l-1.74.88a3.32,3.32,0,0,1-1.56.39,4.63,4.63,0,0,1-4.68-4.86A5.35,5.35,0,0,1,48.88,0c3.35,0,5.22,3,5.22,6.5a10.33,10.33,0,0,1-6.57,9.72,11,11,0,0,1-3.1.68l-.13-.81A8.65,8.65,0,0,0,51.53,9Zm-3-8.06c-2,0-2.73,1.92-2.73,3.74,0,2.29,1.27,4.19,3.45,4.19a4,4,0,0,0,2.34-.75,12.91,12.91,0,0,0,.11-1.69C51.74,4.08,51.09.91,48.57.91Z"/><path d="M57.51,16.51v-.73c2.89-.18,3-.31,3-2.26v-10c0-1.33-.18-1.38-1.32-1.49L58,1.92V1.27A21.28,21.28,0,0,0,62.71,0V13.52c0,2,.16,2.08,3.07,2.26v.73Z"/><path d="M79.45,13.05c-.33,1.17-.78,2.5-1,3.46h-9.8v-.62c1.43-1.41,3-2.94,4.27-4.42,1.63-1.93,3.19-4,3.19-6.27s-1.14-3.41-3-3.41S70.12,3.2,69.44,4.21l-.6-.54,1.49-2.11A4.7,4.7,0,0,1,73.89,0a4.25,4.25,0,0,1,4.42,4.5c0,2.21-.81,3.77-3.28,6.29-1.11,1.17-2.75,2.76-3.87,3.82h5c1.41,0,1.8-.13,2.68-1.77Z"/><path d="M83.12,16.87a1.55,1.55,0,0,1-1.59-1.66,1.57,1.57,0,0,1,1.59-1.66,1.62,1.62,0,0,1,1.64,1.66A1.59,1.59,0,0,1,83.12,16.87Z"/><path d="M94.92,9l-1.74.88a3.32,3.32,0,0,1-1.56.39,4.63,4.63,0,0,1-4.68-4.86A5.35,5.35,0,0,1,92.27,0c3.35,0,5.23,3,5.23,6.5a10.34,10.34,0,0,1-6.58,9.72,11,11,0,0,1-3.1.68l-.13-.81A8.64,8.64,0,0,0,94.92,9ZM92,.91c-2,0-2.73,1.92-2.73,3.74,0,2.29,1.27,4.19,3.46,4.19A4,4,0,0,0,95,8.09a14.78,14.78,0,0,0,.1-1.69C95.13,4.08,94.48.91,92,.91Z"/><path d="M109.17.31l.16.21-.68,1.72h-6c-.23,1.43-.57,3.45-.81,4.73a12,12,0,0,1,3.07-.76,4.54,4.54,0,0,1,4.89,4.42A5.5,5.5,0,0,1,107.58,15a7.92,7.92,0,0,1-4.6,1.82,3.87,3.87,0,0,1-2.7-1c-.37-.34-.47-.55-.42-.89a1.34,1.34,0,0,1,.55-.88.55.55,0,0,1,.73,0,4.52,4.52,0,0,0,3.27,1.43c2.19,0,3.23-1.87,3.23-3.82,0-2.29-1.38-3.93-4.27-3.93a7.9,7.9,0,0,0-2.6.47l-.08-.1c.39-2,1-5.7,1.25-7.78Z"/><path d="M117.67,0a4,4,0,0,1,4.24,3.85,3.2,3.2,0,0,1-.73,2.1A20.31,20.31,0,0,1,119,7.62c1.8,1,3.56,2.23,3.56,4.5,0,3-2.75,4.7-5.22,4.7-2.89,0-5-1.66-5-4.29a3.08,3.08,0,0,1,1.2-2.57,22.25,22.25,0,0,1,2.34-1.61c-1.69-1-2.89-2.24-2.89-4.09A4.39,4.39,0,0,1,117.67,0Zm0,16c1.74,0,2.81-1.17,2.81-3.06,0-2.08-1.74-3.1-3.85-4.11a4,4,0,0,0-2.18,3.56C114.45,14.74,116,16,117.67,16ZM117.36.88A2.4,2.4,0,0,0,115,3.54c0,1.89,1.27,2.6,3.3,3.66A3.79,3.79,0,0,0,120,4C120,1.79,118.71.88,117.36.88Z"/><path d="M134.39.31l.15.21-.67,1.72h-6c-.24,1.43-.57,3.45-.81,4.73a12,12,0,0,1,3.07-.76A4.54,4.54,0,0,1,135,10.63,5.5,5.5,0,0,1,132.8,15a7.92,7.92,0,0,1-4.6,1.82,3.87,3.87,0,0,1-2.7-1c-.37-.34-.47-.55-.42-.89a1.34,1.34,0,0,1,.55-.88.54.54,0,0,1,.72,0,4.57,4.57,0,0,0,3.28,1.43c2.18,0,3.22-1.87,3.22-3.82,0-2.29-1.37-3.93-4.26-3.93a7.85,7.85,0,0,0-2.6.47l-.08-.1c.39-2,1-5.7,1.25-7.78Z"/></g></g></svg>