<svg xmlns="http://www.w3.org/2000/svg"  viewBox="0 0 802.66 174.95"><defs><style>.cls-1{fill:#fd8;}</style></defs><title>tape</title><g id="Layer_2" data-name="Layer 2"><g id="texture"><path class="cls-1" d="M709.67,2.4c-3.78,2-8-1.71-13.71-.7C697.82-1,705.63,2.18,709.67,2.4ZM599.06,1.7c-1.93.52-20.88-1.44-19.58,1.42,6.21-.79,15.25.27,25.45-1.42ZM542.29,4.53c6.08-.37,14,.35,15.65-2.13C514.08,5.9,457.73,6,418,11.6,456.6,9.82,500.62,7.08,542.29,4.53Zm-23.5,5c2.67,1.13,8.55.31,14.69,0,2.62-.13,12.17.61,8.81-.71-10.28.1-16.17.31-21.54-2.12C520.24,7.7,519.3,8.43,518.79,9.48Zm-219.26.71c3.84-.76,9.57-.16,12.72-1.42C309.13,8.3,302.19,7.11,299.53,10.19ZM456.15,11.6c1.15.11,2.77-.12,2.93.7a2.65,2.65,0,0,0-2,1.42c3.41-.39,12.4-.44,11.75-1.42-5.28,0-2.81.07-2-2.11C464.6,11.58,458.15,10,456.15,11.6Zm215.34,0c-4.3-1.18,7.24-.24,2.94-1.41-3.74-.12-7.13,0-8.81,1.41C668.44,10.61,670.59,13.52,671.49,11.6Zm75.38,0c-3,.44-8.44-.91-9.79.7C740.05,11.86,745.51,13.21,746.87,11.6Zm3.91,2.83c3.6,0,13.3.68,9.79-2.13C758.6,12.24,753.18,12.79,750.78,14.43Zm29.36,139.3c-.34-1.89,4.08-6.32,0-6.36C781.92,150.83,775.44,152.39,780.14,153.73ZM555,165.75c3.29-.44,9.09.91,10.76-.7C561.35,164.78,558.14,163.87,555,165.75Zm-178.15,7.07c6.45-.51,18.38,2.09,20.55,0C388.57,171.76,382.61,169.84,376.86,172.82Zm-24.47.71c3.29-.45,9.09.91,10.77-.71C360.84,171.67,353.48,171.59,352.39,173.53Zm-17.62.71c.5-2.53-8.79-1.62-9.79-.71C327.48,174.68,331.73,172.42,334.77,174.24ZM741,3.12c.83-2.53,5,1.81,5.88-.72-2.93,0-6.34-3.37-7.83-2.12C742.9.51,738.31,2.47,741,3.12Zm-715.54,41c-2.88,1.62-1,5.61-6.85,6.36.07-1.1-2.86-.49-1,0C18,56,6.13,56,0,56.15c4.25,1.17,12.46-.52,12.73,3.53-2.44-.1-4.76-.13-4.91,1.42,5.25.22,10.3.58,9.8,4.95-1.48-.57-8.52.08-7.83.71,1.73,1.59,6.35-.68,7.83.7,4.94,4.64-3,17.49-7.83,14.85.59,1.23,4.64,0,4.89,1.42-1.77,1.17-2.42,3.4,0,4.23V84.44c1.76-1.13,8.26-2.48,10.77-.71-1.63,3.7-.09,5.62-3.92,7.07-3.65-.22-10-2.16-12.73-.71,3,.92,7.86.46,9.8,2.12-11.64.38-2-.2,1,2.12-1.33.69-2,1.89-2.94,2.83,1.4,1.56,2.39-.89,2.94.7-3.13,1.33.67,3.28-2.94,4.25-2.34.43-7.11-.89-7.84.71,3.21,1.22,10.29-.36,8.82,4.24-1.47.12-3.61-.25-3.92.71,5.88,0-1.32,1,2.94,2.12.3,1.63-2.83.78-2.94,2.12,4.9,0,1.52,2.48,0,3.54-2,.42-6.43-.88-6.85.7,1.83,1,6.48,0,7.83,1.42-1.64.08-8.87-.38-5.88.7,4.61-.25,8.08.29,8.82,2.83-5.32-1-9.88,2.26-7.83,4.25,1-.66.3-2.61,2.94-2.12,0,.93,1.71.64,1.95,1.41-3.56,3.15,1.48,5.12,3.92,7.78-1.47.83-4,.88-4.9,2.12,4.72.56,10.59-1.74,12.72-.71-1.33,4.73,2.83,5.51,3.92,8.49-1,2.57-3.85,3.82-6.85,5,6.5,1.58-5,5-3.91,4.94,4.35-.38,11.77.76,6.84,2.83,1.43.39,5.07-.82,4.9.71-1.42.39-5.06-.83-4.9.71.77.16,1.93,0,2,.71-.54,0-1.11.57,0,.7,3.29-2.23,17.27-2.23,20.56,0-1.29,1.7-11,1-9.79,2.13,4.32.06,16.36-.72,10.77,2.12,14.89-1.69,30.46-1,44,2.83-2.65.93-11.06,1.4-9.78,2.82,4.21-3.43,5.67,3.51,7.83,1.42a1.09,1.09,0,0,1-1-1.42c2.18.78,3-1.93,5.88-2.12,21.48-1.41,62.07,8.63,83.2,7.07-.76-.15-1.93,0-2-.7,31.28,2.53,75.91-.1,112.57,1.41-2.43-.11-4.07.37-4.9,1.42h13.71c-3.51-4.56,5.68,1.57,1-2.13,6.27-.26,12.47,3.24,18.6.71-2.43.11-4.06-.37-4.89-1.41,30.42,1.11,61.88-6.42,89.08,0-.76.15-1.93,0-2,.7,31.09-1.14,44.5-2.58,75.37-3.53a2.81,2.81,0,0,1-1,2.12c2.51-.07,4.67-.41,5.88-1.42-1.05-2.19-4.84-.26-7.84-2.12,8.43.91,11.51-2.67,16.64-.7-2.33,1.37-4.67-.71-6.85,1.42,7.79.43,12.66-1.24,20.56-.72,2.17-1-1.24-1.72,1-2.12.38,2.92,10.24-2.36,5.87,1.42,5.25.11,13.71,1.44,17.62-.71-2-1.18-7.26.06-8.81-1.41,5.74-2.09,15.46-1,22.52,0-4.67.5-6.46-.6-7.84,1.41,5.24,1.42,5.25-1.92,9.79,0,.39-1.22-1.45-1.81,0-2.12,9.5-.21,13.57-.88,24.48-.71,0,.71-.81.85-1,1.42,1.72-.41,5.75.85,5.88-.71-1.15-.11-2.78.12-2.94-.71,2.12-.39,8-1.69,9.79,0-2.21,1.52-4.31-.91-5.88,1.42,6.31-.21,10.9,1.89,13.71-1.42,1.72,1.25,5.3,2.51,2,3.54,4-.89,14.25-1,14.68-2.12-15.29.41-7.77-2.72,3.92-1.42-.06.91-1.26,1-1,2.12,27.1-.4,53.93,2.53,77.33.71-.75-.16-1.93,0-2-.71,3.71-.11,6.2,0,2.94,1.42,7.12,0,15.78,2.3,18.59-2.12-4.86.21-7.9-.89-9.78-2.83,15.77-2.21,11.24-1.34,25.45,0-1.86-3.59,9.35-6.21,7.83-2.83,12.69-1,17.67-7.51,29.36-9.19-.11,1.34-3.23.49-2.93,2.11,8.67-1.31,8.4,3.84,16.63,2.83.42-2.41-2.92-2.12-3.91-3.53,1.83-.1,3.27-.46,3.91-1.41-2.66-.32-1.3-3-1-3.54,4.14.81,2.31.41,1-1.42,5.77-1.26,9,1.67,15.67,0,.15-3.12-2.77.34-3.91-1.41,2.69-1.88-.73-2.48-1-4.24,2.29-1.43,8.49-2.23,2.93-3.53,3.66-1.46,5.74,3.31,5.87,0-3.1.11-3.27-1.89-6.85-1.42,2.73-1.75-2.66-6.19-3.92-4.95,1,0,1.24,1.24,0,1.41-2.49-.08-5-.12-4.89-2.11,2.84-4.59,8.36-5,15.66-5,.58-1.71.59-3.13,3.92-4.24,1.16.21,3.7,2.85,4.89.7-2.48-.08-3.79-1-3.91-2.82,1.3-1,5.54-1,6.85,0-1.77-1.51-1.54-3.38-2-4.24-10.32-1.86-7.6-12.27-13.7-17.68-.24-2.3,3.58-1.66,4.89-2.83-.87-1.73-4.77-1.27-5.88-2.83.82-2.44,7.55.18,5.88-1.41a12.77,12.77,0,0,0-7.83,0c.74-1.84-6.27-3.94-1.95-5.66-3.24-.63-4-.91-5.88-3.54,3.58.47,3.76-1.53,6.86-1.41-2.47-1.52-2.59-2.2-3-6.36,2.24.19,3.69-.17,3.92-1.42-3.38-2-4.29-5.85-6.85-8.48,1.64,2,6.71-1.12,3.92-2.13-3.08,2.39-.14-2-1-4.24-5.56-1.27-7.28-5-5.86-7.78.3,2.64-4.53-.4-4.9,0,3.69-2.61-5-3.5-2-5.66,3.85.76,3.14,4.81,6.86,5.66,1.74-1.8-1.09-3.45,2-4.95-4.56,0-5.26-2.79-6.85-4.94,3.4,0,7.46,1.75,3.92,2.82,1.24.14,4.79,2,4.89.71-3.44-2,2.45-.46,1.95-1.42-5.59-.45-9.72-5.68-8.81-8.48,8.13-1.11,10.42,4.2,14.68,7.77-.16-8.12-8.36-10.44-14.68-14.14.46-1.94,0-3.85,2.95-3.54a98.3,98.3,0,0,0-16.65-1.41c.76.16,1.93,0,2,.71-1.54.07-3.4-.09-2.94,1.41,4.94-.48,9.07,1.83,8.81-.71,1,2.51,4.33-.6,3.92,2.13-4.26.71-18.94-.31-15.66-3.54-3.23,1.21-4.89,0-6.85-1.41,3.16-.59,8.46.88,8.81,0-4-1.93-10.68-5.46-14.69-1.41,1.16.11,2.78-.12,2.94.7-7.25,1.76-21.55,2.59-33.28,0a157.34,157.34,0,0,0,24.47-1.41c-1.15-.11-2.78.12-2.94-.71,5.63-.49,8.26.41,10.77-1.41-15.91-2.71-29.51,3.89-49,2.83-.14-1.76-.18-3.44,2-3.54,1.3-.1,3.64,2.38,3.92.71a2.63,2.63,0,0,1-2-1.41c13.49-1.15,24.75,1.39,30.34-2.13-8,.57-12.25-1.52-16.65-3.53,6.27.28,9.06-1.95,11.75-4.24-1.71.19-4.88-2-5.87,0,1.19.07,2.32.21,2,1.41-5.48,1.86-9,.91-12.73,3.53,1.87.33,4.22-2.18,3.92.71C705,8.2,698,9.66,695,8.77c.15,3.9,7.87-.87,8.81,1.42-8.69,2.92-22.15,1.14-31.33,2.11.76.16,1.93,0,2,.72-35.53.17-75-4.07-111.59-.72-3,.28-5.84,1.37-8.81,1.42-43.86.73-87.79,3.47-133.13,2.12-4.78-.14-11.4-1.71-15.66,2.12,5.24.46,13-.92,16.64.71C403.67,18.26,385.68,21,371,18a278.79,278.79,0,0,0,32.31-1.41c-11.46-.71-31.24,0-46-1.42C374.7,12.86,401,14,414.05,10.89c-7.28.18-17.2-1.65-24.47,1.41V10.89c-33,5.11-92,2-130.19,4.95,1.54.07,3.4-.09,2.94,1.42-7.46-.44-30.63-.1-41.11.7,2.33-.18-9.61,2.33-9.79,0,0,.46,12.41-.68,4.9-.7-37.79,1.38-75.05-4.3-107.68-2.83,1.42.38,5.06-.83,4.89.7-14,3.18-36.77,3.52-53.83,2.13-8.57,6.57-25.93-.9-34.26,4.94,3.52,1.7,8.76,2.16,10.76,5C29.47,32.18,19.92,35.17,25.45,44.13ZM775.25,31.4c-6.4-2.2-9.78-2.68-15.66-5.65C763.14,26,773.74,27.29,775.25,31.4ZM557,15.13c-4.74,1.93-8.33.54-14.68.71C544.07,14.7,553.41,14.37,557,15.13Zm87.11,2.13c3.3-1.81,8.51-1.64,10.78,0,5.71-3.55,10.1-2.29,21.53-2.83-2.31,4.05-10.31.65-12.72,2.12,5.25,1.1,18.05,1.09,3.91,1.41-2.31,0-2.88,1.22-5.88.71C662.14,15.3,652.48,19.29,644.08,17.26Zm-115.5-1.42c-2,2.87-8.44-.63-13.71,1.42C516.25,14.48,524.15,16.42,528.58,15.84Zm-233,1.42a39.83,39.83,0,0,1-14.68.7C284.88,16.94,291.36,16,295.61,17.26Zm23.49-.71c-2.88,2.09-5.07.88-10.76,1.41C307.52,17.1,315.46,16.54,319.1,16.55ZM160.53,18.67c-2.25-.71-25,3.15-28.39.71C134.66,21.2,155.27,16.56,160.53,18.67ZM766.44,32.81c1.87-2.2,3.5,1.64,4.89,2.12-1.69,2.3-2.56-1.83-5.87-.7,0-.69,1.2-.55,2-.71C767.6,32.92,767,32.85,766.44,32.81Zm13.7,79.91c.2-1,6.41-.45,5.87,1.41h-4.88A1.09,1.09,0,0,0,780.14,112.72Zm8.82,2.12c-.34,1.88-2.57,2.38-4.9,2.83C784.25,115.68,785.76,114.66,789,114.84Zm-1,8.49c-1.07-.18-.67-1.41-2-1.42-.7-1.93,2-1.42,2-2.83C788,121.36,791.71,120.65,788,123.33ZM452.23,165.75c-2.15,2.85-9.17.33-11.75,1.42C443.39,164.81,446.74,164.52,452.23,165.75Zm22.51-.7c2.63-.4,6-1.17,10.77,0C483,165.57,478.23,166.13,474.74,165.05Zm-40.13,2.12c.16,1.54-3.47.32-4.89.7,9.18,2.78,24.72-1.23,38.17,0,5.1.43-2,1-3.91.72h-7.83c-16.82,1.8-31.1,1.12-50.91,1.4C413,167.55,422,168.08,434.61,167.17ZM282.88,6.65c1.58-1.69,8.63.57,8.81-2.12-10,1.37-15.76.8-22.51,2.12,3.66,2.07,9.19-.38,10.77,2.12-1.42.39-5.06-.83-4.9.71,2.83,2.1,8.78-.79,10.77.71C289.86,8.31,286.73,9.19,282.88,6.65Zm149.77,8.48c3.41-2.48,15.8,1.51,17.62-2.11C445,15,432.16,11.09,432.65,15.13ZM205.55,8.77c-45.88.75-100.81-2.91-134.1,2.83C81.11,10,93.66,15.67,104.73,13c-2.87-1.23-9.22.06-9.79-2.83,12.2.66,21.82-2.15,33.29-.71-1.77,1.8-14.21-.4-12.73,1.41,21.16,0,46.49,2.62,58.73,0,31.9,2.49,61.67.71,95-1.41-4.79-2.11-11.46,1.46-14.69-1.42,3.86-1,10.92.34,12.73-2.12-20.87,1.3-52.52,2.53-64.6,3.54C203.77,9.37,205.4,9.6,205.55,8.77Zm43.07,0c-4.46.74-12.24,2.2-16.63.71C235.55,7.45,243.77,7.9,248.62,8.77Z"/></g></g></svg>