<svg xmlns="http://www.w3.org/2000/svg" viewBox="0 0 198 194.39"><defs><style>.cls-1{fill:#fff;}</style></defs><title>Asset 17</title><g id="Layer_2" data-name="Layer 2"><g id="Layer_1-2" data-name="Layer 1"><path class="cls-1" d="M171.89,4.9l-2.07,2.68-.17.22c-.26.32-.2.61.21,1l0,0-.1.13-1.37-1,.11-.13.06,0a.75.75,0,0,0,.66.13c.1,0,.15-.1.42-.45l1.58-2c.59-.79.6-.88.13-1.22l0,0,.11-.13,1.07.83-.17,4.69,1.79-2.31c.33-.39.3-.63-.11-1L174,6.2l.1-.13,1.33,1-.11.14,0,0c-.46-.27-.71-.21-1,.22l-2.47,3.19-.11-.09Z"/><path class="cls-1" d="M176.6,12.49l-1,1.09-2.92-2.45.1-.13.08.06c.43.35.53.32,1.16-.45l1.54-1.83c.63-.72.65-.83.27-1.15l0,0,.1-.13,2.52,2.12-.7,1-.12-.1c.43-.81.36-1.1-.35-1.67l-.49-.41L175.38,10l.37.31c.45.37.61.37,1-.07l0,0,.12.1-1.08,1.28-.12-.1,0,0c.38-.48.37-.63-.07-1l-.38-.32-.75.88c-.72.85-.73.92-.24,1.32l.27.22c.55.5,1.11.46,1.93-.14Z"/><path class="cls-1" d="M179.64,15.72c-.1,1.15-.08,1.27.21,1.55l0,0-.11.12-1.69-1.54.11-.13,0,0c.31.28.49.33.62.18s.11-.18.16-.74l.12-1.35-1.16.2c-.69.13-.69.13-.79.24s-.12.38.12.61l0,0-.11.13-1.32-1.21.12-.12,0,0c.45.32.84.36,1.86.14l1.23-.2.16-2c0-.17,0-.29,0-.34.07-.58,0-.76-.2-1l0,0,.11-.12,1.45,1.33-.11.12,0,0c-.21-.19-.33-.22-.44-.1s-.1.16-.14.64l-.11,1.38,1.25-.23c.53-.1.57-.11.65-.2s.07-.31-.2-.57l-.05,0,.11-.12,1.28,1.17-.11.12,0,0h0c-.31-.28-.75-.32-1.69-.14l-1.2.22Z"/><path class="cls-1" d="M182.5,14.93l.86-.81,3.15,3.16-.81.85-.11-.11c.5-.72.5-1,0-1.44l-.52-.53-2.43,2.43c-.72.71-.75.81-.37,1.2l.16.15-.12.12-1.63-1.62.12-.12.17.17c.39.38.49.36,1.2-.37l2.43-2.43-.48-.48c-.51-.56-.74-.57-1.49-.06Z"/><path class="cls-1" d="M189.27,20.32c.2.21.34.37.66.68s.55.59.71.77a3.18,3.18,0,0,1,.83,1.54,2.36,2.36,0,0,1-.94,2.21,2.18,2.18,0,0,1-2.46.49,3.2,3.2,0,0,1-1.15-1l-1.33-1.54.13-.12.12.15c.35.41.46.39,1.21-.27l1.79-1.54c.76-.63.78-.72.39-1.15l-.09-.1Zm-1.62,3.26c-.68.58-.74.64-.8.8s0,.28.28.6a1.71,1.71,0,0,0,1.14.73A2.43,2.43,0,0,0,190,25a2.55,2.55,0,0,0,1.05-1.9,1.8,1.8,0,0,0-.56-1.22l-.38-.42Z"/><path class="cls-1" d="M190.83,26.89l-.31.09a2.5,2.5,0,0,0-.85.33.43.43,0,0,0-.07.63l0,0-.13.1L188.65,27l.13-.11.05.05c.29.23.49.23,1.22,0l.43-.13L194,25.76l.09.11L192,29.48c-.42.72-.43.79-.25,1.13l0,0-.13.11-1.12-1.42.13-.11,0,.05c.24.3.37.36.52.24s.07-.06.27-.42l.49-.83Zm2.31-.71-2.13.65,1,1.28Z"/><path class="cls-1" d="M196.39,31c.38,0,.46-.06.58-.15s.21-.4,0-.65l0,0,.14-.1.89,1.22-.14.1,0,0c-.3-.26-.56-.3-1.34-.19l-2.07.24-.53.38c-.82.58-.86.68-.54,1.12l0,.05-.14.1-1.16-1.59.14-.1,0,.07c.33.44.43.42,1.23-.18l.49-.35.93-2.11c.37-.81.38-.87.19-1.17l0,0,.14-.1,1.1,1.51-.14.1,0,0c-.19-.27-.35-.34-.48-.24s-.1.08-.23.38l-.9,2Z"/><path class="cls-1" d="M191.51,169.65l-2.57-2.2-.22-.18c-.3-.28-.6-.23-1,.16l0,0-.13-.11,1.13-1.31.12.11-.05.06a.77.77,0,0,0-.17.65c0,.1.1.16.43.44l2,1.69c.75.63.84.65,1.21.19l0,0,.13.11-.89,1-4.68-.41,2.22,1.9c.38.35.61.34,1-.05l.06-.07.13.11-1.09,1.27L189,173l0,0c.3-.45.25-.7-.16-1l-3.06-2.63.09-.11Z"/><path class="cls-1" d="M183.66,174l-1-1.11,2.61-2.79.12.12-.06.07c-.37.41-.35.51.39,1.18l1.75,1.63c.68.67.79.7,1.13.33l0,0,.12.11-2.25,2.41-1-.75.11-.12c.78.47,1.08.42,1.69-.27l.43-.46-1.49-1.4-.34.36c-.39.42-.4.58,0,1l0,0-.11.12-1.22-1.14.11-.12.05,0c.45.4.6.4,1,0l.35-.37-.84-.78c-.81-.77-.88-.78-1.31-.31l-.24.25c-.52.52-.51,1.08,0,1.93Z"/><path class="cls-1" d="M180.29,176.83c-1.15-.15-1.27-.14-1.57.14l0,0-.12-.12,1.64-1.6.12.12,0,0c-.3.29-.36.46-.22.61s.17.12.73.2l1.35.19-.14-1.18c-.09-.69-.09-.69-.2-.8s-.37-.14-.62.1h0l-.12-.12,1.28-1.24.12.12,0,0c-.35.43-.4.81-.24,1.85l.14,1.24,1.95.26.34,0c.58.09.76.06,1-.15l0,0,.11.11-1.4,1.38-.11-.12,0,0c.21-.2.24-.32.12-.44s-.15-.1-.63-.17l-1.37-.18.16,1.27c.07.53.08.57.16.66s.32.08.58-.18l0,0,.12.11-1.24,1.21-.11-.11,0,0h0c.29-.29.36-.73.23-1.68l-.16-1.21Z"/><path class="cls-1" d="M180.91,179.75l.77.89-3.33,3-.8-.86.11-.1c.69.54,1,.56,1.44.06l.56-.49-2.3-2.56c-.67-.76-.76-.79-1.17-.43l-.17.15-.11-.13,1.71-1.53.11.12-.18.16c-.4.37-.38.48.3,1.22l2.3,2.56.51-.46c.58-.48.6-.7.14-1.48Z"/><path class="cls-1" d="M175.2,186.22c-.22.19-.39.32-.72.62s-.61.52-.81.67a3.17,3.17,0,0,1-1.58.75,2.4,2.4,0,0,1-2.16-1.06,2.2,2.2,0,0,1-.36-2.49,3.19,3.19,0,0,1,1.07-1.09l1.61-1.25.11.14-.15.11c-.43.33-.42.44.21,1.23l1.43,1.86c.6.8.69.82,1.14.45l.11-.08Zm-3.18-1.8c-.55-.71-.61-.77-.76-.84s-.28,0-.62.25a1.69,1.69,0,0,0-.78,1.1,2.39,2.39,0,0,0,.62,1.77,2.52,2.52,0,0,0,1.85,1.16,1.82,1.82,0,0,0,1.25-.5L174,187Z"/><path class="cls-1" d="M168.58,187.43l-.09-.32a2.28,2.28,0,0,0-.28-.87.44.44,0,0,0-.63-.1l0,0-.1-.13,1.11-.8.1.14,0,0c-.25.28-.26.48-.06,1.22l.11.44.89,3.54-.11.08-3.51-2.27c-.7-.46-.76-.47-1.12-.31l0,0-.1-.14,1.48-1.05.1.14,0,0c-.31.22-.38.34-.27.51s.05.07.4.29l.81.52Zm.59,2.34-.55-2.17-1.32,1Z"/><path class="cls-1" d="M164.2,192.79c0,.39,0,.47.12.59s.39.23.65.06l0,0,.09.14-1.25.83-.1-.14,0,0c.28-.28.33-.54.26-1.32l-.14-2.09-.36-.54c-.54-.84-.63-.9-1.09-.6l-.06,0-.09-.14,1.64-1.08.1.14-.07,0c-.45.3-.44.41.12,1.24l.33.5,2.06,1c.79.41.85.42,1.16.25l0,0,.09.14-1.56,1-.09-.14,0,0c.28-.18.36-.33.27-.47s-.08-.1-.37-.24l-2-1Z"/><path class="cls-1" d="M26.94,190.64l2-2.74.16-.24c.25-.32.18-.61-.25-.94l0,0,.1-.13,1.39,1-.1.14-.06,0a.75.75,0,0,0-.67-.11c-.09,0-.14.1-.4.45l-1.52,2.1c-.58.8-.58.89-.1,1.22l0,0-.1.13-1.1-.8,0-4.69-1.71,2.36c-.32.41-.29.64.13,1l.08.06-.1.13-1.36-1,.1-.14.05,0c.47.26.71.19,1-.25l2.38-3.26L27,185Z"/><path class="cls-1" d="M22,183.18l1-1.12,3,2.36-.1.14-.08-.06c-.43-.34-.53-.31-1.14.49l-1.48,1.87c-.61.75-.63.85-.23,1.17l0,0-.1.13-2.59-2,.67-1,.13.1c-.4.82-.33,1.12.4,1.66l.5.4,1.27-1.61-.38-.3c-.46-.36-.62-.35-1,.1l0,0-.12-.1,1-1.31.13.1,0,.05c-.37.49-.35.64.09,1l.4.31.71-.9c.69-.87.7-.94.2-1.33l-.27-.21c-.56-.49-1.12-.42-1.92.19Z"/><path class="cls-1" d="M18.85,180.06c.06-1.16,0-1.27-.26-1.55l0,0,.11-.12,1.73,1.49-.11.13,0,0c-.31-.27-.49-.32-.62-.16s-.11.18-.14.74l-.08,1.35,1.16-.23c.68-.15.68-.15.78-.27s.11-.38-.14-.61h0l.11-.13,1.35,1.16-.11.13,0,0c-.46-.31-.84-.33-1.86-.08l-1.22.24-.1,2c0,.18,0,.3,0,.35,0,.58,0,.76.23,1l0,0-.11.12L18,184.2l.1-.12.05,0c.21.18.33.2.44.08s.09-.16.12-.65l.06-1.38-1.24.27c-.53.12-.57.13-.64.22s-.06.32.22.56l0,0-.1.12-1.31-1.12.11-.13,0,0h0c.31.27.76.29,1.69.09l1.19-.27Z"/><path class="cls-1" d="M16,180.92l-.83.83-3.24-3.06.79-.87.1.1c-.47.74-.47,1,.07,1.45l.53.5,2.36-2.5c.7-.73.72-.82.33-1.2L16,176l.11-.13,1.67,1.58-.11.12-.17-.16c-.41-.37-.51-.34-1.19.4l-2.35,2.5.49.47c.53.54.75.54,1.49,0Z"/><path class="cls-1" d="M9.08,175.77l-.68-.67c-.37-.37-.57-.56-.73-.75a3.09,3.09,0,0,1-.88-1.51,2.4,2.4,0,0,1,.87-2.24,2.19,2.19,0,0,1,2.45-.57,3.16,3.16,0,0,1,1.18,1l1.38,1.5-.13.11-.12-.14c-.37-.4-.48-.37-1.21.31l-1.74,1.59c-.74.67-.76.75-.36,1.18l.09.09Zm1.53-3.32c.65-.61.71-.67.77-.83s0-.28-.3-.59a1.67,1.67,0,0,0-1.16-.69,2.4,2.4,0,0,0-1.71.76,2.58,2.58,0,0,0-1,1.94,1.83,1.83,0,0,0,.61,1.2c.13.15.24.26.39.41Z"/><path class="cls-1" d="M7.32,169.25l.31-.11a2.45,2.45,0,0,0,.84-.36.43.43,0,0,0,0-.63l0,0,.13-.11.88,1-.13.11,0,0c-.31-.22-.5-.22-1.23,0l-.42.14-3.45,1.17-.09-.1,2-3.68c.39-.74.41-.8.22-1.14l0,0,.13-.11,1.16,1.38-.12.11,0,0c-.25-.29-.37-.35-.52-.23s-.07.06-.26.43l-.46.85ZM5,170l2.11-.71L6.1,168.06Z"/><path class="cls-1" d="M1.62,165.32c-.39.06-.46.08-.58.17s-.19.41,0,.65l0,0-.13.1L0,165.08l.13-.1,0,0c.31.25.57.28,1.34.16l2.07-.31.51-.4c.8-.61.84-.71.51-1.14l0,0,.14-.1,1.21,1.55-.13.1,0-.06c-.34-.43-.44-.41-1.23.21l-.47.38-.86,2.14c-.35.82-.35.88-.15,1.17l0,0-.14.1-1.15-1.47.14-.1,0,0c.2.27.36.34.49.23s.09-.08.21-.38l.84-2Z"/><path class="cls-1" d="M3.12,25.17l2.61,2.16.22.18c.3.28.6.22,1-.18l0,0,.13.11L6,28.72l-.13-.11,0-.06a.78.78,0,0,0,.16-.66c0-.1-.09-.15-.43-.43l-2-1.66c-.76-.62-.85-.63-1.21-.17l0,0-.13-.11.87-1,4.68.35L5.57,23c-.39-.35-.62-.33-1,.06l-.06.07L4.37,23l1.07-1.28.13.11,0,0c-.29.45-.24.7.18,1l3.1,2.59-.09.11Z"/><path class="cls-1" d="M10.88,20.74l1.06,1.09L9.38,24.66l-.13-.12.07-.07c.36-.41.33-.51-.42-1.17L7.13,21.69c-.7-.65-.8-.68-1.14-.3l0,0-.13-.11L8,18.88l1,.73-.11.12c-.79-.45-1.1-.4-1.69.29l-.43.48,1.52,1.37.33-.37c.39-.43.39-.59,0-1l0,0,.1-.12,1.24,1.13-.1.11-.05,0c-.46-.4-.61-.39-1,0L8.44,22l.85.77c.83.75.9.76,1.32.28l.23-.25c.52-.53.5-1.09-.06-1.93Z"/><path class="cls-1" d="M14.22,17.82c1.15.13,1.26.12,1.56-.16l0,0,.12.12-1.61,1.63-.12-.12,0,0c.29-.3.35-.47.21-.61s-.18-.12-.74-.19l-1.34-.17.15,1.17c.11.69.11.69.22.8s.37.13.61-.1l0,0,.12.12-1.25,1.27-.12-.12,0,0c.34-.44.38-.82.2-1.85l-.16-1.23L10.25,18l-.34,0c-.57-.08-.75-.05-1,.17l0,0-.12-.12,1.38-1.39.12.11,0,0c-.2.2-.23.32-.11.44s.16.1.64.16l1.37.16-.19-1.26c-.08-.54-.09-.58-.17-.66s-.32-.08-.58.19l0,0L11,15.78l1.21-1.23.12.11,0,0v0c-.29.29-.35.73-.21,1.68l.19,1.2Z"/><path class="cls-1" d="M13.55,14.91,12.77,14,16,11l.82.85-.11.1c-.7-.53-1-.54-1.44,0l-.55.5,2.34,2.53c.68.74.78.77,1.18.41l.16-.15.12.12-1.68,1.56-.12-.12.17-.16c.4-.38.38-.48-.32-1.21l-2.33-2.53-.5.47c-.58.48-.6.71-.12,1.48Z"/><path class="cls-1" d="M19.15,8.36l.71-.63c.39-.35.6-.53.8-.69a3.18,3.18,0,0,1,1.56-.77,2.41,2.41,0,0,1,2.18,1,2.18,2.18,0,0,1,.4,2.48,3.1,3.1,0,0,1-1.05,1.11l-1.59,1.27-.1-.13.14-.11c.43-.35.41-.45-.22-1.23L20.5,8.84c-.61-.78-.69-.81-1.14-.43l-.1.08Zm3.21,1.74c.56.7.62.76.77.83s.28,0,.61-.26a1.68,1.68,0,0,0,.77-1.11,2.4,2.4,0,0,0-.65-1.76A2.52,2.52,0,0,0,22,6.67a1.86,1.86,0,0,0-1.23.52l-.44.37Z"/><path class="cls-1" d="M25.77,7l.09.32a2.23,2.23,0,0,0,.3.86.42.42,0,0,0,.62.09l0,0,.1.13-1.1.82-.1-.14,0,0c.25-.29.25-.49,0-1.22l-.12-.44-.94-3.52.11-.08L28.4,6c.71.44.77.46,1.12.29l0,0,.1.13L28.2,7.47l-.1-.14,0,0c.31-.23.38-.35.26-.51s0-.07-.4-.28L27.18,6Zm-.63-2.32.58,2.15,1.31-1Z"/><path class="cls-1" d="M30.06,1.6c0-.39,0-.47-.13-.59s-.39-.22-.65,0l0,0L29.16.85,30.4,0l.09.14,0,0c-.27.29-.32.56-.24,1.33l.17,2.09.37.53c.55.84.64.89,1.1.58l.05,0,.1.14L30.38,5.91l-.09-.14.06,0c.45-.31.44-.41-.13-1.24L29.88,4,27.8,3c-.8-.4-.85-.41-1.16-.23l0,0-.09-.14L28.05,1.6l.09.14,0,0c-.27.19-.35.34-.26.48s.09.1.37.24l2,1Z"/></g></g></svg>