<svg xmlns="http://www.w3.org/2000/svg" viewBox="0 0 270.99 270.99"><defs><style>.cls-1{fill:#231f20;}.cls-2{fill:#efe9d7;}</style></defs><title>clockfinal</title><g id="Layer_2" data-name="Layer 2"><g id="Layer_6" data-name="Layer 6"><circle class="cls-1" cx="135.5" cy="135.5" r="135.5"/></g><g id="Layer_1-2" data-name="Layer 1"><path class="cls-2" d="M120.8,19.37l.4,3.36,0,.28c0,.41.28.57.82.53h0l0,.17-1.71.2,0-.16h.08c.28-.07.52-.21.57-.37a1.51,1.51,0,0,0,0-.61l-.3-2.57c-.13-1-.18-1.05-.77-1h0l0-.17,1.36-.16,3.16,3.47-.35-2.9c0-.52-.22-.66-.78-.64h-.08l0-.17,1.66-.2,0,.17h-.06c-.52.13-.65.34-.56.85l.47,4-.14,0Z"/><path class="cls-2" d="M129.44,21.47l0,1.51-3.8.31,0-.17h.1c.55-.05.6-.14.5-1.14l-.19-2.38c-.06-.95-.12-1-.62-1h0l0-.17,3.28-.26.21,1.21h-.16c-.26-.87-.52-1-1.43-.94l-.63,0,.16,2,.49,0c.58,0,.69-.17.64-.72v-.06l.16,0,.13,1.67h-.15v-.06c-.06-.6-.17-.71-.73-.65l-.5,0,.09,1.15C127,23,127,23,127.67,23l.35,0c.73,0,1.1-.45,1.26-1.45Z"/><path class="cls-2" d="M133.9,21.62c.75.88.84.95,1.25.95h.06v.17l-2.28.09v-.17h0c.41,0,.58-.11.57-.31s-.05-.2-.41-.64l-.87-1-.69,1c-.39.58-.39.58-.38.73s.18.35.52.35h0v.17l-1.78.07v-.17H130c.55-.09.84-.33,1.42-1.21l.73-1-1.27-1.5c-.12-.14-.2-.22-.23-.27-.36-.45-.52-.55-.83-.56h-.05v-.17l2-.07v.16h-.07c-.28,0-.38.07-.37.24s0,.18.35.55l.89,1.06.73-1.05c.31-.44.33-.48.32-.59s-.17-.28-.55-.26H133v-.16l1.73-.07V18h-.07c-.42,0-.76.3-1.3,1.09l-.69,1Z"/><path class="cls-2" d="M135.39,19l0-1.17,4.46,0,0,1.17h-.15c-.16-.86-.34-1-1-1H138l0,3.43c0,1,0,1.1.59,1.11h.22v.17h-2.3v-.17h.23c.55,0,.6-.09.59-1.1l0-3.44h-.69c-.75,0-.92.11-1.09,1Z"/><path class="cls-2" d="M142.17,18h1c.53,0,.8,0,1,0a3.23,3.23,0,0,1,1.69.48,2.41,2.41,0,0,1,.93,2.22,2.16,2.16,0,0,1-1.37,2.1,3,3,0,0,1-1.52.12l-2-.12v-.17h.19c.54,0,.61-.05.65-1.06l.14-2.35c.08-1,0-1.06-.56-1.08h-.13Zm1.22,3.44c-.06.89,0,1,0,1.13s.2.2.62.22a1.69,1.69,0,0,0,1.32-.31,2.38,2.38,0,0,0,.7-1.74,2.58,2.58,0,0,0-.63-2.09,1.86,1.86,0,0,0-1.27-.44l-.57,0Z"/><path class="cls-2" d="M148,21.44l-.14.29a2.63,2.63,0,0,0-.36.84.43.43,0,0,0,.41.49h0l0,.16-1.36-.13,0-.17h.06c.38-.05.51-.19.85-.88l.2-.4,1.66-3.24h.14l1.15,4c.22.8.26.86.63,1h0v.17l-1.81-.18,0-.16h0c.39,0,.52,0,.54-.2s0-.09-.11-.48l-.26-.93Zm1.1-2.14-1,2,1.63.16Z"/><path class="cls-2" d="M154.78,20.27c.23-.31.27-.38.29-.52s-.14-.43-.45-.47h0l0-.16,1.49.2,0,.17H156c-.39,0-.6.2-1.07.83L153.7,22l-.09.65c-.15,1-.12,1.09.43,1.16h.06l0,.17-2-.27,0-.16h.08c.54.07.6,0,.73-1l.08-.6-.87-2.13c-.33-.83-.37-.87-.71-.95h-.05l0-.16,1.85.25,0,.16h0c-.33,0-.49,0-.52.18s0,.13.12.42l.83,2.06Z"/><path class="cls-2" d="M182.72,27.07l-1.31,3.13-.1.26c-.17.37,0,.64.46.87l0,0-.07.15-1.58-.66.06-.16.07,0a.74.74,0,0,0,.68,0c.08-.07.11-.13.28-.54l1-2.39c.37-.91.35-1-.19-1.21h0l.06-.16,1.26.52,1.05,4.58,1.12-2.69c.22-.47.13-.69-.36-.95l-.08,0,.06-.16,1.54.65-.06.16-.05,0c-.52-.14-.74,0-.92.47L184.1,32.6l-.13-.05Z"/><path class="cls-2" d="M189.24,33.18l-.73,1.33-3.46-1.61.07-.15.09,0c.51.22.59.17,1-.74l1-2.17c.42-.87.41-1,0-1.19l-.05,0,.07-.15,3,1.39-.41,1.15-.15-.07c.2-.89.06-1.16-.78-1.52l-.57-.27-.87,1.86.45.21c.52.24.68.19.91-.32l0-.06.15.07-.71,1.52-.15-.07,0-.06c.25-.55.2-.7-.32-.92l-.45-.21-.49,1c-.47,1-.47,1.08.11,1.34l.32.15c.65.34,1.19.15,1.82-.64Z"/><path class="cls-2" d="M193,35.51c.21,1.14.26,1.24.61,1.44l.05,0-.08.15-2-1.05.08-.15h0c.37.2.55.2.65,0s.05-.2,0-.76l-.23-1.33-1.07.49c-.63.31-.63.31-.7.45s0,.39.28.55l0,0-.08.15-1.58-.82.08-.15,0,0c.52.19.9.13,1.83-.35l1.14-.52-.36-1.93c0-.17-.06-.28-.07-.34-.09-.57-.17-.73-.45-.9l0,0,.07-.14,1.74.9-.07.15-.06,0c-.25-.13-.37-.13-.44,0s-.06.18,0,.65l.25,1.36,1.15-.55c.49-.23.52-.25.58-.36s0-.32-.35-.49L194,32l.07-.14,1.54.79-.08.15,0,0h0c-.37-.2-.8-.12-1.67.3l-1.09.53Z"/><path class="cls-2" d="M195.58,34l.61-1,3.86,2.23-.56,1-.13-.07c.29-.83.23-1.08-.4-1.4l-.64-.37-1.71,3c-.51.87-.51,1-.05,1.25l.2.11-.09.15-2-1.15.08-.15.2.12c.48.27.57.22,1.06-.66l1.72-3-.59-.34c-.64-.41-.86-.36-1.45.33Z"/><path class="cls-2" d="M203.52,37.43l.81.49c.46.27.69.42.89.56a3.16,3.16,0,0,1,1.21,1.26,2.43,2.43,0,0,1-.33,2.39,2.19,2.19,0,0,1-2.26,1.11,3.25,3.25,0,0,1-1.37-.67l-1.69-1.15.1-.14.15.11c.45.3.55.26,1.1-.58l1.33-2c.57-.81.57-.9.08-1.22l-.11-.07ZM202.8,41c-.5.73-.54.81-.56,1s.08.27.43.51a1.73,1.73,0,0,0,1.29.4,2.41,2.41,0,0,0,1.49-1.14,2.56,2.56,0,0,0,.53-2.12,1.84,1.84,0,0,0-.87-1l-.47-.3Z"/><path class="cls-2" d="M206.73,43.35l-.28.18a2.49,2.49,0,0,0-.73.54.43.43,0,0,0,.09.63l.05,0-.1.13-1.1-.81.1-.14.05,0c.35.15.54.1,1.18-.32l.38-.24,3.09-1.93.11.08-1.07,4c-.22.8-.22.87.05,1.15l0,0-.1.14L207,45.8l.1-.13,0,0c.31.23.44.26.56.1s.05-.07.15-.47l.25-.93Zm2-1.28-1.89,1.19,1.31,1Z"/><path class="cls-2" d="M213.19,45.85c.36-.15.43-.19.52-.3s.1-.44-.15-.64l0,0,.1-.13,1.18.94-.11.13,0,0c-.36-.17-.62-.14-1.34.16l-1.94.78-.41.51c-.64.78-.66.88-.23,1.22l.05.05-.1.13-1.54-1.23.1-.13.06,0c.43.35.53.3,1.15-.49l.38-.47.34-2.28c.14-.88.13-.94-.12-1.18l0,0,.1-.13,1.46,1.16-.1.14,0,0c-.26-.2-.43-.24-.53-.1s-.07.1-.12.42l-.34,2.19Z"/><path class="cls-2" d="M231.41,63.33l-2.68,2.06-.23.18c-.33.24-.34.53,0,1l0,0-.13.1-1.05-1.36.14-.11,0,.06a.77.77,0,0,0,.61.3c.1,0,.17,0,.51-.32l2.06-1.58c.78-.6.81-.69.44-1.14l0,0,.14-.1.82,1.08L230.68,68,233,66.19c.43-.3.46-.53.16-1l-.06-.07.14-.1,1,1.33-.13.1,0,0c-.37-.39-.62-.39-1,0l-3.2,2.45-.09-.11Z"/><path class="cls-2" d="M234,71.9l-1.3.78-2.18-3.12.14-.1,0,.08c.32.45.43.44,1.24-.14l2-1.37c.8-.54.85-.64.56-1l0,0,.13-.1,1.89,2.7-.94.79-.09-.13c.62-.67.64-1,.09-1.71l-.36-.52-1.68,1.17.28.4c.33.48.49.51.94.19l.05,0,.09.13-1.37,1-.09-.13,0,0c.49-.36.52-.5.19-1l-.29-.41-.94.66c-.92.64-.94.7-.57,1.22l.19.28c.4.63,1,.73,1.9.37Z"/><path class="cls-2" d="M236.12,75.81c-.39,1.09-.4,1.21-.2,1.56l0,0-.14.09-1.22-1.94.14-.09,0,0c.22.35.38.45.55.34s.15-.15.35-.68l.46-1.27-1.17-.12c-.7-.05-.7-.05-.83,0s-.21.33,0,.62v0l-.14.09-.95-1.5.14-.1,0,.05c.35.43.71.56,1.76.62l1.24.12.66-1.85a3,3,0,0,1,.12-.33c.21-.54.21-.73.06-1l0,0,.13-.09,1,1.66-.13.09,0,0c-.15-.24-.25-.3-.39-.21s-.14.13-.3.58l-.47,1.3,1.27.11c.54,0,.58,0,.68,0s.15-.29-.05-.61l0,0,.13-.09.93,1.46-.14.09,0,0v0c-.22-.35-.64-.5-1.59-.58L236.78,74Z"/><path class="cls-2" d="M239.1,75.8l1-.55,2.21,3.88-1,.6-.08-.13c.67-.57.74-.81.37-1.4l-.37-.64-3,1.7c-.88.49-.93.58-.67,1.06l.11.19-.14.08-1.14-2,.15-.08.12.2c.27.47.38.48,1.25,0l3-1.7-.34-.59c-.34-.68-.55-.74-1.41-.45Z"/><path class="cls-2" d="M244.21,82.77c.13.26.23.45.45.84s.37.7.48.93a3.24,3.24,0,0,1,.39,1.7A2.39,2.39,0,0,1,244,88.12a2.18,2.18,0,0,1-2.51-.18,3.16,3.16,0,0,1-.84-1.28l-.87-1.85.16-.07.08.17c.23.49.34.5,1.24.06l2.12-1c.91-.41,1-.48.69-1l-.06-.12Zm-2.44,2.71c-.8.38-.88.43-1,.57s-.07.27.11.65a1.69,1.69,0,0,0,.91,1,2.41,2.41,0,0,0,1.86-.22,2.56,2.56,0,0,0,1.53-1.55A1.83,1.83,0,0,0,245,84.6c-.08-.18-.16-.32-.25-.5Z"/><path class="cls-2" d="M244,89.51h-.33a2.43,2.43,0,0,0-.9.09.44.44,0,0,0-.24.59l0,0-.15.06-.53-1.26L242,89l0,.05c.23.31.42.36,1.18.32h.45l3.65-.09.05.12-3,2.92c-.6.58-.63.64-.55,1l0,0-.16.06-.7-1.66.15-.07,0,0c.15.36.26.45.44.37s.08,0,.37-.32l.69-.68Zm2.41-.06-2.23,0,.63,1.51Z"/><path class="cls-2" d="M248.23,95c.38.06.46.06.6,0s.31-.33.2-.62l0,0,.16-.06.53,1.41-.16.06,0,0c-.22-.33-.46-.44-1.24-.55l-2.06-.32-.61.22c-.94.34-1,.42-.82.93l0,.07-.15.06L244,94.26l.15-.06,0,.07c.19.51.3.53,1.23.17l.57-.21,1.46-1.79c.57-.68.59-.73.5-1.07l0-.05.16-.06L248.7,93l-.16.06v0c-.11-.31-.24-.43-.4-.36s-.11,0-.32.3l-1.41,1.7Z"/><path class="cls-2" d="M254.83,119.36l-3.36.37-.29,0c-.41,0-.57.28-.53.82v0l-.16,0L250.3,119l.17,0V119a.76.76,0,0,0,.37.57c.1,0,.17,0,.61,0l2.57-.29c1-.11,1-.17,1-.75v0l.17,0,.14,1.35L251.81,123l2.9-.32c.52,0,.67-.22.65-.77v-.09l.17,0,.18,1.66-.17,0v-.05c-.13-.53-.34-.66-.85-.58l-4,.45,0-.15Z"/><path class="cls-2" d="M252.63,128h-1.51l-.26-3.8H251v.09c0,.56.13.61,1.13.53l2.38-.16c1,0,1-.1,1-.61v0h.17l.22,3.28-1.21.19v-.16c.88-.25,1.05-.51,1-1.41l0-.64-2,.14,0,.48c0,.58.16.69.72.65h.06v.16l-1.67.1v-.15h.06c.61-.05.71-.16.66-.72l0-.5-1.14.07c-1.12.08-1.17.11-1.12.75l0,.34c0,.74.44,1.11,1.43,1.29Z"/><path class="cls-2" d="M252.4,132.45c-.9.73-1,.82-1,1.23v0h-.17l0-2.29h.17v0c0,.41.09.58.3.57s.2,0,.64-.4l1.06-.84-.94-.71c-.57-.4-.57-.4-.73-.4s-.35.18-.35.52v0h-.17l0-1.78h.17v.05c.08.55.32.85,1.19,1.44l1,.75,1.52-1.25.27-.22c.46-.35.56-.5.58-.82v0H256l0,2h-.17v-.07c0-.28-.06-.38-.23-.38s-.18,0-.56.35l-1.07.87,1,.74c.44.32.48.34.59.34s.28-.17.27-.55v0h.16l0,1.73H256v-.07c0-.41-.28-.76-1.06-1.31l-1-.71Z"/><path class="cls-2" d="M255,134l1.18,0L256,138.5h-1.18v-.15c.87-.14,1.06-.31,1-1l0-.74-3.43-.09c-1,0-1.1,0-1.12.56v.22h-.17l.06-2.29h.17v.23c0,.55.08.61,1.09.62l3.44.09,0-.69c0-.75-.1-.92-1-1.11Z"/><path class="cls-2" d="M255.71,142.62c0,.3,0,.51-.05.95s0,.8-.07,1.05a3.15,3.15,0,0,1-.55,1.66,2.4,2.4,0,0,1-2.25.83,2.2,2.2,0,0,1-2-1.46,3.14,3.14,0,0,1-.05-1.53l.21-2h.17l0,.19c-.06.54,0,.61,1,.7l2.34.25c1,.11,1.06.07,1.11-.51v-.13Zm-3.49,1.06c-.89-.09-1-.1-1.13,0s-.2.19-.25.61a1.69,1.69,0,0,0,.26,1.33,2.42,2.42,0,0,0,1.71.78,2.58,2.58,0,0,0,2.11-.54,1.85,1.85,0,0,0,.5-1.24c0-.2,0-.36,0-.57Z"/><path class="cls-2" d="M252,148.26l-.29-.16a2.54,2.54,0,0,0-.82-.4.43.43,0,0,0-.51.38v.06l-.16,0,.2-1.35.16,0v.07c0,.37.17.52.85.88l.39.23,3.16,1.81,0,.13-4.07,1c-.81.19-.87.22-1,.58v0l-.17,0,.27-1.79.16,0v.06c-.06.38,0,.51.18.54s.08,0,.48-.09l.94-.21Zm2.09,1.2-1.94-1.11-.23,1.61Z"/><path class="cls-2" d="M252.83,155.12c.3.25.36.3.51.32s.43-.12.49-.42v0l.17,0-.28,1.48-.17,0v0c0-.4-.17-.62-.78-1.11L251.19,154l-.64-.12c-1-.2-1.08-.17-1.19.37v.07l-.16,0,.36-1.94.17,0,0,.08c-.1.53,0,.6,1,.77l.6.12,2.17-.77c.84-.28.88-.32,1-.66v0l.16,0-.34,1.84-.17,0v0c.06-.32,0-.49-.16-.52s-.12,0-.42.1l-2.09.72Z"/><path class="cls-2" d="M245.87,179.4,242.8,178l-.26-.11c-.37-.18-.63-.05-.88.43l0,0-.15-.07.71-1.57.16.07,0,.07a.75.75,0,0,0,0,.68c.07.08.13.12.53.3l2.35,1.08c.9.41,1,.4,1.22-.14l0,0,.15.07L246,180l-4.61.88,2.65,1.22c.46.24.69.16,1-.33l0-.08.15.07-.7,1.52-.15-.07,0-.05c.16-.51,0-.74-.43-.93l-3.67-1.68.06-.14Z"/><path class="cls-2" d="M239.52,185.7l-1.3-.77,1.75-3.4.15.08-.05.09c-.24.49-.19.58.71,1l2.12,1.09c.85.45,1,.45,1.19,0l0,0,.15.08-1.5,2.92-1.14-.46.07-.14c.88.24,1.16.11,1.56-.72l.29-.56-1.83-.93-.22.43c-.26.52-.22.67.28.92l0,0-.07.14-1.49-.76.07-.15.06,0c.55.27.69.23.94-.28l.23-.44-1-.53c-1-.51-1.07-.51-1.35.06l-.16.31c-.36.64-.19,1.18.57,1.84Z"/><path class="cls-2" d="M237.05,189.41c-1.14.17-1.25.21-1.47.56l0,0-.15-.08,1.13-2,.15.09,0,0c-.21.36-.22.55,0,.65s.2.06.76,0l1.34-.18-.45-1.09c-.29-.64-.29-.64-.42-.72s-.39,0-.57.26v0l-.15-.09.89-1.55.14.09,0,0c-.22.51-.17.89.28,1.84l.47,1.15,2-.28.34-.05c.58-.07.74-.15.92-.42l0,0,.14.08-1,1.7-.15-.08,0,0c.14-.25.14-.37,0-.45s-.18-.06-.65,0l-1.37.2.5,1.17c.22.49.24.53.34.59s.32,0,.51-.33l0-.05.14.08-.86,1.5-.14-.08,0,0,0,0c.2-.36.14-.8-.24-1.68l-.49-1.11Z"/><path class="cls-2" d="M238.46,192l1,.65-2.38,3.77-1-.6.08-.13c.82.32,1.07.27,1.41-.34l.39-.62L235,192.92c-.85-.54-1-.55-1.25-.09l-.12.19-.14-.09,1.22-1.94.15.09-.13.2c-.28.46-.24.56.62,1.08l2.92,1.83.36-.58c.43-.61.39-.84-.27-1.46Z"/><path class="cls-2" d="M234.73,199.82c-.16.25-.28.42-.52.8s-.44.66-.59.86a3.18,3.18,0,0,1-1.31,1.16,2.4,2.4,0,0,1-2.37-.43,2.18,2.18,0,0,1-1-2.29,3.06,3.06,0,0,1,.72-1.35l1.21-1.64.14.1-.11.15c-.33.44-.28.54.53,1.13l1.9,1.39c.79.61.88.61,1.22.13l.08-.11Zm-3.55-.85c-.72-.53-.79-.58-1-.6s-.27.06-.52.4a1.67,1.67,0,0,0-.45,1.28,2.37,2.37,0,0,0,1.08,1.53,2.53,2.53,0,0,0,2.09.61,1.87,1.87,0,0,0,1.07-.82l.32-.47Z"/><path class="cls-2" d="M228.67,202.81l-.16-.29c-.31-.54-.38-.65-.51-.75a.43.43,0,0,0-.63.07l0,0-.13-.1.86-1.07.13.11,0,.05c-.16.34-.12.53.28,1.19l.22.39,1.81,3.16-.08.1-4-1.22c-.8-.25-.86-.25-1.16,0l0,0-.13-.1,1.13-1.41.13.1,0,0c-.25.3-.28.43-.13.55s.07.06.47.17l.92.29Zm1.21,2.08L228.77,203l-1,1.27Z"/><path class="cls-2" d="M225.94,209.14c.14.36.17.44.28.53s.44.11.64-.12l0,0,.13.11-1,1.14-.13-.11,0,0c.19-.35.17-.61-.11-1.35l-.7-2-.5-.43c-.75-.66-.85-.69-1.21-.27l0,0-.13-.11,1.29-1.49.13.11-.05.06c-.36.41-.32.51.44,1.16l.46.39,2.27.43c.87.18.93.17,1.18-.08l0,0,.13.11-1.22,1.41-.13-.11,0,0c.22-.25.26-.41.13-.53s-.1-.07-.42-.13l-2.17-.42Z"/><path class="cls-2" d="M206.44,227.8,204.5,225l-.17-.23c-.23-.34-.52-.36-1-.07l0,0-.1-.14,1.41-1,.1.14-.07,0a.79.79,0,0,0-.32.6c0,.1,0,.17.3.53l1.49,2.11c.57.81.66.84,1.13.49l0,0,.1.14-1.12.78-4.42-1.55,1.68,2.39c.28.43.51.47,1,.19l.07-.05.1.14-1.37,1-.1-.14,0,0c.4-.36.41-.61.09-1L201,226l.12-.08Z"/><path class="cls-2" d="M197.79,230.05l-.73-1.32,3.21-2.07.09.14-.08.06c-.46.3-.46.41.09,1.24l1.29,2c.51.81.6.87,1,.59l0,0,.1.14-2.77,1.78-.76-1,.14-.09c.64.65.95.68,1.7.16l.54-.34-1.11-1.73-.42.27c-.48.31-.52.47-.21.94l0,0-.14.09-.9-1.41.13-.09,0,.06c.34.5.48.53,1,.22l.42-.27-.62-1c-.6-.94-.66-1-1.2-.62l-.29.19c-.64.37-.76.92-.43,1.88Z"/><path class="cls-2" d="M193.81,232c-1.07-.43-1.19-.45-1.55-.25l0,0-.08-.14,2-1.15.09.14,0,0c-.36.21-.46.36-.36.54s.14.16.67.37l1.25.51.16-1.17c.07-.69.07-.69,0-.83s-.32-.22-.62,0h0l-.09-.15,1.54-.9.09.15,0,0c-.44.34-.58.69-.68,1.74l-.16,1.23,1.82.73.33.12c.53.23.71.25,1,.1l0,0,.09.14-1.7,1-.08-.14,0,0c.25-.14.31-.24.22-.39s-.12-.14-.57-.32l-1.28-.51-.15,1.27c-.06.53-.06.57,0,.67s.28.16.6,0l.05,0,.08.14-1.49.87-.08-.13,0,0h0c.36-.21.53-.62.63-1.57l.14-1.21Z"/><path class="cls-2" d="M193.7,235l.52,1-3.94,2.09-.57-1,.13-.07c.54.69.79.77,1.39.41l.65-.35-1.6-3c-.47-.9-.55-.95-1-.7l-.19.1-.08-.15,2-1.07.07.15-.2.11c-.48.26-.49.36,0,1.25l1.61,3,.6-.32c.68-.32.76-.53.49-1.4Z"/><path class="cls-2" d="M186.61,239.87l-.85.43c-.47.24-.72.36-.95.46a3.19,3.19,0,0,1-1.71.35,2.41,2.41,0,0,1-1.84-1.54,2.18,2.18,0,0,1,.25-2.5,3.18,3.18,0,0,1,1.3-.81l1.87-.83.06.16-.17.07c-.5.22-.51.33-.09,1.24l.94,2.16c.39.91.47,1,1,.71l.12-.05Zm-2.65-2.5c-.36-.82-.41-.9-.54-1s-.27-.08-.66.09a1.68,1.68,0,0,0-1,.89,2.37,2.37,0,0,0,.17,1.86,2.54,2.54,0,0,0,1.51,1.57,1.83,1.83,0,0,0,1.33-.19l.52-.24Z"/><path class="cls-2" d="M179.86,239.46v-.33a2.43,2.43,0,0,0-.07-.9.42.42,0,0,0-.58-.25l-.05,0-.07-.16,1.28-.5.06.15-.06,0c-.31.22-.36.41-.34,1.18v4.09l-.12.05-2.86-3.05c-.57-.61-.62-.64-1-.57l0,0-.06-.16,1.68-.66.06.15-.05,0c-.36.15-.45.25-.38.43s0,.08.32.38l.66.7Zm0,2.41v-2.23l-1.52.6Z"/><path class="cls-2" d="M174.33,243.62c-.06.39-.07.47,0,.61s.33.31.62.21l0,0,.06.16-1.42.51-.06-.16.05,0c.33-.22.44-.46.57-1.23l.36-2.06-.22-.62c-.32-.95-.4-1-.91-.84l-.07,0,0-.16,1.85-.66.06.16-.07,0c-.52.19-.53.29-.19,1.23l.2.58,1.76,1.49c.67.58.72.61,1.06.51h0l.06.16-1.76.62-.05-.16h0c.31-.11.43-.23.37-.39s0-.12-.3-.33l-1.67-1.44Z"/><path class="cls-2" d="M150,250.07l-.41-3.36,0-.28c0-.41-.28-.57-.82-.53h0l0-.16,1.71-.2,0,.16h-.08a.76.76,0,0,0-.57.37,1.51,1.51,0,0,0,0,.61l.31,2.57c.12,1,.18,1.05.76,1h0l0,.17-1.35.16-3.17-3.48.35,2.9c0,.52.22.67.78.64h.09l0,.17-1.67.2,0-.17H146c.52-.13.65-.34.57-.85l-.48-4,.14,0Z"/><path class="cls-2" d="M141.29,248l0-1.52,3.8-.3,0,.17H145c-.55.05-.6.14-.51,1.14l.19,2.38c.06,1,.12,1,.62,1h.06V251l-3.28.26-.21-1.21H142c.26.87.52,1,1.43.94l.63-.05-.16-2-.49,0c-.58.05-.69.16-.63.72v.06h-.16l-.13-1.66.16,0v.07c.07.6.18.7.73.65l.51,0-.09-1.15c-.09-1.11-.13-1.17-.76-1.11l-.35,0c-.74,0-1.1.45-1.27,1.45Z"/><path class="cls-2" d="M136.85,247.79c-.74-.88-.83-.95-1.24-.95h-.06v-.17l2.29-.08v.17h0c-.41,0-.58.1-.57.3s.05.21.41.64l.86,1,.7-1c.39-.58.39-.58.38-.73s-.17-.35-.51-.35h0v-.16l1.79-.07v.17h0c-.55.09-.84.33-1.42,1.21l-.73,1,1.26,1.51.23.26c.36.45.52.55.84.56h0v.16l-2,.07v-.16h.06c.29,0,.39-.07.38-.24s0-.18-.35-.55l-.89-1.06-.73,1c-.31.45-.33.48-.32.6s.17.27.55.26h.05v.16l-1.73.06v-.16h.07c.42,0,.76-.3,1.31-1.09l.69-1Z"/><path class="cls-2" d="M135.36,250.37l0,1.18-4.46,0,0-1.18H131c.15.86.33,1,1,1h.74l0-3.44c0-1,0-1.09-.58-1.1H132v-.16h2.29v.17H134c-.54,0-.6.09-.59,1.1l0,3.44h.68c.76,0,.92-.11,1.1-1Z"/><path class="cls-2" d="M126.8,251.32l-1,0c-.53,0-.8,0-1,0a3.18,3.18,0,0,1-1.68-.51,2.39,2.39,0,0,1-.89-2.23,2.17,2.17,0,0,1,1.4-2.08,3.09,3.09,0,0,1,1.53-.1l2,.16v.17l-.19,0c-.54,0-.61,0-.67,1l-.18,2.35c-.09,1,0,1.06.54,1.09h.13Zm-1.16-3.46c.07-.89.07-1,0-1.13s-.2-.2-.62-.23a1.69,1.69,0,0,0-1.32.29,2.39,2.39,0,0,0-.73,1.73,2.57,2.57,0,0,0,.59,2.1,1.87,1.87,0,0,0,1.26.46l.57,0Z"/><path class="cls-2" d="M121.08,247.78l.15-.29a2.36,2.36,0,0,0,.37-.84.43.43,0,0,0-.4-.49h0l0-.17,1.36.16,0,.17h-.07c-.37.05-.51.18-.86.87l-.21.4-1.72,3.21h-.13l-1.08-4c-.21-.8-.25-.86-.62-1h0l0-.17,1.8.21,0,.17h0c-.39,0-.52,0-.54.2s0,.09.1.48l.25.94Zm-1.14,2.13,1-2-1.62-.19Z"/><path class="cls-2" d="M114.23,248.83c-.24.31-.28.37-.3.52s.13.43.44.47h0l0,.16-1.49-.22,0-.17h0c.4,0,.61-.19,1.09-.81l1.29-1.64.1-.65c.16-1,.13-1.08-.41-1.17H115l0-.16,2,.29,0,.17h-.08c-.54-.08-.6,0-.74,1l-.09.6.84,2.15c.31.83.35.87.69,1h0l0,.17-1.84-.28,0-.17h0c.33.05.49,0,.51-.18s0-.12-.11-.42l-.79-2.07Z"/><path class="cls-2" d="M89.71,242.9,91,239.76l.1-.26c.17-.38,0-.64-.47-.86l0,0,.07-.16,1.59.65-.06.15-.07,0a.83.83,0,0,0-.68.05c-.08.07-.11.14-.28.55l-1,2.4c-.36.91-.35,1,.21,1.2l0,0-.06.16-1.26-.51L88,238.54l-1.09,2.7c-.21.48-.12.7.38.94l.08,0-.06.15-1.55-.62.06-.16,0,0c.52.14.74,0,.91-.48l1.5-3.74.14.06Z"/><path class="cls-2" d="M83.1,236.88l.72-1.34,3.47,1.57-.07.15-.08,0c-.51-.22-.6-.16-1,.76l-1,2.17c-.41.87-.41,1,0,1.18l.05,0-.06.15-3-1.35.4-1.16.14.07c-.19.89,0,1.16.8,1.51l.58.26L85,239l-.45-.2c-.52-.23-.68-.18-.9.33l0,.06-.14-.07.69-1.52.14.06,0,.06c-.24.56-.19.7.32.92l.47.21.47-1c.46-1,.45-1.09-.13-1.34l-.32-.14c-.66-.33-1.19-.14-1.81.66Z"/><path class="cls-2" d="M79.3,234.6c-.22-1.14-.27-1.24-.62-1.44l-.05,0,.07-.16,2,1-.07.15h0c-.37-.19-.55-.19-.65,0s0,.2.06.76l.25,1.32,1.06-.5c.63-.31.63-.31.69-.45s0-.4-.28-.55l0,0,.08-.15,1.59.81-.07.15,0,0c-.52-.19-.9-.11-1.82.38l-1.13.52.38,1.93a2.84,2.84,0,0,1,.07.34c.1.57.19.73.46.9l0,0-.07.14-1.75-.88.07-.15,0,0c.26.13.38.12.45,0s0-.18,0-.65l-.27-1.35-1.14.56c-.49.24-.52.26-.57.36s0,.33.35.5l0,0-.07.14-1.54-.77.07-.15,0,0h0c.37.19.81.11,1.67-.32l1.08-.54Z"/><path class="cls-2" d="M76.74,236.13l-.6,1L72.24,235l.55-1,.14.07c-.29.83-.22,1.08.41,1.39l.64.36,1.68-3c.5-.87.5-1,0-1.25l-.2-.1.08-.15,2,1.12-.09.14-.2-.11c-.48-.26-.57-.21-1.05.68l-1.68,3,.6.33c.64.4.86.34,1.44-.35Z"/><path class="cls-2" d="M68.79,232.81c-.26-.14-.44-.25-.82-.48s-.69-.41-.9-.54a3.11,3.11,0,0,1-1.22-1.25,2.39,2.39,0,0,1,.3-2.39A2.17,2.17,0,0,1,68.38,227a3.06,3.06,0,0,1,1.38.66l1.71,1.12-.1.14-.15-.1c-.46-.3-.56-.25-1.1.59l-1.29,2c-.56.82-.56.91-.06,1.22l.11.07Zm.66-3.58c.49-.74.54-.82.55-1s-.08-.27-.43-.5a1.65,1.65,0,0,0-1.3-.38,2.34,2.34,0,0,0-1.47,1.15,2.5,2.5,0,0,0-.5,2.12,1.82,1.82,0,0,0,.88,1l.48.3Z"/><path class="cls-2" d="M65.47,226.93l.28-.19c.53-.33.63-.41.73-.55a.42.42,0,0,0-.11-.62l0,0,.1-.14,1.11.8-.1.14-.06,0c-.34-.15-.54-.09-1.17.34l-.38.24-3.07,2-.1-.08,1-4c.21-.81.2-.88-.06-1.16l0,0,.09-.14,1.47,1.06-.09.14,0,0c-.31-.22-.45-.25-.56-.09s0,.08-.15.48l-.24.93Zm-2,1.31L65.33,227l-1.33-1Z"/><path class="cls-2" d="M59,224.51c-.36.15-.43.19-.52.3s-.09.44.15.63l0,0-.1.13-1.19-.93.1-.13,0,0c.36.16.63.13,1.34-.18l1.94-.81.4-.51c.62-.78.64-.89.21-1.22l0,0,.1-.13L63,222.88l-.11.13-.06,0c-.43-.34-.53-.29-1.14.5l-.37.48L61,226.23c-.14.88-.13.94.13,1.18l0,0-.1.13-1.47-1.15.1-.13,0,0c.26.21.43.23.53.1s.07-.1.11-.42l.32-2.19Z"/><path class="cls-2" d="M40.53,207.28l2.66-2.1.22-.19c.33-.24.34-.53,0-1l0-.05.13-.1,1.07,1.35-.13.11,0-.06a.75.75,0,0,0-.61-.29c-.11,0-.17.06-.52.33l-2,1.6c-.77.62-.8.7-.42,1.16l0,0-.13.1-.84-1.07,1.3-4.51-2.29,1.81c-.42.3-.45.54-.14,1l.06.07-.14.11-1-1.32.13-.1,0,0a.63.63,0,0,0,1,0l3.17-2.5.09.11Z"/><path class="cls-2" d="M37.82,198.77l1.29-.81,2.23,3.1-.14.1-.05-.08c-.33-.44-.44-.44-1.24.16L38,202.64c-.79.54-.84.64-.54,1.05l0,0-.13.1-1.93-2.67.93-.8.09.13c-.61.68-.62,1-.06,1.71l.37.51,1.66-1.19-.29-.4c-.34-.47-.5-.51-1-.17l0,0-.09-.12,1.36-1,.09.13-.05,0c-.49.37-.51.52-.17,1l.29.41.93-.67c.91-.65.94-.71.56-1.22l-.2-.29c-.41-.61-1-.71-1.9-.33Z"/><path class="cls-2" d="M35.67,194.89c.38-1.1.39-1.21.18-1.56l0-.05.14-.09,1.25,1.91-.14.1,0,0c-.22-.34-.38-.44-.55-.33s-.15.15-.33.68l-.46,1.28,1.18.1c.7,0,.7,0,.83,0s.2-.33,0-.62l0,0,.14-.1,1,1.5-.14.09,0,0c-.36-.43-.72-.56-1.77-.6l-1.24-.1L35,198.81a1.51,1.51,0,0,1-.11.32c-.2.55-.2.73,0,1l0,0-.14.08-1.07-1.64.13-.09,0,.06c.15.23.26.29.4.2s.13-.13.29-.59l.45-1.31-1.27-.08c-.54,0-.59,0-.68,0s-.15.29.06.6l0,.05-.14.09-.94-1.45.13-.09,0,0v0c.23.35.65.49,1.6.55l1.22.08Z"/><path class="cls-2" d="M32.68,194.92l-1,.57-2.26-3.85,1-.62.08.13c-.66.58-.73.82-.34,1.41l.37.63,3-1.74c.88-.5.93-.59.66-1.06l-.11-.2.14-.08,1.16,2-.14.08-.12-.2c-.28-.47-.39-.47-1.25.05l-3,1.75.34.59c.35.66.57.73,1.43.43Z"/><path class="cls-2" d="M27.47,188l-.46-.83c-.26-.45-.38-.7-.49-.92a3.2,3.2,0,0,1-.42-1.7,2.4,2.4,0,0,1,1.47-1.9,2.19,2.19,0,0,1,2.51.15,3,3,0,0,1,.86,1.26l.89,1.83-.15.07-.08-.16c-.24-.49-.35-.5-1.24,0l-2.12,1c-.9.42-.94.5-.67,1l.05.12Zm2.4-2.75c.81-.39.88-.44,1-.58s.07-.27-.12-.65a1.65,1.65,0,0,0-.92-1,2.38,2.38,0,0,0-1.86.24,2.59,2.59,0,0,0-1.51,1.58,1.81,1.81,0,0,0,.24,1.32c.09.18.17.32.26.51Z"/><path class="cls-2" d="M27.63,181.28l.33,0a2.39,2.39,0,0,0,.91-.1.44.44,0,0,0,.23-.59l0,0,.16-.07.55,1.26-.16.06,0-.05c-.23-.3-.42-.35-1.19-.3H28l-3.65.14,0-.12,2.94-3c.59-.59.62-.65.54-1l0,0,.15-.06L28.6,179l-.16.06,0,0c-.15-.35-.26-.44-.44-.36s-.08,0-.36.33l-.69.68Zm-2.41.09,2.23-.08-.65-1.5Z"/><path class="cls-2" d="M23.29,175.88c-.39,0-.47-.06-.6,0s-.3.34-.19.63v0l-.15.06-.55-1.4.15-.07,0,0c.22.33.47.43,1.24.53l2.07.3.61-.24c.93-.35,1-.43.81-.94l0-.06.16-.06.72,1.83-.16.07,0-.08c-.2-.51-.3-.52-1.23-.15l-.57.22-1.43,1.81c-.57.68-.59.73-.49,1.07l0,.05-.15.06-.68-1.74.15-.06v0c.13.31.26.42.41.36s.11-.06.31-.31l1.39-1.72Z"/><path class="cls-2" d="M16.36,151.57l3.36-.42.28,0c.41,0,.57-.29.53-.83v-.05l.17,0,.21,1.71-.17,0v-.07a.76.76,0,0,0-.37-.57,1.51,1.51,0,0,0-.61,0l-2.57.32c-1,.13-1,.19-1,.77v0l-.17,0-.17-1.35,3.46-3.18-2.9.36c-.52,0-.66.23-.64.78v.09l-.16,0-.21-1.66.17,0v.06c.14.52.35.65.86.56l4-.5v.14Z"/><path class="cls-2" d="M18.44,142.88l1.51,0,.31,3.8h-.17v-.09c0-.55-.14-.6-1.14-.5l-2.38.19c-.95.06-1,.12-1,.62v.05l-.17,0-.26-3.28,1.21-.21v.16c-.87.26-1,.52-.94,1.43l.05.63,2-.16,0-.49c-.05-.58-.17-.69-.73-.64h-.05l0-.16,1.67-.14v.16h-.06c-.61.06-.71.17-.65.73l0,.5,1.15-.09c1.11-.09,1.17-.13,1.11-.76l0-.35c0-.74-.45-1.1-1.45-1.27Z"/><path class="cls-2" d="M18.61,138.44c.89-.74,1-.83,1-1.24v0h.17l.07,2.29h-.17v0c0-.41-.1-.58-.3-.57s-.2.05-.64.41l-1,.86.95.69c.57.4.57.4.73.39s.35-.18.35-.52v0h.16l.06,1.78h-.16v0c-.08-.55-.33-.85-1.2-1.43l-1-.73L16,141.46l-.26.23c-.46.36-.56.51-.57.83v0H15l-.06-2h.16v.06c0,.29.07.39.24.38s.18,0,.55-.35l1.06-.88-1-.74c-.44-.31-.48-.33-.6-.32s-.27.17-.26.55v0h-.16l-.06-1.73H15v.06c0,.42.29.76,1.08,1.31l1,.69Z"/><path class="cls-2" d="M16,136.93l-1.17,0,.05-4.47H16.1v.15c-.87.15-1.05.33-1,1v.74l3.43.05c1,0,1.1,0,1.11-.58v-.22h.16l0,2.3h-.16v-.24c0-.54-.09-.6-1.1-.6l-3.43,0v.68c-.05.76.1.93,1,1.11Z"/><path class="cls-2" d="M15.16,128.32c0-.29,0-.5,0-.94s0-.81.06-1a3.2,3.2,0,0,1,.52-1.67,2.43,2.43,0,0,1,2.25-.87,2.19,2.19,0,0,1,2.06,1.43,3.2,3.2,0,0,1,.07,1.53l-.18,2-.17,0,0-.18c.05-.55,0-.61-1-.69l-2.34-.21c-1-.1-1.07-.06-1.11.53v.13Zm3.48-1.1c.89.07,1,.08,1.13,0s.2-.2.24-.62a1.63,1.63,0,0,0-.28-1.32,2.41,2.41,0,0,0-1.71-.76,2.56,2.56,0,0,0-2.11.57,1.85,1.85,0,0,0-.48,1.26c0,.19,0,.35,0,.56Z"/><path class="cls-2" d="M18.79,122.65l.29.15a2.64,2.64,0,0,0,.82.39.43.43,0,0,0,.5-.39v0l.17,0-.18,1.35-.17,0V124c0-.38-.17-.52-.86-.88l-.39-.22-3.18-1.77,0-.13,4.05-1c.8-.2.86-.23,1-.6v0l.17,0-.24,1.79-.17,0v-.06c.05-.38,0-.51-.19-.54s-.09,0-.48.1l-.94.22Zm-2.11-1.17,1.95,1.08.21-1.61Z"/><path class="cls-2" d="M17.87,115.79c-.31-.24-.37-.29-.52-.31s-.43.13-.48.43v0l-.16,0,.26-1.49.16,0v.05c0,.4.18.61.79,1.1l1.62,1.32.64.11c1,.19,1.08.16,1.18-.38v-.07l.17,0-.34,1.94-.17,0,0-.08c.09-.53,0-.6-1-.76l-.6-.1-2.17.79c-.84.3-.88.33-1,.68v0l-.16,0,.32-1.83.16,0v0c-.06.33,0,.49.16.52s.12,0,.43-.1L19.3,117Z"/><path class="cls-2" d="M24.5,91.41l3.1,1.37.26.11c.37.18.63,0,.87-.43l0,0,.16.07-.7,1.57L28.06,94l0-.07a.77.77,0,0,0,0-.68c-.07-.08-.13-.12-.53-.3l-2.37-1c-.9-.4-1-.38-1.21.16l0,0L23.78,92l.55-1.25,4.59-.94-2.66-1.18c-.47-.23-.69-.15-1,.34l0,.08L25.12,89l.67-1.52.16.06,0,0c-.16.52,0,.74.44.93l3.69,1.63-.06.14Z"/><path class="cls-2" d="M30.77,85l1.31.76L30.39,89.2l-.16-.08.05-.08c.24-.5.18-.59-.72-1L27.42,87c-.86-.44-1-.44-1.19,0l0,0-.15-.08,1.46-3,1.15.45-.08.14c-.88-.22-1.16-.09-1.54.74l-.28.57,1.83.91.22-.44c.26-.52.21-.67-.29-.92l-.06,0,.07-.15L30,86l-.07.14,0,0c-.55-.26-.7-.21-.94.3l-.22.45,1,.51c1,.5,1.07.49,1.35-.08l.15-.31c.35-.65.18-1.18-.59-1.84Z"/><path class="cls-2" d="M33.18,81.3c1.15-.18,1.25-.22,1.46-.57l0,0,.15.08-1.11,2-.14-.08,0,0c.2-.37.21-.55,0-.65s-.2-.06-.76,0l-1.34.21L32,83.31c.3.63.3.63.43.71s.4,0,.57-.27v0l.15.08-.86,1.56-.15-.08,0,0c.21-.52.15-.89-.3-1.84l-.49-1.15-1.94.31-.34.06c-.58.08-.74.16-.91.43l0,0L28,83,29,81.3l.14.08,0,.05c-.13.25-.13.37,0,.45s.18.06.66,0l1.36-.22-.52-1.16c-.22-.49-.24-.53-.34-.59s-.33,0-.51.34l0,0-.14-.08.83-1.51.14.08,0,0v0c-.2.36-.14.8.26,1.67l.5,1.11Z"/><path class="cls-2" d="M31.75,78.71l-1-.64,2.32-3.8,1,.59L34,75c-.82-.32-1.07-.26-1.4.35l-.39.63,2.94,1.8c.85.53.95.53,1.25.07l.11-.19.14.09-1.19,2-.14-.08.12-.2c.28-.47.23-.57-.64-1.08l-2.93-1.79-.36.58c-.42.62-.38.85.3,1.46Z"/><path class="cls-2" d="M35.37,70.87c.16-.24.28-.42.51-.8s.44-.67.59-.87A3.13,3.13,0,0,1,37.76,68a2.38,2.38,0,0,1,2.37.39,2.18,2.18,0,0,1,1.06,2.28,3.18,3.18,0,0,1-.71,1.35l-1.19,1.66-.13-.1.11-.15c.31-.45.27-.55-.55-1.12L36.8,71c-.8-.59-.88-.59-1.21-.11l-.08.11Zm3.56.81c.72.52.8.56,1,.58s.27-.07.52-.41a1.69,1.69,0,0,0,.43-1.28,2.35,2.35,0,0,0-1.1-1.51,2.53,2.53,0,0,0-2.1-.59,1.88,1.88,0,0,0-1,.84c-.12.16-.2.3-.32.47Z"/><path class="cls-2" d="M41.38,67.8l.17.28c.31.54.39.65.52.75a.43.43,0,0,0,.63-.08l0,0,.13.1L42,69.89l-.13-.1,0-.06c.15-.34.11-.53-.3-1.18l-.23-.39L39.55,65l.08-.1,4,1.17c.8.23.87.23,1.16,0l0,0,.14.11-1.11,1.43-.14-.11,0,0c.24-.31.27-.44.11-.56s-.07,0-.47-.16l-.92-.28Zm-1.23-2.07,1.14,1.92,1-1.29Z"/><path class="cls-2" d="M44.05,61.41c-.14-.36-.18-.44-.29-.53s-.44-.11-.64.13l0,0L43,60.93l1-1.16.13.11,0,0c-.19.35-.16.61.13,1.34l.73,2,.49.41c.76.66.86.69,1.22.27l0-.06.13.11-1.27,1.51-.13-.11,0-.06c.35-.41.31-.51-.46-1.15l-.46-.39-2.27-.41c-.88-.16-.93-.16-1.18.09l0,0-.13-.11L42.11,62l.13.11,0,0c-.22.25-.25.42-.12.53s.1.07.42.13l2.17.4Z"/><path class="cls-2" d="M61.9,43.58l2,2.72.18.22c.23.34.53.35,1,0l0,0,.1.13-1.38,1-.1-.14.06,0a.79.79,0,0,0,.31-.61c0-.1-.06-.16-.32-.52l-1.54-2.07c-.59-.79-.68-.82-1.14-.46l0,0-.1-.13,1.09-.81,4.46,1.44L64.79,42c-.3-.43-.53-.46-1-.17l-.07,0-.1-.13,1.34-1,.1.14,0,0c-.38.37-.39.62-.06,1l2.4,3.24-.11.09Z"/><path class="cls-2" d="M70.48,41.09l.78,1.31L68.1,44.54,68,44.4l.08,0c.45-.32.45-.42-.13-1.24l-1.35-2c-.53-.8-.62-.86-1-.57l0,0-.1-.14,2.72-1.85.78,1-.13.09c-.66-.63-1-.65-1.71-.12l-.52.36,1.15,1.69.41-.27c.48-.33.51-.49.19-1l0,0,.13-.09.94,1.39-.13.09,0-.06c-.35-.49-.5-.52-1-.2l-.42.29.65,1c.63.92.69,1,1.21.59l.29-.2c.62-.39.73-.94.38-1.89Z"/><path class="cls-2" d="M74.42,39c1.09.4,1.2.42,1.55.22l0,0,.09.14-1.94,1.21-.09-.14,0,0c.36-.21.45-.37.35-.54s-.15-.16-.68-.35L72.52,39l-.13,1.17c0,.7,0,.7,0,.83s.33.22.62,0h0l.09.14-1.51.94L71.55,42l0,0c.44-.35.57-.71.64-1.76L72.36,39l-1.85-.68-.32-.11c-.54-.22-.72-.23-1-.08l0,0L69.06,38l1.67-1,.08.14,0,0c-.24.15-.3.25-.21.4s.13.14.58.3l1.3.48L72.54,37c0-.54,0-.58,0-.68s-.29-.15-.61,0l0,0-.09-.14,1.47-.91.08.13,0,0h0c-.35.22-.5.64-.59,1.59l-.1,1.21Z"/><path class="cls-2" d="M74.43,36.05l-.56-1,3.9-2.19.6,1-.13.07c-.57-.67-.81-.74-1.4-.37l-.65.37,1.69,3c.49.88.58.94,1.06.68l.19-.11.08.15-2,1.12-.08-.15.2-.11c.48-.28.48-.38,0-1.25l-1.69-3-.59.34c-.68.34-.75.55-.46,1.41Z"/><path class="cls-2" d="M81.4,31l.83-.46.94-.48a3.23,3.23,0,0,1,1.7-.39,2.41,2.41,0,0,1,1.89,1.5,2.19,2.19,0,0,1-.19,2.5,3.09,3.09,0,0,1-1.28.84l-1.84.87-.07-.16.17-.08c.49-.23.5-.34.06-1.24l-1-2.12c-.41-.91-.49-1-1-.69l-.12.06Zm2.72,2.43c.38.8.42.88.56,1s.27.07.66-.11a1.69,1.69,0,0,0,1-.91,2.42,2.42,0,0,0-.23-1.86A2.49,2.49,0,0,0,84.56,30a1.77,1.77,0,0,0-1.33.22l-.51.25Z"/><path class="cls-2" d="M88.14,31.21v.33a2.43,2.43,0,0,0,.09.9.43.43,0,0,0,.59.24l0,0,.07.16-1.26.54-.07-.16.06,0c.3-.22.36-.41.31-1.18v-.45l-.1-3.64.12-.05,2.94,3c.59.59.64.62,1,.54h0l.07.15-1.67.71L90.33,32l.06,0c.35-.16.44-.26.37-.44s0-.08-.33-.37l-.68-.69Zm-.07-2.41L88.13,31l1.5-.64Z"/><path class="cls-2" d="M93.55,26.9c0-.38.06-.46,0-.6s-.33-.3-.62-.19h0L92.84,26l1.41-.54.06.16,0,0c-.33.22-.44.46-.54,1.24l-.31,2.06.24.61c.34.94.42,1,.93.82l.07,0,.06.16-1.84.71L92.82,31l.07,0c.51-.19.52-.3.15-1.23l-.21-.57L91,27.74c-.68-.57-.74-.59-1.07-.49l0,0-.06-.16,1.74-.67.06.16h0c-.31.12-.42.25-.36.41s.06.11.3.31l1.72,1.4Z"/></g></g></svg>