<svg xmlns="http://www.w3.org/2000/svg" width= "auto" height= "200px" viewBox="0 0 8.76 72.32"><defs><style>.cls-1{fill:#ffffff;}</style></defs><title>clockhand1</title><g id="Layer_2" data-name="Layer 2"><g id="Layer_1-2" data-name="Layer 1"><path class="cls-1" d="M3.06,3.78A.72.72,0,0,1,2.27,3c0-.39.21-.62.66-.7A2.53,2.53,0,0,1,2.27.89.83.83,0,0,1,3.08,0c.57,0,1,.48,1.53,1.67l.3.67H5.1c.38,0,.49,0,.62-.07a.75.75,0,0,0,.41-.75A.83.83,0,0,0,5.92.89C5.84.82,5.81.81,5.61.77S5.18.6,5.18.41A.26.26,0,0,1,5.46.15.75.75,0,0,1,6,.46a1.81,1.81,0,0,1,.34,1.15,1.35,1.35,0,0,1-.56,1.25A1.41,1.41,0,0,1,5,3H3.45a2,2,0,0,0-.64,0,.26.26,0,0,0-.2.24c0,.19.16.33.45.37ZM4.48,1.86C4.16,1.12,3.75.73,3.26.73s-.65.22-.65.52a2,2,0,0,0,.58,1.09h1.5Z"/><path class="cls-1" d="M3.49,4.34v.17a1.7,1.7,0,0,0-.74.35.93.93,0,0,0-.34.71.64.64,0,0,0,.68.66A.77.77,0,0,0,3.65,6,2.28,2.28,0,0,0,4,5.36a2,2,0,0,1,.59-.81,1.15,1.15,0,0,1,.64-.2,1,1,0,0,1,1.05,1,1,1,0,0,1-.39.79,1,1,0,0,0,.33.17v.16H5.08V6.27c.62-.12,1-.51,1-.94a.58.58,0,0,0-.58-.59A.72.72,0,0,0,5,5a2.91,2.91,0,0,0-.33.58,2.17,2.17,0,0,1-.52.79,1.32,1.32,0,0,1-.85.29,1.1,1.1,0,0,1-.68-2,1.15,1.15,0,0,0-.4-.19V4.34Z"/><path class="cls-1" d="M6,10.61H3.65a1.9,1.9,0,0,0-.82.09.49.49,0,0,0-.3.45.67.67,0,0,0,.37.55l-.08.13a1,1,0,0,1-.62-.94.89.89,0,0,1,.48-.78C2.9,10,3.08,10,3.79,10H6V9.46h.22c0,.51.51.93,1.19,1v.14H6.17V11.7H6Z"/><path class="cls-1" d="M5.54,13.46a1.52,1.52,0,0,1,.78,1.3,1.17,1.17,0,0,1-.51,1.05,2.17,2.17,0,0,1-1.1.16h-1c-1,0-1.08,0-1.09.53v.07H2.35V14.71h.22v.08c0,.53.06.55,1.09.54H4.8a1.74,1.74,0,0,0,.91-.13A.73.73,0,0,0,6,14.55a1.25,1.25,0,0,0-.84-1.09H3.66c-1,0-1.08,0-1.09.54v0H2.35V12.19h.22v.09c0,.27.05.39.18.48a.58.58,0,0,0,.31.05h4.4c.72,0,.88-.08.88-.53v-.07h.22a3.44,3.44,0,0,0,.2,1.15v.09Z"/><path class="cls-1" d="M4.87,17.85l-.47,0A3,3,0,0,0,3,18.11a1,1,0,0,0-.51.9,1.18,1.18,0,0,0,.76,1.13v.21a1.49,1.49,0,0,1-1-1.47,1.87,1.87,0,0,1,2-1.79,1.9,1.9,0,0,1,2.09,1.76,1.47,1.47,0,0,1-1.44,1.5Zm.19,1.73a.68.68,0,0,0,.19,0,.79.79,0,0,0,.87-.78.92.92,0,0,0-.43-.77,1.37,1.37,0,0,0-.63-.19Z"/><path class="cls-1" d="M5.18,26.08c.45.19.45.19.52.19s.24-.17.24-.42v-.07h.22v1.27H5.94V27c0-.36-.17-.48-.83-.72L1,24.67c-.75-.3-1-.5-1-.79a.27.27,0,0,1,.27-.29c.23,0,.38.13.54.46s.21.4.53.53l.91.34,3.08-1.35c.51-.23.59-.31.61-.63v-.07h.22v1.66H5.94v-.05c0-.28-.06-.39-.19-.39s-.06,0-.45.17l-2.24,1Z"/><path class="cls-1" d="M4.86,28l-.46,0a3,3,0,0,0-1.46.28,1,1,0,0,0-.5.9,1.18,1.18,0,0,0,.75,1.13v.21a1.49,1.49,0,0,1-1-1.47,1.88,1.88,0,0,1,2-1.79A1.9,1.9,0,0,1,6.31,29a1.47,1.47,0,0,1-1.45,1.5Zm.19,1.73a.71.71,0,0,0,.2,0,.78.78,0,0,0,.86-.78.92.92,0,0,0-.43-.77A1.37,1.37,0,0,0,5.05,28Z"/><path class="cls-1" d="M3,34.93a.73.73,0,0,1-.8-.74c0-.4.21-.62.67-.7A2.49,2.49,0,0,1,2.25,32a.82.82,0,0,1,.81-.89c.57,0,1,.48,1.53,1.66l.29.68h.19a1.4,1.4,0,0,0,.63-.07.76.76,0,0,0,.4-.75A.82.82,0,0,0,5.9,32c-.09-.08-.12-.08-.31-.12s-.43-.17-.43-.36a.26.26,0,0,1,.27-.27.77.77,0,0,1,.53.32,1.73,1.73,0,0,1,.34,1.15A1.32,1.32,0,0,1,5.74,34a1.26,1.26,0,0,1-.77.13H3.43a2.16,2.16,0,0,0-.65,0,.27.27,0,0,0-.2.24c0,.19.17.33.46.37ZM4.46,33c-.32-.74-.73-1.13-1.22-1.13s-.65.22-.65.52a2,2,0,0,0,.57,1.09H4.67Z"/><path class="cls-1" d="M6,35.29a7.66,7.66,0,0,0,.27,1.08,3.33,3.33,0,0,1-1,.14,1.41,1.41,0,0,1,1,1.16.61.61,0,0,1-.58.61A.31.31,0,0,1,5.39,38c0-.16.1-.25.34-.34s.24-.13.24-.23a1,1,0,0,0-.5-.64,1.81,1.81,0,0,0-1.15-.24H3.64c-1,0-1.08,0-1.09.53v.13H2.34V35.28h.22v.09c0,.53,0,.55,1.08.54H4.72c1,0,1.08,0,1.1-.53v-.09Z"/><path class="cls-1" d="M2.18,44.65l3-1.07-3-1.1v-.19l3-1.1.31-.12c.3-.09.4-.21.41-.47v-.06h.22v1.64H5.93v-.06c0-.29-.07-.42-.23-.42s-.15,0-.55.18l-2,.72,3,1.12v.17L3.11,45l2.15.8c.36.12.36.12.42.12s.24-.11.24-.35v-.09h.22v1.17H5.92v-.07c0-.32-.1-.37-.71-.59l-3-1.12Z"/><path class="cls-1" d="M4.85,47.56l-.47,0a3,3,0,0,0-1.46.29,1,1,0,0,0-.5.89,1.2,1.2,0,0,0,.76,1.14v.21a1.49,1.49,0,0,1-1-1.47,1.87,1.87,0,0,1,2-1.79,1.89,1.89,0,0,1,2.09,1.75,1.47,1.47,0,0,1-1.45,1.51ZM5,49.3a.79.79,0,0,0,.2,0,.78.78,0,0,0,.86-.78.92.92,0,0,0-.42-.77A1.27,1.27,0,0,0,5,47.58Z"/><path class="cls-1" d="M3,54.5a.72.72,0,0,1-.79-.74c0-.4.21-.62.66-.7a2.56,2.56,0,0,1-.66-1.45A.82.82,0,0,1,3,50.72c.57,0,1,.48,1.54,1.66l.29.68h.19A1.35,1.35,0,0,0,5.68,53a.75.75,0,0,0,.41-.75.78.78,0,0,0-.21-.63c-.08-.08-.11-.08-.31-.12s-.42-.17-.42-.36a.26.26,0,0,1,.27-.27.77.77,0,0,1,.53.32,1.73,1.73,0,0,1,.34,1.15,1.32,1.32,0,0,1-.56,1.24A1.3,1.3,0,0,1,5,53.7H3.41a2,2,0,0,0-.64,0,.27.27,0,0,0-.2.24c0,.19.16.32.45.37Zm1.42-1.92c-.32-.74-.72-1.13-1.22-1.13s-.65.22-.65.52a2,2,0,0,0,.58,1.09h1.5Z"/><path class="cls-1" d="M6,54.86a6.66,6.66,0,0,0,.28,1.08,3.35,3.35,0,0,1-1,.14,1.4,1.4,0,0,1,1,1.16.61.61,0,0,1-.58.61.31.31,0,0,1-.33-.29c0-.16.09-.25.34-.34S6,57.09,6,57a1,1,0,0,0-.51-.64,1.74,1.74,0,0,0-1.14-.23H3.63c-1,0-1.08,0-1.09.52v.13H2.32V54.85h.22v.09c0,.53.06.55,1.09.54H4.71c1,0,1.08,0,1.1-.53v-.09Z"/><path class="cls-1" d="M3.45,58.35v.17a2,2,0,0,0-.74.35,1,1,0,0,0-.34.72.64.64,0,0,0,.68.66A.77.77,0,0,0,3.61,60,2.24,2.24,0,0,0,4,59.37a2,2,0,0,1,.59-.8,1.16,1.16,0,0,1,.64-.21,1,1,0,0,1,.66,1.76,1.26,1.26,0,0,0,.33.17v.16H5v-.16c.62-.13,1-.51,1-.94a.58.58,0,0,0-.58-.59A.72.72,0,0,0,5,59a2.62,2.62,0,0,0-.33.58,2.21,2.21,0,0,1-.52.78,1.28,1.28,0,0,1-.85.3,1.1,1.1,0,0,1-.68-2,1.34,1.34,0,0,0-.4-.2v-.17Z"/><path class="cls-1" d="M4.22,67.4a1.93,1.93,0,0,1-2.06-1.91,2.12,2.12,0,0,1,.46-1.27,2.15,2.15,0,0,1,1.64-.66,1.92,1.92,0,1,1,0,3.84Zm0-3.1c-1.28,0-1.85.35-1.85,1.18s.57,1.19,1.82,1.19,1.87-.38,1.87-1.18S5.47,64.3,4.22,64.3Z"/><path class="cls-1" d="M6.28,69.09a3.67,3.67,0,0,1-.79.12,1.78,1.78,0,0,1,.79,1.38,1.08,1.08,0,0,1-.5,1,1.72,1.72,0,0,1-1,.15H3.62c-1,0-1.08,0-1.09.52v.07H2.31V70.47h.22v.08c0,.27,0,.4.18.48a.83.83,0,0,0,.31,0H4.85c.55,0,.63,0,.8-.11A.68.68,0,0,0,6,70.36a1.41,1.41,0,0,0-.8-1.15H3.62c-1,0-1.08,0-1.09.53v.05H2.31V68h.22V68c0,.53.06.55,1.09.54H4.75c1,0,1.08,0,1.1-.54V68h.21a5,5,0,0,0,.22,1Z"/></g></g></svg>