<svg xmlns="http://www.w3.org/2000/svg" width= "270px" height= "auto" viewBox="0 0 87.29 9"><defs><style>.cls-1{fill:#ffffff;}</style></defs><title>clockhand2</title><g id="Layer_2" data-name="Layer 2"><g id="Layer_1-2" data-name="Layer 1"><path class="cls-1" d="M3.21,3.81c.19-.45.19-.45.19-.52S3.23,3.05,3,3.05H2.91V2.84H4.18v.22h0c-.36,0-.48.17-.72.83L1.81,8c-.29.76-.48,1-.78,1a.27.27,0,0,1-.29-.27c0-.23.13-.38.46-.54s.4-.21.53-.53l.34-.91L.7,3.68c-.22-.51-.31-.6-.63-.62H0V2.85H1.65v.22h0c-.28,0-.39.07-.39.19s0,.07.17.45l1,2.23Z"/><path class="cls-1" d="M8.19,4.73A1.94,1.94,0,0,1,6.28,6.79,2.06,2.06,0,0,1,5,6.34a2.13,2.13,0,0,1-.67-1.63,2,2,0,0,1,1.92-2A2,2,0,0,1,8.19,4.73Zm-3.11,0c0,1.28.37,1.84,1.19,1.84S7.46,6,7.45,4.76,7.07,2.89,6.27,2.89,5.08,3.49,5.08,4.74Z"/><path class="cls-1" d="M12.43,5.3c0,1,0,1.08.53,1.1h0v.22a2.33,2.33,0,0,0-1,.15h0a2,2,0,0,1-.16-.89,1.67,1.67,0,0,1-1.37.9,1.16,1.16,0,0,1-1-.53,1.88,1.88,0,0,1-.14-.83V4.12c0-1,0-1.08-.54-1.09h0V2.82H9.94V5.45c0,.46,0,.58.12.73a.71.71,0,0,0,.57.28A1.2,1.2,0,0,0,11.53,6a1.25,1.25,0,0,0,.28-1V4.11c0-1,0-1.08-.54-1.08h-.08V2.81h1.26Z"/><path class="cls-1" d="M17.63,3h-.75V5.3c0,1,0,1.08.54,1.08h.19V6.6h-2V6.39h.05c.53,0,.55-.06.53-1.09V3h-.67V2.79h.68V2.45a2.45,2.45,0,0,1,.3-1.57A1.41,1.41,0,0,1,17.78.19c.62,0,1.15.32,1.15.7a.3.3,0,0,1-.29.3c-.17,0-.28-.09-.43-.37S17.89.4,17.65.4A.74.74,0,0,0,17,1a4.7,4.7,0,0,0-.08,1.5v.29h.75Z"/><path class="cls-1" d="M20.06,5.29c0,1,0,1.07.54,1.08h.1v.22H18.77V6.38h.12c.27,0,.4,0,.47-.18a.46.46,0,0,0,.05-.32,1.88,1.88,0,0,0,0-.3V1.51c0-.75-.08-.9-.54-.9h-.06V.39A3.7,3.7,0,0,0,20,.19H20Z"/><path class="cls-1" d="M22.29,5.28c0,1,0,1.08.54,1.08h.09v.22H21V6.37h.15c.26,0,.39,0,.47-.18a.58.58,0,0,0,0-.31,2.2,2.2,0,0,0,0-.31V4.13c0-1-.05-1-.57-1H21V2.87a6,6,0,0,0,1.22-.25h.1ZM22.34.67a.46.46,0,1,1-.91,0,.47.47,0,0,1,.45-.48A.48.48,0,0,1,22.34.67Z"/><path class="cls-1" d="M26.72,5.64a1.42,1.42,0,0,1-1.49,1.08,1.86,1.86,0,0,1-1.83-2,2,2,0,0,1,1.9-2.11c.66,0,1.25.35,1.25.73,0,.19-.11.33-.27.33s-.32-.1-.38-.42-.21-.42-.59-.42c-.79,0-1.18.57-1.18,1.71A3,3,0,0,0,24.48,6a1.12,1.12,0,0,0,.94.46,1.08,1.08,0,0,0,1.11-.84Z"/><path class="cls-1" d="M30.72,2.74V3h0a1.87,1.87,0,0,0-1,.63l-.38.35L29,4.17l1.29,1.58c.34.43.5.55.76.59h0v.21h-1.8V6.34h0c.27,0,.4-.07.4-.2s0-.13-.29-.45l-.93-1.13-.18.15v.55c0,1,0,1.07.5,1.08h0v.22H27V6.35h.13c.27,0,.39,0,.47-.18a.56.56,0,0,0,.06-.31V1.44c0-.7-.08-.86-.52-.86H27.1V.36a3.81,3.81,0,0,0,1.12-.2h.1V4.45l.38-.28a6.77,6.77,0,0,0,.76-.68.51.51,0,0,0,.16-.32q0-.21-.27-.21h-.07V2.75Z"/><path class="cls-1" d="M31.91,4c0,.24,0,.35,0,.47A3,3,0,0,0,32.19,6a1,1,0,0,0,.89.5,1.2,1.2,0,0,0,1.14-.76h.2A1.47,1.47,0,0,1,33,6.7a1.89,1.89,0,0,1-1.8-2,1.91,1.91,0,0,1,1.75-2.1A1.48,1.48,0,0,1,34.42,4Zm1.74-.19a1.48,1.48,0,0,0,0-.2.78.78,0,0,0-.78-.86,1,1,0,0,0-.77.43,1.39,1.39,0,0,0-.18.63Z"/><path class="cls-1" d="M35,2.85a6.66,6.66,0,0,0,1.08-.28,3.35,3.35,0,0,1,.14,1,1.4,1.4,0,0,1,1.15-1,.61.61,0,0,1,.62.57.32.32,0,0,1-.29.34c-.16,0-.25-.1-.34-.34s-.13-.24-.24-.24a1,1,0,0,0-.63.5,1.85,1.85,0,0,0-.23,1.15v.68c0,1,0,1.08.53,1.09h.12v.21H35V6.32h.09c.53,0,.54-.06.53-1.09V4.15c0-1,0-1.07-.54-1.09H35Z"/><path class="cls-1" d="M41.63,2.92v2.3a1.9,1.9,0,0,0,.09.82.5.5,0,0,0,.45.31c.21,0,.38-.13.55-.38l.13.08a1,1,0,0,1-.93.62.9.9,0,0,1-.79-.47C41,6,41,5.8,41,5.08V2.93h-.51V2.71c.51,0,.93-.51,1-1.2h.14v1.2h1.09v.22Z"/><path class="cls-1" d="M44.46,3.32a1.52,1.52,0,0,1,1.3-.78,1.17,1.17,0,0,1,1.05.51A2,2,0,0,1,47,4.14V5.19c0,1,0,1.08.54,1.09h.07V6.5H45.73V6.29h.08c.53,0,.55-.06.53-1.09V4.05a1.71,1.71,0,0,0-.14-.91.73.73,0,0,0-.65-.31,1.26,1.26,0,0,0-1.09.84V5.2c0,1,0,1.08.54,1.09h0v.22H43.21V6.29h.09c.27,0,.39,0,.47-.18s0-.13,0-.31a2,2,0,0,0,0-.3V1.4c0-.72-.09-.88-.54-.88h-.06V.31A3.42,3.42,0,0,0,44.36.1h.09Z"/><path class="cls-1" d="M48,2.81a7.55,7.55,0,0,0,1.08-.28,3.29,3.29,0,0,1,.15,1,1.4,1.4,0,0,1,1.15-1A.62.62,0,0,1,51,3.1a.31.31,0,0,1-.3.33c-.16,0-.25-.09-.34-.34s-.12-.23-.23-.23a1,1,0,0,0-.63.5,1.75,1.75,0,0,0-.23,1.15v.68c0,1,0,1.08.53,1.08H50v.22H48V6.28h.09c.53,0,.55-.06.54-1.09V4.11c0-1,0-1.08-.54-1.1H48Z"/><path class="cls-1" d="M55.21,4.57A1.93,1.93,0,0,1,53.3,6.63,2.1,2.1,0,0,1,52,6.18a2.13,2.13,0,0,1-.66-1.63,1.92,1.92,0,1,1,3.83,0Zm-3.1,0c0,1.28.36,1.84,1.18,1.84s1.19-.57,1.19-1.82-.38-1.87-1.19-1.87S52.1,3.33,52.11,4.58Z"/><path class="cls-1" d="M59.46,5.14c0,1,0,1.08.52,1.1h0v.22a2.33,2.33,0,0,0-1,.15H59a2,2,0,0,1-.15-.89,1.68,1.68,0,0,1-1.38.9,1.14,1.14,0,0,1-1-.53,1.74,1.74,0,0,1-.14-.83V4c0-1,0-1.08-.54-1.08h-.06V2.66H57V5.29c0,.46,0,.58.12.73a.69.69,0,0,0,.57.28,1.2,1.2,0,0,0,.89-.48,1.25,1.25,0,0,0,.27-1V4c0-1,0-1.08-.54-1.08H58.2V2.65h1.25Z"/><path class="cls-1" d="M64,2.52a.41.41,0,0,1,.45.38.29.29,0,0,1-.26.31A.29.29,0,0,1,64,3c-.09-.14-.12-.17-.21-.17a.57.57,0,0,0-.38.24,1.47,1.47,0,0,1,.24.8,1.38,1.38,0,0,1-.69,1.24,1.82,1.82,0,0,1-1,.22c-.64,0-.93.16-.93.41s.1.22.33.28a6.58,6.58,0,0,0,.9.08,2.55,2.55,0,0,1,1.34.3,1.22,1.22,0,0,1,.5,1c0,.85-.7,1.37-1.83,1.37s-1.82-.47-1.82-1.17c0-.4.21-.65.54-.65a.32.32,0,0,1,.13,0,1,1,0,0,0-.28.67c0,.58.57.95,1.45.95s1.36-.39,1.36-1a.73.73,0,0,0-.45-.72,2.39,2.39,0,0,0-1-.16c-1.09,0-1.5-.25-1.5-.75s.28-.67.8-.77a1.58,1.58,0,0,1-.85-1.35,1.43,1.43,0,0,1,1.46-1.4A1.61,1.61,0,0,1,63.28,3,1,1,0,0,1,64,2.52ZM61.3,4c0,.78.29,1.19.83,1.19s.81-.43.81-1.22a1.72,1.72,0,0,0-.14-.78.8.8,0,0,0-.7-.44C61.59,2.7,61.3,3.15,61.3,4Z"/><path class="cls-1" d="M65.82,3.25a1.55,1.55,0,0,1,1.31-.78,1.14,1.14,0,0,1,1,.5,2,2,0,0,1,.17,1.1v1c0,1,0,1.08.54,1.09H69v.22H67.1V6.21h.08c.53,0,.55,0,.54-1.09V4a1.74,1.74,0,0,0-.13-.91.75.75,0,0,0-.66-.32,1.25,1.25,0,0,0-1.08.85V5.13c0,1,0,1.08.54,1.09h0v.21H64.57V6.22h.09c.27,0,.4,0,.48-.18a.55.55,0,0,0,0-.31,2,2,0,0,0,0-.3V1.33c0-.72-.08-.88-.54-.88h-.06V.23A3.37,3.37,0,0,0,65.72,0h.09Z"/><path class="cls-1" d="M72.79,2.82v2.3a1.84,1.84,0,0,0,.1.82.48.48,0,0,0,.44.3.67.67,0,0,0,.56-.38l.13.08a1,1,0,0,1-.93.62.88.88,0,0,1-.79-.47c-.12-.21-.14-.39-.14-1.11V2.82h-.52V2.6c.51,0,.93-.51,1-1.19h.14V2.6h1.09v.21Z"/><path class="cls-1" d="M75.67,5.1c0,1,0,1.08.54,1.08h.09V6.4H74.36V6.19h.15c.26,0,.39,0,.47-.18a.6.6,0,0,0,0-.32,2,2,0,0,0,0-.3V3.94c0-1-.05-1-.57-1h-.12V2.69a6.74,6.74,0,0,0,1.22-.25h.1Zm0-4.61a.46.46,0,1,1-.91,0,.46.46,0,1,1,.91,0Z"/><path class="cls-1" d="M77.77,2.43a2.12,2.12,0,0,1,.14.8,1.66,1.66,0,0,1,1.37-.8,1.05,1.05,0,0,1,1.11.84c.51-.63.87-.85,1.39-.85a1.16,1.16,0,0,1,.94.42c.16.23.19.37.19,1.09V5.07c0,1,0,1.08.54,1.09h.06v.22h-1.8V6.16h0c.52,0,.54,0,.53-1.09V3.81c0-.49,0-.65-.15-.8a.66.66,0,0,0-.57-.26c-.4,0-.75.26-1.15.83v1.5c0,1,0,1.07.5,1.09h0v.21H79.2V6.17h0c.53,0,.55-.06.53-1.09V4a1.9,1.9,0,0,0-.1-.89A.7.7,0,0,0,79,2.75a1.16,1.16,0,0,0-.76.34l-.36.41V5.09c0,1,0,1.07.51,1.09h0v.22H76.71V6.18h.05c.53,0,.54-.06.53-1.09V4c0-1,0-1.07-.54-1.09h0V2.64a4.67,4.67,0,0,0,1-.21Z"/><path class="cls-1" d="M84.78,3.86c0,.23,0,.34,0,.46a3,3,0,0,0,.29,1.46,1,1,0,0,0,.89.49,1.2,1.2,0,0,0,1.14-.76h.2a1.47,1.47,0,0,1-1.46,1,1.88,1.88,0,0,1-1.8-2,1.91,1.91,0,0,1,1.75-2.1,1.48,1.48,0,0,1,1.51,1.45Zm1.74-.2a1.48,1.48,0,0,0,0-.2.78.78,0,0,0-.78-.86A1,1,0,0,0,85,3a1.45,1.45,0,0,0-.18.64Z"/></g></g></svg>