<svg xmlns="http://www.w3.org/2000/svg" viewBox="0 0 493.14 493.14"><defs><style>.cls-1{fill:#0a0a0a;}.cls-2{fill:#fff;}</style></defs><title>editedclockfinal</title><g id="Layer_2" data-name="Layer 2"><g id="Layer_6" data-name="Layer 6"><circle class="cls-1" cx="246.57" cy="246.57" r="246.57"/></g><g id="Layer_1-2" data-name="Layer 1"><path class="cls-2" d="M216.61,40.13l.85,6,.08.5c.08.72.53,1,1.49.9h.09l0,.29-3,.44,0-.3.14,0a1.34,1.34,0,0,0,1-.68c.06-.18.06-.31-.05-1.08l-.65-4.56c-.26-1.73-.37-1.85-1.4-1.68h-.07l0-.3,2.39-.34,5.77,6-.73-5.14c-.1-.91-.43-1.17-1.42-1.11l-.16,0,0-.29,3-.42,0,.3h-.1c-.92.25-1.15.64-1,1.54l1,7.11-.25,0Z"/><path class="cls-2" d="M232.14,43.52l.1,2.7-6.75.68,0-.29.18,0c1-.12,1.05-.28.85-2.05l-.43-4.23c-.15-1.7-.26-1.86-1.15-1.77h-.09l0-.29,5.82-.6L231,39.8l-.28,0c-.51-1.54-1-1.83-2.58-1.62l-1.12.12.37,3.62.87-.09c1-.1,1.21-.32,1.1-1.31v-.11l.28,0,.3,3-.28,0v-.12c-.14-1.07-.34-1.25-1.33-1.12l-.89.09.21,2c.2,2,.27,2.08,1.4,2l.61-.06c1.31-.08,2-.85,2.2-2.63Z"/><path class="cls-2" d="M240,43.6c1.37,1.55,1.53,1.67,2.26,1.65h.1l0,.3-4.06.25,0-.3h.07c.74-.05,1-.21,1-.57s-.09-.36-.76-1.11L237.08,42l-1.19,1.73c-.67,1-.67,1-.66,1.31s.33.62.94.6h0l0,.3-3.16.2,0-.3h.09c1-.17,1.49-.62,2.47-2.21l1.26-1.82-2.31-2.62a6,6,0,0,1-.41-.46c-.66-.79-1-1-1.51-1h-.08v-.29l3.48-.21,0,.28h-.11c-.51,0-.68.15-.66.44s.08.32.64,1l1.63,1.84,1.25-1.89c.53-.8.56-.87.55-1.07s-.32-.48-1-.44h-.1l0-.29,3.07-.19v.29h-.12c-.73,0-1.33.56-2.27,2L237.76,41Z"/><path class="cls-2" d="M242.55,39v-2.1l7.94-.14.09,2.09h-.27c-.31-1.53-.64-1.85-1.88-1.76l-1.31,0,.11,6.11c0,1.79.11,1.95,1.08,1.94h.4v.3l-4.08.08v-.3h.41c1,0,1.07-.19,1-2L246,37.12l-1.22,0c-1.34,0-1.63.24-1.91,1.83Z"/><path class="cls-2" d="M254.61,36.84l1.69,0c.93,0,1.42,0,1.87,0a5.51,5.51,0,0,1,3,.78,4.24,4.24,0,0,1,1.75,3.9,3.87,3.87,0,0,1-2.35,3.8,5.52,5.52,0,0,1-2.7.27l-3.62-.14v-.3l.33,0c1,0,1.07-.13,1.12-1.91l.16-4.18c.09-1.77,0-1.9-1-1.92h-.23Zm2.29,6.07c-.06,1.58,0,1.74.08,2s.37.34,1.12.37a2.93,2.93,0,0,0,2.32-.61,4.2,4.2,0,0,0,1.18-3.12,4.56,4.56,0,0,0-1.2-3.68,3.2,3.2,0,0,0-2.27-.74c-.36,0-.64,0-1,0Z"/><path class="cls-2" d="M265,42.74l-.25.53a4,4,0,0,0-.6,1.51.77.77,0,0,0,.74.85H265l0,.29-2.43-.18,0-.3h.11c.66-.1.9-.36,1.47-1.6l.35-.72,2.83-5.83.23,0,2.21,7.09c.43,1.42.49,1.51,1.16,1.69H271l0,.3-3.21-.25,0-.3h.1c.69,0,.91,0,.94-.38,0-.16,0-.16-.22-.85l-.5-1.65Zm1.86-3.85-1.73,3.56,2.9.23Z"/><path class="cls-2" d="M277.1,40.41c.4-.57.47-.7.5-.95,0-.44-.27-.76-.82-.82h-.06l0-.3,2.67.3,0,.3h-.08c-.71.08-1.07.38-1.87,1.52l-2.19,3-.13,1.15c-.22,1.76-.15,1.94.81,2.05H276l0,.3-3.48-.39,0-.3h.14c1,.11,1.07,0,1.25-1.82l.13-1.07-1.64-3.75c-.62-1.46-.68-1.53-1.3-1.66h-.09l0-.29,3.29.37,0,.3h-.06c-.59-.06-.87,0-.91.34s0,.23.23.75l1.56,3.62Z"/><path class="cls-2" d="M327,51.38l-2.2,5.6-.17.48c-.29.67,0,1.13.84,1.51l.09,0-.11.28-2.85-1.12.11-.28.13,0a1.34,1.34,0,0,0,1.2-.1c.14-.12.2-.24.49-1l1.68-4.28c.63-1.64.59-1.79-.39-2.15l-.07,0,.11-.28,2.26.88,2,8.09,1.89-4.83c.38-.84.21-1.23-.68-1.66l-.15-.06.11-.28,2.77,1.09-.1.27-.1,0c-.92-.24-1.31,0-1.6.86l-2.62,6.68-.25-.09Z"/><path class="cls-2" d="M338.83,62l-1.24,2.39-6.21-2.73.12-.27.16.07c.91.38,1.06.28,1.75-1.36l1.71-3.9c.71-1.55.7-1.74-.12-2.1l-.09,0,.12-.28,5.35,2.36-.69,2.06-.26-.11c.32-1.59.07-2.07-1.44-2.68l-1-.46-1.46,3.34.8.35c.94.42,1.21.32,1.6-.6l.05-.1.26.12L337,60.77l-.26-.11.05-.11c.41-1,.32-1.25-.6-1.62l-.83-.37-.82,1.87c-.8,1.83-.78,2,.26,2.39l.56.25c1.18.57,2.12.22,3.21-1.21Z"/><path class="cls-2" d="M345.65,66c.42,2,.5,2.21,1.14,2.55l.09,0-.13.27L343.1,67l.13-.27.07,0c.66.33,1,.33,1.15,0s.09-.36-.11-1.34l-.47-2.36L342,64c-1.1.58-1.1.58-1.22.82s0,.7.52,1l0,0-.13.27-2.85-1.4.14-.26.07,0c.94.33,1.61.2,3.25-.69l2-1-.72-3.42c-.06-.31-.12-.51-.13-.6-.18-1-.34-1.3-.83-1.58l-.07,0,.13-.26,3.13,1.54-.13.25-.1-.05c-.45-.22-.66-.21-.79.06s-.09.32.09,1.16l.5,2.41,2-1c.86-.44.92-.48,1-.67s0-.57-.64-.86l-.09,0,.12-.25,2.76,1.35-.13.26-.07,0,0,0c-.66-.32-1.43-.16-2.95.61l-1.92,1Z"/><path class="cls-2" d="M350.13,63.19l1.05-1.82,7,3.81-1,1.86-.23-.13c.48-1.48.36-1.92-.76-2.46L355,63.82l-2.93,5.36c-.87,1.57-.87,1.75,0,2.23l.34.18-.14.27-3.58-2,.14-.26.37.2c.86.45,1,.36,1.86-1.22L354,63.26l-1.07-.59c-1.14-.7-1.53-.6-2.56.65Z"/><path class="cls-2" d="M364.38,69l1.47.83c.81.47,1.23.72,1.6,1A5.64,5.64,0,0,1,369.64,73a4.28,4.28,0,0,1-.5,4.25,3.89,3.89,0,0,1-4,2.07,5.56,5.56,0,0,1-2.46-1.15l-3-2,.16-.25.28.18c.81.53,1,.44,1.93-1.07l2.28-3.51c1-1.47,1-1.63.09-2.18l-.2-.12Zm-1.13,6.38c-.86,1.34-.94,1.47-.95,1.77s.14.48.77.89a3,3,0,0,0,2.31.66,4.24,4.24,0,0,0,2.6-2.08,4.55,4.55,0,0,0,.86-3.78,3.28,3.28,0,0,0-1.58-1.8l-.86-.52Z"/><path class="cls-2" d="M370.32,79.37l-.48.32c-.93.6-1.11.75-1.28,1a.76.76,0,0,0,.19,1.11l.08.06-.17.24-2-1.4.17-.25.1.06c.62.24,1,.15,2.08-.63l.67-.44,5.42-3.56.19.14-1.74,7.21c-.35,1.44-.34,1.56.13,2l.06,0-.17.24L371,83.7l.17-.24.08.06c.56.39.81.44,1,.15.09-.13.09-.13.25-.84l.41-1.67ZM373.9,77l-3.31,2.18L373,80.86Z"/><path class="cls-2" d="M381.89,83.55c.63-.28.76-.35.92-.55.27-.36.15-.79-.29-1.12l0,0,.18-.24,2.13,1.63-.18.23-.08,0c-.64-.29-1.11-.22-2.37.34l-3.42,1.47-.7.92c-1.1,1.4-1.13,1.59-.36,2.18l.09.07-.18.24-2.78-2.13.18-.23.11.08c.77.59.94.51,2-.92l.66-.86.51-4.07c.22-1.56.2-1.66-.26-2.08l-.07-.05.18-.24,2.64,2-.18.24-.05,0c-.47-.35-.77-.4-.95-.17s-.12.2-.19.76l-.52,3.9Z"/><path class="cls-2" d="M415,113.88l-4.69,3.77-.38.32c-.59.44-.6,1,0,1.74l.07.08-.24.18-1.92-2.38.24-.19.08.11a1.4,1.4,0,0,0,1.1.51c.18,0,.29-.11.9-.6l3.59-2.89c1.36-1.11,1.4-1.25.73-2l-.05-.06.23-.19,1.52,1.89-2.25,8,4.05-3.25c.74-.55.79-1,.23-1.78L418,117l.24-.19,1.86,2.33-.24.18-.06-.07c-.68-.67-1.13-.67-1.82,0l-5.59,4.49-.16-.2Z"/><path class="cls-2" d="M420,129l-2.27,1.45-4-5.48.24-.17.11.14c.59.78.77.77,2.19-.3l3.43-2.52c1.39-1,1.47-1.15.94-1.88l-.06-.08.25-.17,3.46,4.72-1.64,1.44-.16-.23c1.07-1.22,1.09-1.76.09-3l-.67-.91-2.94,2.15.52.7c.61.84.89.89,1.69.29l.08-.06.17.22L419,127l-.17-.23.1-.07c.85-.66.9-.92.29-1.71l-.53-.73L417,125.51c-1.61,1.18-1.66,1.29-1,2.19l.37.5c.73,1.09,1.72,1.25,3.38.57Z"/><path class="cls-2" d="M423.84,135.87c-.65,2-.67,2.16-.29,2.78l.06.08-.25.17-2.26-3.39.25-.17,0,.06c.41.62.69.78,1,.58s.26-.26.58-1.21l.78-2.28-2.09-.16c-1.24-.06-1.24-.06-1.47.1s-.37.59,0,1.1l0,0-.25.17-1.76-2.64.25-.17.05.07c.64.76,1.28,1,3.15,1l2.21.17,1.1-3.32a5.47,5.47,0,0,1,.19-.58c.35-1,.35-1.3.07-1.8l0-.06.24-.15,1.93,2.9-.24.16-.06-.09c-.28-.42-.47-.52-.72-.35s-.23.23-.5,1L425,132.3l2.26.13c1,.06,1,0,1.21-.06s.25-.52-.12-1.08l-.06-.08.24-.16,1.71,2.56-.24.16,0-.07,0,0c-.41-.62-1.16-.87-2.86-1l-2.15-.12Z"/><path class="cls-2" d="M429.13,135.74l1.82-1,4.09,6.81-1.77,1.12-.14-.24c1.17-1,1.29-1.47.59-2.5l-.68-1.13-5.24,3.15c-1.54.91-1.63,1.07-1.14,1.91l.2.33-.26.16-2.1-3.5.26-.16.21.36c.52.83.7.83,2.23-.11l5.24-3.15-.63-1c-.63-1.19-1-1.3-2.54-.75Z"/><path class="cls-2" d="M438.49,147.91c.26.45.44.78.84,1.46s.69,1.25.89,1.64a5.63,5.63,0,0,1,.76,3,4.26,4.26,0,0,1-2.59,3.41,3.87,3.87,0,0,1-4.46-.23,5.58,5.58,0,0,1-1.54-2.23l-1.62-3.25.27-.13.15.3c.43.87.63.88,2.21.06l3.75-1.87c1.59-.77,1.67-.91,1.18-1.83l-.1-.21Zm-4.22,4.93c-1.42.71-1.56.79-1.72,1s-.12.49.21,1.16a2.94,2.94,0,0,0,1.66,1.74,4.18,4.18,0,0,0,3.29-.47,4.54,4.54,0,0,0,2.66-2.82,3.22,3.22,0,0,0-.44-2.35c-.16-.32-.3-.56-.47-.89Z"/><path class="cls-2" d="M438.32,159.91l-.58,0a4.15,4.15,0,0,0-1.61.2.76.76,0,0,0-.4,1.05l0,.09-.27.12-1-2.22.28-.12.05.1c.41.53.75.62,2.12.52l.79,0,6.48-.29.09.21-5.18,5.32c-1,1.06-1.09,1.16-.94,1.83l0,.07-.27.12L436.64,164l.27-.12,0,.09c.28.63.47.79.79.64.14-.06.14-.06.64-.6l1.21-1.22Zm4.28-.2-4,.18,1.18,2.65Z"/><path class="cls-2" d="M446.12,169.43c.69.08.83.09,1.07,0,.41-.16.53-.59.33-1.11l0-.05.28-.11,1,2.48-.28.11-.05-.07c-.4-.58-.83-.77-2.21-.93l-3.69-.49-1.07.43c-1.67.64-1.79.78-1.43,1.68l0,.11-.28.12-1.3-3.26.28-.11,0,.13c.36.9.54.92,2.19.24l1-.4,2.54-3.22c1-1.23,1-1.33.84-1.93l0-.08.27-.11,1.23,3.08-.27.11,0,0c-.22-.55-.46-.75-.73-.64s-.2.11-.55.55L442.86,169Z"/><path class="cls-2" d="M458.82,212.5l-6,.8-.5.08c-.73.07-1,.51-.92,1.47v.1l-.29,0-.41-3,.3,0,0,.14a1.34,1.34,0,0,0,.67,1c.18.06.31.06,1.08-.05l4.56-.6c1.74-.25,1.86-.35,1.69-1.38V211l.3,0,.32,2.4-6.09,5.7,5.15-.68c.92-.08,1.17-.42,1.12-1.4l0-.16.29,0,.4,3-.3,0v-.1c-.24-.92-.63-1.16-1.53-1l-7.12,1,0-.25Z"/><path class="cls-2" d="M455.27,228l-2.7.06-.6-6.75.3,0v.17c.1,1,.27,1.06,2,.88l4.23-.37c1.7-.13,1.86-.23,1.78-1.12v-.1l.3,0,.52,5.83-2.15.39,0-.29c1.55-.48,1.85-.94,1.65-2.55l-.1-1.12-3.62.32.07.87c.1,1,.31,1.22,1.3,1.12h.11l0,.28-3,.26,0-.28h.12c1.07-.12,1.25-.32,1.14-1.31l-.08-.89-2,.18c-2,.17-2.08.24-2,1.37l.05.61c.07,1.31.83,2,2.6,2.24Z"/><path class="cls-2" d="M455.05,235.91c-1.57,1.34-1.7,1.5-1.69,2.23v.09l-.29,0-.18-4.07h.3v.07c0,.74.19,1,.55,1s.36-.09,1.13-.74l1.84-1.54-1.7-1.22c-1-.69-1-.69-1.31-.68s-.62.32-.61.93v.05h-.3l-.13-3.17h.3V229c.16,1,.6,1.5,2.17,2.52l1.8,1.28,2.66-2.27.46-.4c.8-.65,1-.93,1-1.49v-.08h.28l.15,3.49h-.28v-.11c0-.5-.13-.68-.43-.67s-.32.08-1,.63l-1.87,1.6,1.86,1.28c.79.55.86.58,1.07.57s.48-.31.45-1v-.1h.28l.14,3.07h-.29v-.12c0-.74-.55-1.34-1.95-2.3l-1.79-1.21Z"/><path class="cls-2" d="M459.63,238.54l2.09.06,0,7.93-2.1,0v-.27c1.53-.27,1.86-.59,1.8-1.83v-1.32l-6.11,0c-1.8,0-1.95.06-2,1v.4H453l0-4.07h.29v.42c0,1,.17,1.07,2,1l6.11,0v-1.21c.07-1.34-.2-1.64-1.79-1.95Z"/><path class="cls-2" d="M461.33,253.81c0,.52,0,.9-.05,1.69,0,.94,0,1.43-.08,1.87a5.64,5.64,0,0,1-.91,3,4.27,4.27,0,0,1-4,1.57,3.87,3.87,0,0,1-3.69-2.51,5.65,5.65,0,0,1-.16-2.71l.3-3.62.29,0,0,.33c-.08,1,.08,1.08,1.86,1.2l4.17.34c1.76.17,1.89.1,1.95-.95l0-.23Zm-6.16,2c-1.58-.13-1.74-.13-2,0s-.36.35-.42,1.1a3,3,0,0,0,.52,2.35,4.22,4.22,0,0,0,3.06,1.31,4.52,4.52,0,0,0,3.73-1,3.25,3.25,0,0,0,.84-2.24c0-.36,0-.64.05-1Z"/><path class="cls-2" d="M455,264l-.52-.27A4.25,4.25,0,0,0,453,263a.76.76,0,0,0-.89.7v.1l-.3,0,.3-2.42.3,0v.11c.07.67.32.92,1.54,1.54l.69.39,5.7,3.1,0,.23-7.19,1.87c-1.44.36-1.54.42-1.75,1.08v.07l-.3,0,.4-3.19.3,0v.09c-.09.69,0,.92.34,1,.15,0,.15,0,.86-.17l1.66-.43Zm3.76,2-3.48-1.9-.36,2.88Z"/><path class="cls-2" d="M456.71,276.16c.55.43.67.51.92.55.44.07.77-.23.86-.78v-.06l.29.05-.43,2.64-.3-.05v-.08c0-.71-.32-1.09-1.42-1.94l-2.89-2.34-1.14-.18c-1.76-.32-1.94-.26-2.1.7v.12l-.3-.05.57-3.45.29,0,0,.14c-.16,1,0,1.07,1.76,1.34l1.06.18,3.83-1.45c1.49-.54,1.56-.6,1.72-1.21v-.09l.3.05-.54,3.28-.3-.05v-.06c.1-.59,0-.88-.29-.93s-.23,0-.76.19l-3.69,1.37Z"/><path class="cls-2" d="M445.32,319.58l-5.52-2.39-.47-.19c-.66-.31-1.13-.07-1.54.79l0,.09-.28-.11,1.22-2.81.27.12,0,.12a1.39,1.39,0,0,0,.06,1.21c.12.14.23.2.95.51l4.22,1.83c1.61.69,1.77.66,2.16-.31l0-.07.27.12-1,2.22-8.15,1.76,4.76,2.06c.83.4,1.22.25,1.68-.62l.07-.15.27.12-1.18,2.73-.28-.12,0-.09c.27-.92.06-1.32-.8-1.64l-6.59-2.85.11-.23Z"/><path class="cls-2" d="M434.3,331,432,329.71l3-6.11.27.13-.08.16c-.41.89-.32,1,1.3,1.8l3.83,1.85c1.52.76,1.71.76,2.1-.05l0-.09.27.13-2.55,5.27-2-.77.12-.26c1.58.39,2.07.15,2.73-1.34l.5-1-3.28-1.59-.38.79c-.45.93-.37,1.2.54,1.62l.09.05-.12.25-2.68-1.29.12-.26.11.05c1,.45,1.24.37,1.65-.54l.39-.8-1.84-.89c-1.79-.87-1.91-.86-2.39.16l-.27.56c-.62,1.16-.3,2.1,1.08,3.25Z"/><path class="cls-2" d="M430.06,337.7c-2,.35-2.22.43-2.59,1.05l-.05.09-.26-.14,1.93-3.59.26.15,0,.06c-.35.65-.37,1-.05,1.15s.36.11,1.35-.06L433,336l-.84-1.92c-.53-1.12-.53-1.12-.78-1.25s-.7,0-1,.48l0,0-.26-.14,1.51-2.79.26.14,0,.08c-.37.92-.26,1.59.57,3.27l.88,2,3.45-.59.6-.11c1-.14,1.32-.29,1.62-.77l0-.07.26.14-1.66,3.07-.25-.14.05-.09c.24-.45.23-.66,0-.8s-.31-.1-1.16,0l-2.42.41.94,2.06c.4.88.44.94.62,1s.58,0,.89-.61l0-.09.25.14-1.46,2.7-.25-.13,0-.08,0,0c.35-.65.22-1.43-.49-3l-.91-1.95Z"/><path class="cls-2" d="M432.66,342.29l1.77,1.12-4.07,6.81-1.82-1,.14-.23c1.46.54,1.9.43,2.48-.66l.68-1.13L426.59,344c-1.53-.93-1.71-.93-2.22-.11l-.2.34-.25-.15,2.09-3.5.25.15-.21.36c-.49.84-.4,1,1.15,1.9l5.24,3.14.63-1.05c.74-1.12.65-1.51-.55-2.59Z"/><path class="cls-2" d="M426.34,356.3c-.27.43-.48.75-.89,1.43s-.77,1.2-1,1.56a5.57,5.57,0,0,1-2.29,2.1,4.25,4.25,0,0,1-4.22-.65,3.89,3.89,0,0,1-1.92-4,5.7,5.7,0,0,1,1.24-2.42l2.09-3,.24.17-.19.27c-.56.8-.47,1,1,2l3.43,2.4c1.43,1,1.58,1.05,2.16.18l.14-.19ZM420,354.92c-1.3-.91-1.44-1-1.73-1s-.49.13-.92.74a3,3,0,0,0-.75,2.28,4.24,4.24,0,0,0,2,2.68,4.53,4.53,0,0,0,3.75,1,3.25,3.25,0,0,0,1.85-1.51l.56-.84Z"/><path class="cls-2" d="M415.73,361.83l-.3-.5c-.57-.95-.7-1.14-.94-1.32a.77.77,0,0,0-1.12.15l-.06.08-.23-.18,1.47-1.93.24.18-.06.09c-.27.62-.19,1,.55,2.11l.41.69,3.36,5.54-.14.19-7.15-2c-1.42-.41-1.54-.41-2.05.05l0,.06-.24-.19,2-2.55.23.18-.06.08c-.41.54-.46.78-.19,1s.13.09.84.28l1.65.47Zm2.23,3.66-2.06-3.39-1.76,2.3Z"/><path class="cls-2" d="M411.11,373.24c.26.64.32.77.52.94s.78.18,1.13-.25l0-.05.23.19-1.7,2.07-.23-.19,0-.08c.32-.63.27-1.1-.25-2.39L409.55,370l-.89-.73c-1.36-1.16-1.54-1.2-2.16-.45l-.08.1-.23-.19,2.23-2.71.23.19-.09.11c-.62.75-.54.92.84,2l.84.69,4,.68c1.56.27,1.65.26,2.09-.19l.06-.07.23.19-2.11,2.56-.23-.19,0,0c.37-.46.43-.76.2-.95s-.18-.12-.75-.22l-3.88-.67Z"/><path class="cls-2" d="M377.2,407.19l-3.57-4.85-.31-.4c-.41-.6-.94-.63-1.73-.1l-.08.06-.18-.24,2.46-1.81.18.24-.11.08a1.35,1.35,0,0,0-.55,1.07c0,.19.09.3.56.93l2.72,3.71c1.05,1.4,1.2,1.46,2,.82l.06-.05.17.24-2,1.44L369,405.74l3.08,4.18c.51.76.93.83,1.76.31l.13-.1.18.24-2.39,1.77-.18-.24.08-.06c.69-.66.71-1.11.12-1.82l-4.25-5.79.21-.15Z"/><path class="cls-2" d="M361.93,411.53l-1.37-2.32,5.62-3.8.17.25-.14.1c-.81.56-.8.74.22,2.2l2.38,3.52c.93,1.43,1.1,1.52,1.84,1l.08-.06.17.25L366.05,416l-1.38-1.69.23-.16c1.18,1.12,1.72,1.16,3,.21l.94-.63-2-3-.73.49c-.85.58-.92.85-.34,1.68l.05.08-.23.16-1.67-2.46.24-.16.06.09c.63.88.89.94,1.7.36l.74-.5-1.14-1.69c-1.11-1.65-1.22-1.7-2.15-1.06l-.51.35c-1.12.69-1.32,1.67-.7,3.36Z"/><path class="cls-2" d="M354.92,415.19c-1.94-.72-2.14-.75-2.77-.39l-.08.05-.16-.25,3.46-2.14.16.26-.06,0c-.63.39-.81.67-.62,1s.26.27,1.2.62l2.25.86.23-2.08c.1-1.24.1-1.24,0-1.47s-.59-.39-1.11-.09l0,0-.16-.26,2.7-1.66.16.25L360,410c-.78.61-1,1.25-1.14,3.12l-.25,2.2,3.28,1.22c.29.1.49.17.57.21,1,.38,1.29.4,1.79.13l.06,0,.15.25-3,1.83-.15-.24.09-.06c.43-.27.54-.45.38-.71s-.22-.24-1-.54l-2.3-.86-.22,2.26c-.09,1-.08,1,0,1.21s.51.26,1.07-.08l.09-.06.15.25L357,421.68l-.15-.24.07-.05,0,0c.63-.38.91-1.12,1.07-2.82l.19-2.15Z"/><path class="cls-2" d="M354.88,420.46l1,1.85-6.93,3.87-1.06-1.8.23-.14c1,1.21,1.44,1.33,2.49.67l1.15-.64-3-5.34c-.86-1.57-1-1.66-1.87-1.2l-.34.19-.15-.26,3.56-2,.15.26-.37.21c-.84.48-.85.66.05,2.22l3,5.33,1.07-.59c1.2-.59,1.32-1,.82-2.51Z"/><path class="cls-2" d="M342.45,429.45c-.46.24-.8.41-1.49.79s-1.26.67-1.66.86a5.74,5.74,0,0,1-3,.69,4.28,4.28,0,0,1-3.34-2.67,3.89,3.89,0,0,1,.34-4.46,5.66,5.66,0,0,1,2.28-1.49l3.28-1.54.13.27-.3.15c-.88.41-.9.6-.12,2.21l1.78,3.79c.72,1.61.86,1.69,1.79,1.22l.21-.09Zm-4.82-4.35c-.67-1.44-.75-1.57-1-1.75s-.49-.13-1.17.19a3,3,0,0,0-1.78,1.61,4.2,4.2,0,0,0,.39,3.31,4.54,4.54,0,0,0,2.75,2.73,3.2,3.2,0,0,0,2.36-.39l.9-.45Z"/><path class="cls-2" d="M330.47,429l0-.58a3.92,3.92,0,0,0-.16-1.61.76.76,0,0,0-1-.42l-.09,0-.12-.28,2.24-.94.12.27-.1.06c-.54.39-.64.73-.56,2.1v.79l.17,6.48-.22.09-5.21-5.29c-1-1.06-1.14-1.11-1.81-1l-.07,0-.11-.28,3-1.25.12.28-.09,0c-.64.27-.8.45-.66.78.06.14.06.14.58.65l1.2,1.23Zm.12,4.29-.1-4-2.67,1.13Z"/><path class="cls-2" d="M320.83,436.58c-.1.69-.11.84,0,1.08.16.41.59.54,1.11.34l.06,0,.1.28-2.5,1-.11-.29.08,0c.59-.39.78-.82,1-2.2l.56-3.68-.41-1.08c-.61-1.67-.76-1.8-1.66-1.45l-.12,0-.1-.27,3.27-1.25.1.28-.12,0c-.91.35-.93.54-.28,2.2l.38,1,3.18,2.58c1.22,1,1.31,1.05,1.91.87l.08,0,.11.28-3.1,1.18-.11-.28.06,0c.55-.21.75-.44.65-.72s-.11-.2-.55-.56l-3-2.49Z"/><path class="cls-2" d="M277.8,449.05l-.84-6-.09-.5c-.07-.73-.52-1-1.48-.91h-.09l-.05-.29,3-.43.05.3-.14,0a1.34,1.34,0,0,0-1,.68c-.07.18-.06.31.05,1.08l.64,4.56c.26,1.73.37,1.85,1.4,1.68h.07l0,.29-2.39.34-5.76-6L272,449c.1.92.43,1.17,1.42,1.11l.15,0,0,.29-2.95.42,0-.3h.1c.92-.25,1.15-.64,1-1.54l-1-7.11.25,0Z"/><path class="cls-2" d="M262.26,445.65l-.1-2.7,6.74-.68,0,.29-.17,0c-1,.11-1.05.28-.85,2.05l.43,4.23c.14,1.7.25,1.86,1.14,1.77h.09l0,.3-5.81.59-.42-2.14.28,0c.51,1.54,1,1.84,2.58,1.62l1.12-.12-.37-3.62-.86.09c-1,.1-1.22.32-1.11,1.32l0,.1-.29,0-.29-3,.28,0v.12c.13,1.07.33,1.25,1.32,1.12l.89-.09-.2-2c-.2-2-.27-2.08-1.4-1.95l-.61.06c-1.31.08-1.95.85-2.2,2.63Z"/><path class="cls-2" d="M254.37,445.55c-1.36-1.55-1.52-1.67-2.25-1.65H252l0-.3,4.06-.24,0,.3H256c-.74,0-1,.21-1,.57s.09.36.76,1.11l1.57,1.82,1.19-1.72c.68-1,.68-1,.66-1.32s-.33-.61-.94-.59h0l0-.3,3.16-.19,0,.3h-.09c-1,.17-1.48.62-2.47,2.2l-1.26,1.82,2.31,2.63c.21.23.36.38.41.45.67.8,1,1,1.51,1h.08v.29l-3.48.21,0-.29h.11c.51,0,.68-.15.67-.45s-.08-.32-.65-1l-1.63-1.84-1.25,1.88c-.53.8-.57.87-.55,1.08s.32.47,1,.43h.1l0,.28-3.07.19v-.29h.12c.73,0,1.33-.56,2.27-2l1.18-1.81Z"/><path class="cls-2" d="M251.86,450.18v2.09l-7.94.14-.09-2.09h.27c.31,1.53.64,1.85,1.88,1.76l1.31,0-.1-6.11c0-1.8-.11-1.95-1.08-1.95h-.4v-.3l4.08-.07v.3h-.41c-1,0-1.07.18-1,2l.1,6.11,1.22,0c1.34,0,1.63-.24,1.91-1.83Z"/><path class="cls-2" d="M236.63,452.22c-.52,0-.9,0-1.69,0-.94,0-1.43,0-1.87,0a5.76,5.76,0,0,1-3-.83,4.29,4.29,0,0,1-1.68-3.93,3.89,3.89,0,0,1,2.41-3.77,5.64,5.64,0,0,1,2.7-.23l3.63.2,0,.3-.33,0c-1-.05-1.08.11-1.15,1.89L235.4,450c-.12,1.77,0,1.9,1,1.93l.23,0Zm-2.2-6.11c.09-1.58.08-1.74-.05-2s-.36-.35-1.11-.39a3,3,0,0,0-2.34.58,4.21,4.21,0,0,0-1.22,3.09,4.55,4.55,0,0,0,1.14,3.71,3.21,3.21,0,0,0,2.26.78l1,0Z"/><path class="cls-2" d="M226.31,446.15l.26-.52a4.22,4.22,0,0,0,.62-1.5.76.76,0,0,0-.72-.86h-.1l0-.3,2.42.23,0,.3h-.11c-.66.09-.91.35-1.49,1.58l-.37.71-2.92,5.79-.23,0-2.09-7.13c-.41-1.42-.47-1.52-1.13-1.71h-.08l0-.3,3.21.3,0,.3h-.1c-.68-.06-.91,0-.95.37,0,.15,0,.15.21.85l.47,1.65ZM224.38,450l1.79-3.54-2.89-.27Z"/><path class="cls-2" d="M214.2,448.31c-.4.56-.48.68-.51.94-.06.44.26.75.8.82h.07l0,.3-2.66-.34,0-.3H212c.7-.07,1.07-.36,1.89-1.49l2.23-3,.15-1.15c.25-1.76.19-1.94-.78-2.06l-.12,0,0-.29,3.47.44,0,.3-.14,0c-1-.12-1.07,0-1.28,1.8l-.14,1.08,1.58,3.78c.59,1.47.65,1.54,1.27,1.67h.08l0,.3-3.29-.43,0-.29H217c.59.07.87,0,.91-.33s0-.23-.21-.75l-1.5-3.64Z"/><path class="cls-2" d="M170.38,438.79l2.12-5.64.16-.48c.28-.67,0-1.13-.86-1.5l-.09,0,.1-.28,2.87,1.08-.11.28-.12,0a1.37,1.37,0,0,0-1.2.12c-.14.13-.2.25-.48,1l-1.62,4.31c-.6,1.64-.57,1.79.42,2.14l.07,0-.11.28-2.26-.85-2.16-8.06L165.28,436c-.36.85-.18,1.24.71,1.66l.15.05-.11.28-2.78-1,.1-.28.1,0c.92.23,1.31,0,1.59-.89l2.53-6.71.24.09Z"/><path class="cls-2" d="M158.4,428.34l1.21-2.41,6.24,2.65-.11.27-.16-.06c-.91-.38-1.06-.27-1.73,1.38l-1.66,3.91c-.69,1.56-.68,1.75.15,2.1l.09,0-.12.27-5.38-2.28.66-2.07.26.11c-.3,1.59,0,2.07,1.48,2.65l1,.44,1.42-3.35-.8-.34c-1-.4-1.22-.3-1.6.63l0,.09-.26-.11,1.16-2.74.26.11,0,.11c-.4,1-.31,1.25.62,1.62l.82.35.8-1.88c.78-1.83.76-1.95-.29-2.38l-.56-.24c-1.19-.56-2.12-.19-3.2,1.24Z"/><path class="cls-2" d="M151.54,424.45c-.45-2-.54-2.19-1.18-2.53l-.09,0,.13-.27,3.68,1.74-.13.27-.07,0c-.67-.31-1-.31-1.15,0s-.09.36.13,1.34l.5,2.35,1.87-.94c1.1-.58,1.1-.58,1.22-.83s0-.7-.54-1l0,0,.13-.27,2.86,1.36-.13.27-.08,0c-.93-.32-1.6-.17-3.23.74l-2,1,.76,3.41c.08.31.13.51.14.6.2,1,.37,1.29.86,1.57l.07,0-.13.26L152,432l.12-.25.1,0c.46.22.67.2.8-.07s.08-.31-.11-1.15l-.53-2.4-2,1.05c-.85.44-.91.48-1,.67s0,.57.65.86l.09,0L150,431l-2.78-1.32.13-.26.07,0h0c.67.32,1.44.16,2.94-.64l1.91-1Z"/><path class="cls-2" d="M147.08,427.28l-1,1.83-7-3.72.94-1.87.24.13c-.47,1.48-.34,1.92.79,2.44l1.16.62,2.86-5.4c.85-1.58.85-1.75,0-2.22l-.35-.18.14-.27,3.61,1.91-.14.27-.37-.2c-.87-.44-1-.35-1.84,1.25l-2.87,5.39,1.08.57c1.16.68,1.54.58,2.56-.68Z"/><path class="cls-2" d="M132.78,421.72c-.45-.25-.78-.44-1.48-.81s-1.24-.71-1.61-.94a5.57,5.57,0,0,1-2.22-2.18,4.24,4.24,0,0,1,.43-4.25,3.88,3.88,0,0,1,3.93-2.13,5.63,5.63,0,0,1,2.48,1.11l3.07,1.93-.16.25-.28-.17c-.83-.52-1-.43-1.92,1.09l-2.23,3.55c-.95,1.49-.95,1.64,0,2.18l.2.12Zm1-6.4c.84-1.35.91-1.49.92-1.79s-.14-.47-.78-.87a3,3,0,0,0-2.32-.63,4.22,4.22,0,0,0-2.57,2.12,4.52,4.52,0,0,0-.8,3.79,3.3,3.3,0,0,0,1.6,1.78c.3.19.55.33.87.51Z"/><path class="cls-2" d="M126.68,411.4l.48-.33c.93-.61,1.1-.76,1.27-1a.75.75,0,0,0-.21-1.1l-.08-.06.17-.25,2,1.38-.17.24-.1,0c-.63-.24-1-.14-2.07.66l-.67.45L122,415l-.19-.13,1.64-7.24c.33-1.44.32-1.56-.17-2l-.06,0,.17-.24,2.66,1.81-.17.25-.08-.06c-.57-.38-.81-.42-1-.13-.09.12-.09.12-.24.84l-.38,1.67Zm-3.54,2.41,3.28-2.23L124,410Z"/><path class="cls-2" d="M115.05,407.37c-.63.3-.76.36-.92.57-.26.36-.14.79.31,1.12l0,0-.18.24-2.15-1.6.18-.24.07,0c.65.29,1.12.21,2.38-.37l3.4-1.52.69-.93c1.08-1.41,1.11-1.6.33-2.18l-.1-.07.18-.24,2.81,2.08-.18.24-.1-.08c-.78-.58-.95-.49-2,.95l-.65.87-.46,4.07c-.2,1.57-.18,1.67.29,2.08l.07.05-.18.24-2.66-2,.17-.24,0,0c.48.36.78.4,1,.16s.11-.19.18-.76l.46-3.91Z"/><path class="cls-2" d="M81.53,377.5l4.64-3.83.38-.33c.58-.45.58-1,0-1.74l-.06-.08.23-.19,2,2.36-.23.19-.09-.1a1.38,1.38,0,0,0-1.1-.5c-.18.05-.29.12-.89.61l-3.55,2.94c-1.35,1.12-1.39,1.27-.71,2.06l.05.06-.23.19-1.54-1.87,2.14-8.06-4,3.3c-.74.56-.78,1-.21,1.79l.1.12-.23.19-1.9-2.29.23-.19.06.08c.7.65,1.15.64,1.83,0l5.53-4.57.17.2Z"/><path class="cls-2" d="M76.36,362.5,78.61,361l4.09,5.41-.24.18-.1-.13c-.6-.78-.79-.76-2.19.33l-3.39,2.56c-1.38,1-1.46,1.18-.92,1.9l.06.07-.24.18-3.53-4.66,1.61-1.47.17.23c-1.05,1.23-1.06,1.77,0,3l.68.9,2.9-2.19-.52-.7c-.63-.82-.91-.87-1.7-.26l-.08.06-.17-.22,2.37-1.8.17.23-.09.07c-.85.67-.89.93-.27,1.71l.54.72,1.63-1.23c1.59-1.2,1.63-1.31.94-2.21l-.37-.49c-.75-1.08-1.74-1.23-3.39-.52Z"/><path class="cls-2" d="M72.37,355.69c.62-2,.64-2.17.25-2.78l-.06-.08.25-.17,2.3,3.35-.24.17-.05-.06c-.41-.61-.7-.77-1-.56s-.25.26-.56,1.22l-.75,2.29,2.09.12c1.25,0,1.25,0,1.47-.11s.36-.6,0-1.11l0,0,.25-.17,1.79,2.61-.25.17,0-.07c-.66-.74-1.31-1-3.17-1l-2.21-.14-1,3.34c-.09.3-.14.5-.18.58-.34,1-.34,1.31,0,1.79l0,.06-.23.17-2-2.88.24-.16.06.09c.29.41.48.51.72.34s.24-.24.49-1.05l.74-2.35-2.26-.1c-1,0-1,0-1.2.08s-.24.53.13,1.08l.06.08-.24.16L66,358.05l.24-.17,0,.08,0,0c.42.6,1.17.85,2.87.91l2.15.09Z"/><path class="cls-2" d="M67.07,355.88,65.27,357l-4.19-6.75,1.76-1.15.14.23c-1.16,1.05-1.26,1.5-.55,2.52l.69,1.11,5.19-3.22c1.53-.94,1.62-1.09,1.12-1.92l-.21-.34.26-.16,2.15,3.47-.26.16-.22-.35c-.52-.82-.7-.82-2.21.14l-5.2,3.23.64,1c.65,1.17,1,1.28,2.55.71Z"/><path class="cls-2" d="M57.52,343.82c-.26-.44-.44-.77-.85-1.45s-.71-1.23-.92-1.63a5.56,5.56,0,0,1-.8-3,4.27,4.27,0,0,1,2.53-3.44,3.89,3.89,0,0,1,4.46.16,5.52,5.52,0,0,1,1.57,2.22l1.67,3.22-.27.13-.15-.29c-.45-.86-.64-.87-2.21,0l-3.72,1.93c-1.58.79-1.65.92-1.15,1.84l.11.21Zm4.15-5c1.41-.73,1.54-.82,1.71-1.07s.11-.48-.23-1.15a3,3,0,0,0-1.68-1.72,4.26,4.26,0,0,0-3.29.52,4.56,4.56,0,0,0-2.62,2.86,3.29,3.29,0,0,0,.48,2.34c.17.32.31.56.49.88Z"/><path class="cls-2" d="M57.52,331.83l.58,0a4,4,0,0,0,1.61-.22.75.75,0,0,0,.38-1.05l0-.09.27-.13,1,2.21-.28.12,0-.09c-.42-.53-.76-.61-2.12-.49l-.8,0-6.47.39-.1-.21,5.11-5.4c1-1.07,1.07-1.17.9-1.84l0-.07.27-.12,1.36,2.92-.27.12,0-.08c-.29-.63-.48-.79-.8-.64-.14.07-.14.07-.63.61L56.21,329Zm-4.28.27,4-.24L56,329.23Z"/><path class="cls-2" d="M49.58,322.43c-.69-.07-.84-.07-1.08,0-.4.17-.52.6-.3,1.11l0,.06-.28.11-1-2.47.28-.11,0,.07c.41.58.85.75,2.23.89l3.7.44,1.07-.44c1.65-.67,1.77-.81,1.4-1.71l-.05-.11.28-.12,1.35,3.23-.28.12,0-.13c-.38-.89-.57-.91-2.2-.21l-1,.42-2.48,3.26c-1,1.25-1,1.34-.81,1.94l0,.08-.28.12-1.28-3.07.28-.11,0,.05c.23.55.47.74.74.63s.2-.11.54-.56l2.4-3.12Z"/><path class="cls-2" d="M36.25,279.54l6-.89.5-.08c.72-.09,1-.54.89-1.49V277l.3,0,.45,3-.3,0,0-.13a1.41,1.41,0,0,0-.69-1c-.18-.06-.31-.05-1.08.07l-4.55.67C36,279.89,35.84,280,36,281v.07l-.29,0-.36-2.39,6-5.8-5.13.76c-.92.1-1.17.43-1.11,1.42l0,.16-.3,0-.44-2.94.3-.05v.1c.26.92.65,1.15,1.55,1l7.1-1,0,.25Z"/><path class="cls-2" d="M39.57,264l2.7-.11.7,6.76-.29,0,0-.17c-.12-1-.28-1.06-2-.85l-4.23.44c-1.7.15-1.86.25-1.76,1.15v.09l-.3,0-.61-5.82,2.14-.42,0,.28c-1.54.51-1.83,1-1.61,2.58l.12,1.13,3.62-.38-.09-.87c-.11-1-.33-1.21-1.32-1.1H36.5l0-.28,3-.31,0,.29h-.12c-1.07.13-1.25.34-1.12,1.32l.1.9,2-.21c2-.21,2.07-.28,1.94-1.41l-.06-.61c-.09-1.31-.86-2-2.64-2.2Z"/><path class="cls-2" d="M39.69,256.11c1.55-1.36,1.67-1.53,1.65-2.25v-.1l.3,0,.23,4.06-.3,0v-.07c0-.74-.2-1-.57-1s-.36.1-1.11.76l-1.83,1.57,1.73,1.19c1,.68,1,.68,1.31.67s.62-.34.6-.94v-.05H42l.19,3.16-.3,0V263c-.17-1-.62-1.49-2.2-2.48l-1.82-1.26-2.62,2.31-.46.41c-.8.66-1,.94-1,1.51v.07h-.28l-.2-3.48.28,0v.11c0,.51.14.68.44.67s.32-.08,1-.65l1.84-1.62L35,257.34c-.8-.53-.87-.57-1.07-.55s-.48.32-.44,1v.1l-.28,0L33,254.82l.29,0v.13c.05.73.56,1.33,2,2.27l1.8,1.19Z"/><path class="cls-2" d="M35.06,253.55l-2.09,0-.09-7.94,2.09-.07v.27c-1.53.3-1.85.62-1.77,1.86V249l6.12-.07c1.79,0,2-.1,2-1.07v-.39h.29l0,4.08h-.3v-.42c0-1-.19-1.07-2-1l-6.11.07v1.21c-.05,1.34.23,1.63,1.82,1.92Z"/><path class="cls-2" d="M33.13,238.3c0-.52,0-.9,0-1.69,0-.94,0-1.43.06-1.87a5.52,5.52,0,0,1,.87-3,4.25,4.25,0,0,1,4-1.63,3.89,3.89,0,0,1,3.74,2.45,5.69,5.69,0,0,1,.19,2.71l-.24,3.62-.3,0,0-.33c.07-1-.1-1.08-1.87-1.17l-4.18-.29c-1.77-.14-1.9-.06-2,1v.24Zm6.14-2.12c1.58.11,1.74.11,2,0s.35-.36.4-1.11a3,3,0,0,0-.55-2.34,4.27,4.27,0,0,0-3.08-1.27,4.51,4.51,0,0,0-3.72,1.1,3.27,3.27,0,0,0-.81,2.25c0,.35,0,.64,0,1Z"/><path class="cls-2" d="M39.34,228l.52.27a4.18,4.18,0,0,0,1.49.64.76.76,0,0,0,.87-.71l0-.09.29,0-.26,2.42-.3,0v-.11c-.08-.66-.33-.91-1.56-1.51l-.7-.38-5.74-3,0-.24,7.16-2c1.43-.39,1.53-.45,1.73-1.11v-.07l.3,0-.35,3.2-.3,0v-.1c.07-.68,0-.91-.35-.95-.16,0-.16,0-.86.19l-1.66.45Zm-3.79-2,3.51,1.85.31-2.89Z"/><path class="cls-2" d="M37.42,215.9c-.56-.42-.68-.5-.93-.54-.44-.06-.76.25-.85.79v.06l-.3,0,.4-2.65.29,0v.08c0,.71.34,1.08,1.45,1.92l2.93,2.29,1.15.17c1.76.29,1.93.23,2.08-.73l0-.12.29,0-.52,3.47-.29-.05,0-.13c.14-1,0-1.07-1.78-1.32L40.32,219l-3.82,1.5c-1.48.56-1.55.62-1.69,1.24l0,.08-.29,0,.49-3.28.29,0v.06c-.08.59,0,.87.31.92s.23,0,.76-.2L40,217.93Z"/><path class="cls-2" d="M48.18,172.28l5.56,2.32.47.18c.66.3,1.13.06,1.53-.81l0-.09.28.11-1.18,2.83-.27-.12,0-.12a1.38,1.38,0,0,0-.08-1.21c-.12-.14-.24-.2-1-.5l-4.24-1.77c-1.63-.67-1.78-.64-2.16.34l0,.07-.27-.12.93-2.24L56,169.29l-4.79-2c-.84-.39-1.23-.23-1.68.64l-.06.15-.28-.11,1.15-2.75.27.12,0,.09c-.26.92,0,1.31.83,1.62L58,169.81l-.1.24Z"/><path class="cls-2" d="M59,160.68l2.37,1.3-2.87,6.14-.27-.12.07-.16c.4-.89.3-1.05-1.32-1.78l-3.85-1.8c-1.53-.74-1.72-.74-2.1.07l0,.09-.27-.12,2.48-5.3,2.05.74-.12.25c-1.58-.36-2.07-.11-2.71,1.38l-.48,1,3.3,1.54.37-.79c.44-.94.35-1.21-.56-1.62l-.1-.05.12-.25,2.7,1.26-.12.25-.11-.05c-1-.43-1.24-.35-1.64.57l-.38.81,1.85.86c1.8.85,1.92.83,2.39-.2l.26-.55c.6-1.17.27-2.12-1.13-3.24Z"/><path class="cls-2" d="M63.19,154c2-.37,2.21-.45,2.57-1.08l0-.09.27.14-1.88,3.6-.27-.13,0-.07c.34-.65.35-1,0-1.15s-.36-.1-1.35.08l-2.37.41.87,1.91c.55,1.11.55,1.11.79,1.24s.7,0,1-.5l0,0,.27.14-1.47,2.81-.26-.14,0-.07c.35-.93.23-1.6-.62-3.26l-.92-2-3.43.63-.61.12c-1,.16-1.3.31-1.6.8l0,.06-.26-.13,1.61-3.09.26.13-.05.1c-.24.44-.23.65,0,.79s.31.1,1.16-.06l2.41-.44-1-2.05c-.41-.86-.45-.93-.64-1s-.57,0-.88.62l0,.09-.26-.13,1.42-2.73.26.13,0,.08,0,0c-.34.66-.2,1.43.53,3l.94,1.94Z"/><path class="cls-2" d="M60.52,149.4l-1.79-1.09,4-6.88,1.84,1-.14.24c-1.47-.53-1.91-.42-2.47.69l-.66,1.14,5.28,3.07c1.55.91,1.73.91,2.23.08l.19-.34.26.15-2,3.53-.26-.15.21-.36c.47-.85.39-1-1.18-1.89l-5.28-3.07-.61,1.05c-.73,1.13-.64,1.52.58,2.59Z"/><path class="cls-2" d="M66.64,135.32c.26-.44.47-.76.87-1.44s.75-1.22,1-1.58a5.55,5.55,0,0,1,2.25-2.13,4.24,4.24,0,0,1,4.23.59,3.91,3.91,0,0,1,2,4,5.56,5.56,0,0,1-1.21,2.43l-2,3-.25-.17.19-.27c.55-.81.46-1-1-2l-3.46-2.35c-1.44-1-1.6-1-2.17-.14l-.13.19ZM73,136.61c1.31.89,1.45,1,1.75,1s.48-.13.9-.75a2.93,2.93,0,0,0,.71-2.29,4.23,4.23,0,0,0-2-2.65,4.54,4.54,0,0,0-3.76-.95,3.26,3.26,0,0,0-1.83,1.54c-.2.29-.35.53-.55.84Z"/><path class="cls-2" d="M77.18,129.63l.31.5c.58.94.72,1.12,1,1.3a.75.75,0,0,0,1.11-.17l.06-.08.24.18-1.45,1.95-.24-.17.06-.1c.26-.62.17-1-.58-2.1l-.42-.68-3.43-5.49.14-.19,7.17,1.91c1.43.39,1.55.39,2.06-.08l0-.06.24.18-1.92,2.58-.24-.18.06-.07c.41-.56.46-.8.18-1-.13-.1-.13-.1-.84-.27L79,127.14ZM74.9,126,77,129.36,78.73,127Z"/><path class="cls-2" d="M81.63,118.18c-.27-.64-.33-.77-.53-.93s-.78-.17-1.13.26l0,0-.23-.19,1.67-2.09.24.19,0,.07c-.31.64-.25,1.11.29,2.39l1.38,3.45.9.72c1.38,1.14,1.56,1.18,2.17.42l.08-.1.23.19-2.19,2.73-.23-.18.08-.11c.61-.76.53-.93-.87-2l-.84-.68-4-.61c-1.56-.26-1.66-.24-2.09.21l0,.07-.24-.18,2.08-2.6.23.19,0,0c-.37.46-.42.76-.19,1s.19.12.75.2l3.89.61Z"/><path class="cls-2" d="M112.59,85.72l3.71,4.74.32.39c.43.59.95.61,1.73.05l.08-.06.18.24L116.2,93l-.18-.24.11-.08a1.37,1.37,0,0,0,.52-1.09c0-.18-.11-.29-.59-.91L113.23,87c-1.09-1.38-1.23-1.43-2-.76l-.06,0-.18-.23,1.9-1.49,8,2.36-3.19-4.09c-.54-.75-1-.8-1.78-.26l-.12.1-.19-.24,2.35-1.83.18.24-.08.06c-.67.67-.68,1.12-.07,1.82l4.41,5.65-.2.16Z"/><path class="cls-2" d="M127.75,80.93l1.43,2.29-5.52,4-.17-.24.14-.1c.79-.58.78-.77-.28-2.2l-2.48-3.46c-1-1.39-1.14-1.48-1.87-1l-.08.06-.17-.24,4.75-3.41,1.43,1.65-.23.16c-1.21-1.09-1.75-1.11-3-.12l-.92.66,2.12,3,.71-.5c.84-.61.89-.89.3-1.69l-.06-.09.23-.16,1.74,2.42-.23.16-.07-.09c-.65-.86-.91-.92-1.71-.32l-.73.53,1.19,1.66c1.16,1.61,1.27,1.66,2.19,1l.49-.36c1.1-.72,1.27-1.71.61-3.37Z"/><path class="cls-2" d="M134.64,77.09c2,.67,2.16.69,2.78.31l.08-.05.17.25-3.41,2.23-.16-.25.06,0c.62-.41.79-.69.59-1s-.26-.26-1.21-.59l-2.28-.8-.17,2.09c-.07,1.24-.07,1.24.08,1.47s.6.37,1.11,0l0,0,.17.25-2.66,1.74-.16-.26.07,0c.76-.64,1-1.28,1-3.15l.19-2.2L127.67,76c-.3-.1-.5-.15-.59-.19-1-.36-1.29-.36-1.79-.09l-.06,0-.16-.24L128,73.57l.16.24-.09.06c-.42.28-.52.47-.35.72s.22.23,1,.51l2.32.79.16-2.26c.06-1,.05-1-.06-1.21s-.52-.25-1.07.12l-.09,0-.15-.24,2.57-1.68.15.24-.07,0,0,0c-.62.41-.88,1.15-1,2.85L131.37,76Z"/><path class="cls-2" d="M134.55,71.8l-1-1.82,6.82-4.06,1.11,1.78-.23.13c-1-1.17-1.47-1.29-2.5-.59l-1.13.67,3.13,5.25c.9,1.55,1.06,1.64,1.9,1.15l.34-.2.15.26-3.5,2.08-.16-.25.36-.22c.83-.5.83-.69-.11-2.22l-3.12-5.25-1.05.62c-1.18.63-1.29,1-.75,2.54Z"/><path class="cls-2" d="M146.72,62.49l1.46-.84c.81-.47,1.24-.7,1.64-.9a5.65,5.65,0,0,1,3-.77,4.27,4.27,0,0,1,3.42,2.58A3.89,3.89,0,0,1,156,67a5.71,5.71,0,0,1-2.24,1.54l-3.24,1.63-.13-.26.29-.15c.87-.44.88-.64.06-2.22l-1.88-3.74c-.77-1.59-.91-1.66-1.83-1.17l-.21.1Zm4.93,4.21c.72,1.41.8,1.55,1,1.71s.48.12,1.15-.21a3,3,0,0,0,1.74-1.66,4.29,4.29,0,0,0-.47-3.3,4.55,4.55,0,0,0-2.84-2.65,3.27,3.27,0,0,0-2.34.45c-.32.16-.57.3-.89.48Z"/><path class="cls-2" d="M158.7,62.62l0,.58a4,4,0,0,0,.21,1.61.76.76,0,0,0,1.05.39l.09,0,.13.27-2.22,1-.12-.27.09-.06c.53-.41.62-.75.51-2.12l0-.8-.34-6.47.21-.1,5.36,5.15c1.06,1,1.16,1.08,1.83.92l.07,0,.13.27-2.94,1.34-.12-.27.09,0c.63-.29.79-.48.64-.8-.07-.14-.07-.14-.6-.64l-1.24-1.19Zm-.23-4.28.21,4,2.64-1.2Z"/><path class="cls-2" d="M168.15,54.74c.07-.69.08-.83,0-1.07-.17-.41-.6-.53-1.12-.32l0,0-.12-.28,2.48-1,.12.27-.08,0c-.58.41-.75.85-.9,2.23L168,58.32l.44,1.07c.66,1.65.8,1.77,1.7,1.4l.11,0,.12.27-3.24,1.34-.11-.28.12,0c.9-.37.91-.56.22-2.2l-.41-1-3.25-2.5c-1.24-1-1.34-1-1.94-.82l-.07,0-.12-.28L164.64,54l.11.28-.05,0c-.55.23-.74.46-.63.74s.11.19.56.54L167.74,58Z"/></g></g></svg>