<svg xmlns="http://www.w3.org/2000/svg" height= "400px" width ="auto" viewBox="0 0 8.75 192.56"><defs><style>.cls-1{fill:#f7f2ed;}.cls-2{fill:none;}</style></defs><title>finalhour</title><g id="Layer_2" data-name="Layer 2"><g id="Layer_1-2" data-name="Layer 1"><path class="cls-1" d="M5.18,3.21c.45.19.45.19.52.19s.24-.17.24-.42V2.91h.22V4.18H5.94v0c0-.37-.17-.48-.83-.72L1,1.8C.26,1.5,0,1.31,0,1A.27.27,0,0,1,.27.72c.23,0,.38.13.54.46s.21.4.53.54l.91.34L5.33.7c.51-.23.59-.31.61-.63V0h.22V1.65H5.94v0c0-.28-.06-.39-.19-.39s-.06,0-.45.17l-2.23,1Z"/><path class="cls-1" d="M4.25,8.19A1.94,1.94,0,0,1,2.19,6.28,2,2,0,0,1,2.65,5a2.14,2.14,0,0,1,1.64-.66,1.92,1.92,0,1,1,0,3.83Zm0-3.1C3,5.09,2.4,5.45,2.4,6.27S3,7.46,4.22,7.46s1.87-.38,1.87-1.18S5.5,5.09,4.25,5.09Z"/><path class="cls-1" d="M3.66,12.42c-1,0-1.08,0-1.1.52v0H2.35a2.32,2.32,0,0,0-.16-1V12a2,2,0,0,1,.89-.16,1.65,1.65,0,0,1-.89-1.37,1.16,1.16,0,0,1,.53-1,1.93,1.93,0,0,1,.84-.13H4.85c1,0,1.08,0,1.09-.54v0h.22V9.94H3.52c-.45,0-.58,0-.73.11a.71.71,0,0,0-.28.57,1.2,1.2,0,0,0,.48.9,1.25,1.25,0,0,0,1,.27h.86c1,0,1.08,0,1.09-.53v-.09h.22v1.25Z"/><path class="cls-1" d="M5.94,17.64v-.75H3.65c-1,0-1.08,0-1.09.53v.19H2.35V15.66h.21v.06c0,.52.06.54,1.09.53H5.94v-.67h.22v.67H6.5a2.44,2.44,0,0,1,1.57.31,1.38,1.38,0,0,1,.68,1.24c0,.62-.32,1.14-.7,1.14a.3.3,0,0,1-.3-.29c0-.17.09-.28.38-.43s.41-.31.41-.55A.74.74,0,0,0,8,17a4.75,4.75,0,0,0-1.5-.08H6.16v.75Z"/><path class="cls-1" d="M3.65,20.05c-1,0-1.08,0-1.09.54v.11H2.35V18.77h.21v.11c0,.27,0,.41.18.48a.62.62,0,0,0,.32.05H7.43c.74,0,.9-.07.9-.54v-.06h.22A3.76,3.76,0,0,0,8.75,20v.08Z"/><path class="cls-1" d="M3.65,22.3c-1,0-1.08,0-1.09.53v.09H2.35V21h.21v.15c0,.27,0,.39.18.47s.14,0,.32,0H4.81c1,0,1.05,0,1-.56V21h.21a5.82,5.82,0,0,0,.25,1.22v.1Zm4.61.06a.46.46,0,1,1,0-.91.46.46,0,1,1,0,.91Z"/><path class="cls-1" d="M3.27,26.74a1.42,1.42,0,0,1-1.08-1.49,1.87,1.87,0,0,1,2-1.82,2,2,0,0,1,2.1,1.9c0,.66-.35,1.25-.74,1.25a.28.28,0,0,1-.32-.27c0-.23.1-.32.42-.38s.42-.21.42-.59c0-.79-.57-1.18-1.71-1.18a3,3,0,0,0-1.48.34,1.11,1.11,0,0,0-.46.94,1.07,1.07,0,0,0,.83,1.11Z"/><path class="cls-1" d="M6.16,30.73H5.94v0a1.87,1.87,0,0,0-.62-1c-.12-.13-.31-.33-.35-.39L4.74,29,3.15,30.28c-.43.34-.55.5-.59.76v0H2.35v-1.8h.21v0c0,.27.07.4.2.4s.14,0,.46-.29l1.13-.93-.15-.18H3.65c-1,0-1.07,0-1.09.5v0H2.35V27h.21v.14c0,.26,0,.39.18.47a.62.62,0,0,0,.32.05H7.47c.7,0,.86-.08.86-.52v-.06h.22a3.81,3.81,0,0,0,.2,1.12v.1H4.46l.28.37a6.89,6.89,0,0,0,.67.76.48.48,0,0,0,.32.16c.15,0,.21-.09.21-.26v-.08h.22Z"/><path class="cls-1" d="M4.86,31.91H4.4a3.06,3.06,0,0,0-1.46.28,1,1,0,0,0-.5.9,1.18,1.18,0,0,0,.76,1.13v.21a1.49,1.49,0,0,1-1-1.47,1.88,1.88,0,0,1,2-1.79,1.89,1.89,0,0,1,2.09,1.75,1.47,1.47,0,0,1-1.45,1.51Zm.19,1.74a.75.75,0,0,0,.2,0,.78.78,0,0,0,.86-.78.92.92,0,0,0-.42-.77,1.47,1.47,0,0,0-.64-.19Z"/><path class="cls-1" d="M6,35a6.26,6.26,0,0,0,.27,1.08,3,3,0,0,1-1,.14,1.41,1.41,0,0,1,1,1.16.61.61,0,0,1-.58.62.31.31,0,0,1-.33-.3c0-.16.1-.25.34-.34s.24-.13.24-.23a1,1,0,0,0-.5-.64,1.82,1.82,0,0,0-1.15-.23H3.65c-1,0-1.08,0-1.09.53v.12H2.35V35h.21v.09c0,.53.06.54,1.09.54H4.73c1,0,1.08,0,1.1-.54V35Z"/><path class="cls-1" d="M5.94,41.63H3.64a1.9,1.9,0,0,0-.82.09.49.49,0,0,0-.3.45.66.66,0,0,0,.38.55l-.09.14a1,1,0,0,1-.62-.94.9.9,0,0,1,.48-.79A2.29,2.29,0,0,1,3.78,41H5.94v-.52h.22c0,.51.51.93,1.19,1v.14H6.16v1.09H5.94Z"/><path class="cls-1" d="M5.53,44.46a1.55,1.55,0,0,1,.78,1.31,1.15,1.15,0,0,1-.51,1A2,2,0,0,1,4.7,47H3.65c-1,0-1.08,0-1.09.54v.07H2.35V45.72h.21v.08c0,.53.06.55,1.09.54H4.8a1.66,1.66,0,0,0,.9-.14A.73.73,0,0,0,6,45.55a1.28,1.28,0,0,0-.85-1.09H3.65c-1,0-1.08,0-1.09.54v0H2.35V43.2h.21v.09c0,.27,0,.39.18.47a.51.51,0,0,0,.32.06h4.4c.71,0,.87-.08.87-.54v-.06h.22a3.7,3.7,0,0,0,.2,1.14v.09Z"/><path class="cls-1" d="M6,48a6.26,6.26,0,0,0,.27,1.08,3.29,3.29,0,0,1-1,.15,1.38,1.38,0,0,1,1,1.15.61.61,0,0,1-.58.62.31.31,0,0,1-.33-.3c0-.16.1-.25.34-.34s.24-.12.24-.23a1,1,0,0,0-.5-.64,1.82,1.82,0,0,0-1.15-.23H3.65c-1,0-1.08,0-1.09.53V50H2.35V48h.21v.09c0,.53.06.55,1.09.54H4.73c1,0,1.08,0,1.1-.54V48Z"/><path class="cls-1" d="M4.25,55.22A1.94,1.94,0,0,1,2.19,53.3,2.05,2.05,0,0,1,2.65,52a2.14,2.14,0,0,1,1.64-.66,1.92,1.92,0,1,1,0,3.84Zm0-3.1c-1.28,0-1.85.35-1.85,1.18S3,54.49,4.22,54.49s1.87-.38,1.87-1.19S5.5,52.12,4.25,52.12Z"/><path class="cls-1" d="M3.66,59.46c-1,0-1.08,0-1.1.51v0H2.35a2.3,2.3,0,0,0-.16-1V59a2.07,2.07,0,0,1,.89-.15,1.66,1.66,0,0,1-.89-1.38,1.14,1.14,0,0,1,.53-1,1.79,1.79,0,0,1,.84-.13H4.85c1,0,1.08,0,1.09-.54v0h.22V57H3.52c-.45,0-.58,0-.73.12a.69.69,0,0,0-.28.57,1.2,1.2,0,0,0,.48.89c.28.24.45.28,1,.28h.86c1,0,1.08,0,1.09-.54V58.2h.22v1.26Z"/><path class="cls-1" d="M6.27,64a.41.41,0,0,1-.39.45.28.28,0,0,1-.3-.26A.29.29,0,0,1,5.77,64c.14-.09.17-.12.17-.21a.55.55,0,0,0-.24-.37,1.54,1.54,0,0,1-.8.23,1.37,1.37,0,0,1-1.24-.7,1.78,1.78,0,0,1-.22-1c0-.65-.15-.93-.4-.93s-.22.09-.28.33a4.78,4.78,0,0,0-.08.89,2.63,2.63,0,0,1-.31,1.34,1.18,1.18,0,0,1-1,.49C.52,64.09,0,63.4,0,62.26s.48-1.81,1.18-1.81c.4,0,.65.21.65.54a.32.32,0,0,1,0,.13,1,1,0,0,0-.67-.28c-.58,0-.95.56-.95,1.45s.38,1.36,1,1.36a.73.73,0,0,0,.72-.45,2.24,2.24,0,0,0,.16-1c0-1.09.26-1.5.76-1.5s.67.28.77.8a1.59,1.59,0,0,1,1.35-.84,1.42,1.42,0,0,1,1.39,1.47,1.59,1.59,0,0,1-.48,1.17A1,1,0,0,1,6.27,64ZM4.84,61.3c-.77,0-1.19.29-1.19.83s.44.81,1.22.81a1.74,1.74,0,0,0,.78-.13.81.81,0,0,0,.44-.7C6.09,61.59,5.65,61.3,4.84,61.3Z"/><path class="cls-1" d="M5.53,65.84a1.55,1.55,0,0,1,.78,1.31,1.18,1.18,0,0,1-.51,1,2.15,2.15,0,0,1-1.1.16H3.65c-1,0-1.08,0-1.09.53V69H2.35V67.1h.21v.08c0,.53.06.55,1.09.54H4.8a1.7,1.7,0,0,0,.9-.13A.76.76,0,0,0,6,66.93a1.29,1.29,0,0,0-.85-1.09H3.65c-1,0-1.08,0-1.09.54v0H2.35V64.58h.21v.09c0,.27,0,.4.18.48a.62.62,0,0,0,.32,0h4.4c.71,0,.87-.08.87-.54v-.06h.22a3.7,3.7,0,0,0,.2,1.14v.09Z"/><path class="cls-1" d="M5.94,72.77H3.64a1.9,1.9,0,0,0-.82.09.48.48,0,0,0-.3.44.67.67,0,0,0,.38.56L2.81,74a1,1,0,0,1-.62-.94.87.87,0,0,1,.48-.78c.22-.12.4-.14,1.11-.14H5.94v-.52h.22c0,.51.51.93,1.19,1v.15H6.16v1.09H5.94Z"/><path class="cls-1" d="M3.65,75.64c-1,0-1.08,0-1.09.53v.09H2.35V74.32h.21v.14c0,.27,0,.4.18.48a.62.62,0,0,0,.32,0H4.81c1,0,1.05,0,1-.56v-.12h.21a6,6,0,0,0,.25,1.22v.1Zm4.61.06a.47.47,0,0,1-.49-.46.49.49,0,0,1,1,0A.48.48,0,0,1,8.26,75.7Z"/><path class="cls-1" d="M6.31,77.77a2.13,2.13,0,0,1-.8.13,1.68,1.68,0,0,1,.8,1.37,1.06,1.06,0,0,1-.85,1.11c.63.52.85.88.85,1.39a1.16,1.16,0,0,1-.43.94c-.22.16-.36.19-1.08.19H3.65c-1,0-1.08,0-1.09.53v.06H2.35v-1.8h.21v0c0,.53.06.55,1.09.54H4.92c.48,0,.64,0,.79-.15A.66.66,0,0,0,6,81.55c0-.39-.26-.74-.82-1.14H3.65c-1,0-1.07,0-1.09.49v0H2.35V79.18h.21v.06c0,.52.06.54,1.09.53H4.71a2,2,0,0,0,.9-.1A.67.67,0,0,0,6,79a1.18,1.18,0,0,0-.34-.77l-.41-.36H3.65c-1,0-1.07,0-1.09.51v0H2.35V76.7h.21v0c0,.53.06.55,1.09.54H4.8c1,0,1.07,0,1.08-.54v0H6.1a4.58,4.58,0,0,0,.21,1Z"/><path class="cls-1" d="M4.86,84.77H4.4A3.06,3.06,0,0,0,2.94,85a1,1,0,0,0-.5.9,1.18,1.18,0,0,0,.76,1.13v.21a1.49,1.49,0,0,1-1-1.47,1.88,1.88,0,0,1,2-1.79,1.89,1.89,0,0,1,2.09,1.76,1.47,1.47,0,0,1-1.45,1.5Zm.19,1.74a.75.75,0,0,0,.2,0,.78.78,0,0,0,.86-.78A.94.94,0,0,0,5.69,85a1.47,1.47,0,0,0-.64-.19Z"/><path class="cls-2" d="M5.18,93c.45.19.45.19.52.19s.24-.17.24-.42v-.08h.22V94H5.94v0c0-.37-.17-.48-.83-.72L1,91.61c-.75-.3-1-.5-1-.79a.27.27,0,0,1,.27-.29c.23,0,.38.13.54.46s.21.4.53.54l.91.34,3.08-1.36c.51-.23.59-.31.61-.63v-.07h.22v1.65H5.94v0c0-.28-.06-.4-.19-.4s-.06,0-.45.17l-2.23,1Z"/><path class="cls-2" d="M4.25,98a1.94,1.94,0,0,1-2.06-1.92,2.05,2.05,0,0,1,.46-1.26,2.14,2.14,0,0,1,1.64-.66,1.92,1.92,0,1,1,0,3.84Zm0-3.1C3,94.87,2.4,95.22,2.4,96S3,97.23,4.22,97.23s1.87-.37,1.87-1.18S5.5,94.87,4.25,94.87Z"/><path class="cls-2" d="M3.66,102.21c-1,0-1.08,0-1.1.51v0H2.35a2.3,2.3,0,0,0-.16-1v-.06a2.07,2.07,0,0,1,.89-.15,1.66,1.66,0,0,1-.89-1.38,1.14,1.14,0,0,1,.53-1,1.79,1.79,0,0,1,.84-.13H4.85c1,0,1.08,0,1.09-.54v0h.22v1.22H3.52c-.45,0-.58,0-.73.12a.69.69,0,0,0-.28.57,1.2,1.2,0,0,0,.48.89c.28.24.45.28,1,.28h.86c1,0,1.08,0,1.09-.54V101h.22v1.26Z"/><path class="cls-2" d="M5.94,107.44v-.75H3.65c-1,0-1.08,0-1.09.54v.18H2.35v-2h.21v.06c0,.52.06.54,1.09.53H5.94v-.67h.22v.67H6.5a2.44,2.44,0,0,1,1.57.31,1.38,1.38,0,0,1,.68,1.24c0,.62-.32,1.15-.7,1.15a.31.31,0,0,1-.3-.3c0-.17.09-.28.38-.43s.41-.31.41-.55a.74.74,0,0,0-.59-.7,4.75,4.75,0,0,0-1.5-.08H6.16v.75Z"/><path class="cls-2" d="M3.65,109.85c-1,0-1.08,0-1.09.54v.11H2.35v-1.93h.21v.11c0,.27,0,.4.18.48a.62.62,0,0,0,.32,0H7.43c.74,0,.9-.07.9-.54v-.06h.22a3.64,3.64,0,0,0,.2,1.14v.09Z"/><path class="cls-2" d="M3.65,112.09c-1,0-1.08,0-1.09.53v.09H2.35v-1.94h.21v.15c0,.27,0,.39.18.47s.14,0,.32,0H4.81c1,0,1.05,0,1-.56v-.12h.21A5.82,5.82,0,0,0,6.31,112v.1Zm4.61.06a.46.46,0,1,1,0-.91.46.46,0,1,1,0,.91Z"/><path class="cls-2" d="M3.27,116.53A1.44,1.44,0,0,1,2.19,115a1.87,1.87,0,0,1,2-1.82,2,2,0,0,1,2.1,1.9c0,.66-.35,1.25-.74,1.25a.28.28,0,0,1-.32-.27c0-.23.1-.32.42-.38s.42-.2.42-.59c0-.79-.57-1.18-1.71-1.18a3.08,3.08,0,0,0-1.48.34,1.12,1.12,0,0,0-.46.94,1.07,1.07,0,0,0,.83,1.11Z"/><path class="cls-2" d="M6.16,120.51H5.94v0a1.85,1.85,0,0,0-.62-1L5,119.05l-.23-.28-1.59,1.28c-.43.34-.55.5-.59.76v0H2.35v-1.8h.21v0c0,.27.07.41.2.41s.14,0,.46-.3l1.13-.92-.15-.19H3.65c-1,0-1.07,0-1.09.5v0H2.35V116.8h.21v.13c0,.27,0,.4.18.48a.75.75,0,0,0,.32,0H7.47c.7,0,.86-.08.86-.52v-.06h.22a3.8,3.8,0,0,0,.2,1.11v.1H4.46l.28.38a8,8,0,0,0,.67.76.48.48,0,0,0,.32.16c.15,0,.21-.09.21-.27v-.07h.22Z"/><path class="cls-2" d="M4.86,121.7l-.46,0a3.06,3.06,0,0,0-1.46.28,1,1,0,0,0-.5.9A1.18,1.18,0,0,0,3.2,124v.21a1.49,1.49,0,0,1-1-1.47,1.88,1.88,0,0,1,2-1.79,1.9,1.9,0,0,1,2.09,1.76,1.47,1.47,0,0,1-1.45,1.5Zm.19,1.73a.75.75,0,0,0,.2,0,.78.78,0,0,0,.86-.78.94.94,0,0,0-.42-.77,1.47,1.47,0,0,0-.64-.19Z"/><path class="cls-2" d="M6,124.77a6.49,6.49,0,0,0,.27,1.08,3,3,0,0,1-1,.14,1.41,1.41,0,0,1,1,1.16.6.6,0,0,1-.58.61.31.31,0,0,1-.33-.29c0-.16.1-.25.34-.34S6,127,6,126.9a1,1,0,0,0-.5-.64A1.82,1.82,0,0,0,4.33,126H3.65c-1,0-1.08,0-1.09.53v.12H2.35v-1.91h.21v.09c0,.53.06.54,1.09.53H4.73c1,0,1.08,0,1.1-.53v-.09Z"/><path class="cls-2" d="M5.94,131.41H3.64a1.9,1.9,0,0,0-.82.09.49.49,0,0,0-.3.45.66.66,0,0,0,.38.55l-.09.14a1,1,0,0,1-.62-.94.9.9,0,0,1,.48-.79,2.29,2.29,0,0,1,1.11-.13H5.94v-.52h.22c0,.51.51.93,1.19,1v.14H6.16v1.09H5.94Z"/><path class="cls-2" d="M5.53,134.27a1.55,1.55,0,0,1,.78,1.31,1.16,1.16,0,0,1-.51,1,2,2,0,0,1-1.1.16H3.65c-1,0-1.08,0-1.09.54v.07H2.35v-1.86h.21v.08c0,.53.06.55,1.09.54H4.8a1.66,1.66,0,0,0,.9-.14.73.73,0,0,0,.33-.65,1.28,1.28,0,0,0-.85-1.09H3.65c-1,0-1.08,0-1.09.54v0H2.35V133h.21v.09c0,.27,0,.39.18.47a.51.51,0,0,0,.32.06h4.4c.71,0,.87-.08.87-.53V133h.22a3.7,3.7,0,0,0,.2,1.14v.09Z"/><path class="cls-2" d="M6,137.82a6.34,6.34,0,0,0,.27,1.09,3.33,3.33,0,0,1-1,.14,1.4,1.4,0,0,1,1,1.15.61.61,0,0,1-.58.62.31.31,0,0,1-.33-.29c0-.17.1-.26.34-.34S6,140.06,6,140s-.22-.45-.5-.63a1.74,1.74,0,0,0-1.15-.24H3.65c-1,0-1.08,0-1.09.53v.13H2.35v-1.92h.21v.09c0,.53.06.55,1.09.54H4.73c1,0,1.08,0,1.1-.54v-.09Z"/><path class="cls-2" d="M4.25,145a1.94,1.94,0,0,1-2.06-1.91,2,2,0,0,1,.46-1.26,2.14,2.14,0,0,1,1.64-.66,1.92,1.92,0,1,1,0,3.83Zm0-3.1c-1.28,0-1.85.36-1.85,1.18s.57,1.19,1.82,1.19,1.87-.38,1.87-1.18S5.5,141.89,4.25,141.89Z"/><path class="cls-2" d="M3.66,149.26c-1,0-1.08,0-1.1.52v0H2.35a2.3,2.3,0,0,0-.16-1v-.06a2.23,2.23,0,0,1,.89-.15,1.66,1.66,0,0,1-.89-1.38,1.14,1.14,0,0,1,.53-1,1.79,1.79,0,0,1,.84-.13H4.85c1,0,1.08,0,1.09-.54v0h.22v1.22H3.52c-.45,0-.58,0-.73.12a.69.69,0,0,0-.28.57,1.23,1.23,0,0,0,.48.9,1.25,1.25,0,0,0,1,.27h.86c1,0,1.08,0,1.09-.53V148h.22v1.25Z"/><path class="cls-2" d="M6.27,153.84a.4.4,0,0,1-.39.44.28.28,0,0,1-.3-.26.32.32,0,0,1,.19-.25c.14-.09.17-.11.17-.2a.57.57,0,0,0-.24-.38,1.56,1.56,0,0,1-.8.24,1.37,1.37,0,0,1-1.24-.7,1.82,1.82,0,0,1-.22-1c0-.64-.15-.93-.4-.93s-.22.1-.28.33a5,5,0,0,0-.08.9,2.66,2.66,0,0,1-.31,1.34,1.21,1.21,0,0,1-1,.49c-.85,0-1.37-.7-1.37-1.83s.48-1.82,1.18-1.82c.4,0,.65.22.65.55a.27.27,0,0,1,0,.12,1.05,1.05,0,0,0-.67-.28c-.58,0-.95.57-.95,1.45s.38,1.36,1,1.36a.73.73,0,0,0,.72-.44A2.3,2.3,0,0,0,2,152c0-1.09.26-1.51.76-1.51s.67.29.77.81a1.57,1.57,0,0,1,1.35-.84,1.42,1.42,0,0,1,1.39,1.46,1.61,1.61,0,0,1-.48,1.18A1,1,0,0,1,6.27,153.84Zm-1.43-2.73c-.77,0-1.19.29-1.19.82s.44.82,1.22.82a1.72,1.72,0,0,0,.78-.14.8.8,0,0,0,.44-.7C6.09,151.4,5.65,151.11,4.84,151.11Z"/><path class="cls-2" d="M5.53,155.61a1.55,1.55,0,0,1,.78,1.31A1.18,1.18,0,0,1,5.8,158a2.15,2.15,0,0,1-1.1.16H3.65c-1,0-1.08,0-1.09.53v.07H2.35v-1.85h.21V157c0,.52.06.54,1.09.53H4.8a1.7,1.7,0,0,0,.9-.13.75.75,0,0,0,.33-.65,1.29,1.29,0,0,0-.85-1.1H3.65c-1,0-1.08,0-1.09.54v0H2.35v-1.84h.21v.09c0,.27,0,.4.18.48a.62.62,0,0,0,.32.05h4.4c.71,0,.87-.08.87-.54v-.06h.22a3.7,3.7,0,0,0,.2,1.14v.09Z"/><path class="cls-2" d="M5.94,162.55H3.64a1.9,1.9,0,0,0-.82.09.49.49,0,0,0-.3.45.66.66,0,0,0,.38.55l-.09.13a1,1,0,0,1-.62-.94.87.87,0,0,1,.48-.78c.22-.12.4-.14,1.11-.14H5.94v-.51h.22c0,.51.51.93,1.19,1v.14H6.16v1.09H5.94Z"/><path class="cls-2" d="M3.65,165.44c-1,0-1.08,0-1.09.54v.09H2.35v-1.94h.21v.14c0,.27,0,.39.18.47a.51.51,0,0,0,.32.06H4.81c1,0,1.05-.05,1-.57v-.11h.21a5.85,5.85,0,0,0,.25,1.21v.1Zm4.61.06a.46.46,0,0,1-.49-.45.49.49,0,1,1,.49.45Z"/><path class="cls-2" d="M6.31,167.56a2.12,2.12,0,0,1-.8.14,1.68,1.68,0,0,1,.8,1.36,1,1,0,0,1-.85,1.11c.63.52.85.88.85,1.4a1.17,1.17,0,0,1-.43.94c-.22.16-.36.18-1.08.18H3.65c-1,0-1.08,0-1.09.53v.06H2.35v-1.79h.21v0c0,.53.06.55,1.09.54H4.92c.48,0,.64,0,.79-.14a.69.69,0,0,0,.27-.58c0-.39-.26-.74-.82-1.14H3.65c-1,0-1.07,0-1.09.49v0H2.35V169h.21V169c0,.53.06.54,1.09.53H4.71a2,2,0,0,0,.9-.09.7.7,0,0,0,.38-.65,1.18,1.18,0,0,0-.34-.77l-.41-.35H3.65c-1,0-1.07,0-1.09.51v0H2.35v-1.76h.21v0c0,.53.06.55,1.09.54H4.8c1,0,1.07,0,1.08-.54v0H6.1a4.8,4.8,0,0,0,.21,1Z"/><path class="cls-2" d="M4.86,174.56l-.46,0a3,3,0,0,0-1.46.29,1,1,0,0,0-.5.89,1.2,1.2,0,0,0,.76,1.14v.21a1.49,1.49,0,0,1-1-1.47,1.88,1.88,0,0,1,2-1.79,1.89,1.89,0,0,1,2.09,1.75,1.48,1.48,0,0,1-1.45,1.51Zm.19,1.74h.2a.78.78,0,0,0,.86-.77.92.92,0,0,0-.42-.77,1.35,1.35,0,0,0-.64-.19Z"/><path class="cls-2" d="M5.18,182.8c.45.19.45.19.52.19s.24-.17.24-.42v-.07h.22v1.27H5.94v0c0-.37-.17-.49-.83-.73L1,181.39c-.75-.29-1-.49-1-.78a.27.27,0,0,1,.27-.29c.23,0,.38.12.54.46s.21.4.53.53l.91.34,3.08-1.36c.51-.22.59-.3.61-.62v-.08h.22v1.66H5.94v-.05c0-.27-.06-.39-.19-.39s-.06,0-.45.17l-2.23,1Z"/><path class="cls-2" d="M4.25,187.76a1.94,1.94,0,0,1-2.06-1.92,2.05,2.05,0,0,1,.46-1.26,2.14,2.14,0,0,1,1.64-.66,1.92,1.92,0,1,1,0,3.84Zm0-3.1c-1.28,0-1.85.35-1.85,1.18S3,187,4.22,187s1.87-.38,1.87-1.19S5.5,184.66,4.25,184.66Z"/><path class="cls-2" d="M3.66,192c-1,0-1.08,0-1.1.52v0H2.35a2.3,2.3,0,0,0-.16-1v-.05a2,2,0,0,1,.89-.16A1.66,1.66,0,0,1,2.19,190a1.16,1.16,0,0,1,.53-1,1.79,1.79,0,0,1,.84-.13H4.85c1,0,1.08,0,1.09-.54v0h.22v1.22H3.52c-.45,0-.58,0-.73.12a.71.71,0,0,0-.28.57,1.2,1.2,0,0,0,.48.9,1.25,1.25,0,0,0,1,.27h.86c1,0,1.08,0,1.09-.53v-.09h.22V192Z"/></g></g></svg>