<svg xmlns="http://www.w3.org/2000/svg" height= "550px" width = "auto" viewBox="0 0 8.75 361.52"><title>finalraindrop</title><g id="Layer_2" data-name="Layer 2"><g id="Layer_1-2" data-name="Layer 1"><path d="M7.25,3.06c1,0,1.07,0,1.08-.54V2.43h.22a4.56,4.56,0,0,0,.2,1.17v.09H3.62c-1,0-1.08,0-1.09.54v0H2.32a7.39,7.39,0,0,0-.13-1.13,2.61,2.61,0,0,1,.59-.06h.11a1.86,1.86,0,0,1-.7-1.38A1.89,1.89,0,0,1,4.23,0,1.89,1.89,0,0,1,6.31,1.75a1.92,1.92,0,0,1-.56,1.31Zm-1.77,0A1.69,1.69,0,0,0,6,1.89C6,1.14,5.39.73,4.27.73s-1.8.45-1.8,1.18a1.44,1.44,0,0,0,.67,1.15Z"/><path d="M6,4.62a6.34,6.34,0,0,0,.27,1.09,3.33,3.33,0,0,1-1,.14A1.4,1.4,0,0,1,6.31,7a.61.61,0,0,1-.58.62.31.31,0,0,1-.33-.3c0-.16.1-.25.34-.34S6,6.86,6,6.75s-.22-.45-.5-.63a1.74,1.74,0,0,0-1.15-.24H3.65c-1,0-1.08,0-1.09.53v.13H2.35V4.62h.21v.09c0,.53.06.55,1.09.54H4.73c1,0,1.08,0,1.1-.54V4.62Z"/><path d="M4.25,11.79A1.94,1.94,0,0,1,2.19,9.87a2.05,2.05,0,0,1,.46-1.26A2.14,2.14,0,0,1,4.29,8a1.92,1.92,0,1,1,0,3.84Zm0-3.1C3,8.69,2.4,9,2.4,9.87S3,11.05,4.22,11.05s1.87-.37,1.87-1.18S5.5,8.69,4.25,8.69Z"/><path d="M6.31,13.36a2,2,0,0,1-.62.08,1.76,1.76,0,0,1,.62,1.29,1.81,1.81,0,0,1-2,1.74,1.9,1.9,0,0,1-2.11-1.81,1.58,1.58,0,0,1,.57-1.22H1.31c-1,0-1.08,0-1.09.54v0H0V12.15H.22v.12c0,.53.05.55,1.09.54H4.77c1,0,1.08,0,1.1-.54v-.12h.21a10,10,0,0,0,.23,1.1Zm-3.24.08a1.33,1.33,0,0,0-.63,1.07,1.14,1.14,0,0,0,.42.84,2.24,2.24,0,0,0,1.46.39,1.73,1.73,0,0,0,1.45-.52A1,1,0,0,0,6,14.53a1.34,1.34,0,0,0-.66-1.09Z"/><path d="M7.25,35.86c1,0,1.07,0,1.08-.54v-.09h.22a4.56,4.56,0,0,0,.2,1.17v.09H3.62c-1,0-1.08,0-1.09.54v0H2.32A7.39,7.39,0,0,0,2.19,36a2.61,2.61,0,0,1,.59-.06h.11a1.73,1.73,0,0,1,1.34-3.1,1.89,1.89,0,0,1,2.08,1.75,1.92,1.92,0,0,1-.56,1.31Zm-1.77,0A1.69,1.69,0,0,0,6,34.68c0-.74-.63-1.15-1.75-1.15s-1.8.45-1.8,1.18a1.46,1.46,0,0,0,.67,1.15Z"/><path d="M6,37.39a6.26,6.26,0,0,0,.27,1.08,3.29,3.29,0,0,1-1,.15,1.38,1.38,0,0,1,1,1.15.61.61,0,0,1-.58.62.31.31,0,0,1-.33-.3c0-.16.1-.25.34-.34s.24-.12.24-.23a1,1,0,0,0-.5-.64,1.82,1.82,0,0,0-1.15-.23H3.65c-1,0-1.08,0-1.09.53v.12H2.35V37.39h.21v.09c0,.53.06.55,1.09.54H4.73c1,0,1.08,0,1.1-.54v-.09Z"/><path d="M4.25,44.58a1.94,1.94,0,0,1-2.06-1.91,2,2,0,0,1,.46-1.26,2.14,2.14,0,0,1,1.64-.66,1.92,1.92,0,1,1,0,3.83Zm0-3.1c-1.28,0-1.85.36-1.85,1.18S3,43.85,4.22,43.85s1.87-.38,1.87-1.18S5.5,41.48,4.25,41.48Z"/><path d="M6.31,46.16a2,2,0,0,1-.62.08,1.76,1.76,0,0,1,.62,1.29,1.81,1.81,0,0,1-2,1.74,1.9,1.9,0,0,1-2.11-1.81,1.58,1.58,0,0,1,.57-1.22H1.31c-1,0-1.08,0-1.09.54v0H0V45H.22v.12c0,.53.05.55,1.09.54H4.77c1,0,1.08,0,1.1-.54V45h.21a10,10,0,0,0,.23,1.1Zm-3.24.08a1.33,1.33,0,0,0-.63,1.07,1.14,1.14,0,0,0,.42.84,2.24,2.24,0,0,0,1.46.39A1.73,1.73,0,0,0,5.77,48,1,1,0,0,0,6,47.33a1.34,1.34,0,0,0-.66-1.09Z"/><path d="M7.25,66.4c1,0,1.07,0,1.08-.53v-.09h.22A4.56,4.56,0,0,0,8.75,67V67H3.62c-1,0-1.08,0-1.09.54v0H2.32a7.51,7.51,0,0,0-.13-1.14,3.42,3.42,0,0,1,.59,0h.11a1.73,1.73,0,0,1,1.34-3.1A1.78,1.78,0,0,1,5.75,66.4Zm-1.77,0A1.69,1.69,0,0,0,6,65.23c0-.74-.63-1.15-1.75-1.15s-1.8.45-1.8,1.18a1.43,1.43,0,0,0,.67,1.14Z"/><path d="M6,68a6.49,6.49,0,0,0,.27,1.08,3.33,3.33,0,0,1-1,.14,1.41,1.41,0,0,1,1,1.16.6.6,0,0,1-.58.61.31.31,0,0,1-.33-.29c0-.16.1-.25.34-.34S6,70.2,6,70.1a1,1,0,0,0-.5-.64,1.75,1.75,0,0,0-1.15-.23H3.65c-1,0-1.08,0-1.09.53v.12H2.35V68h.21v.09c0,.52.06.54,1.09.53H4.73c1,0,1.08,0,1.1-.53V68Z"/><path d="M4.25,75.13a1.94,1.94,0,0,1-2.06-1.92A2.05,2.05,0,0,1,2.65,72a2.14,2.14,0,0,1,1.64-.66,1.92,1.92,0,1,1,0,3.84Zm0-3.1C3,72,2.4,72.38,2.4,73.21S3,74.4,4.22,74.4,6.09,74,6.09,73.21,5.5,72,4.25,72Z"/><path d="M6.31,76.71a2,2,0,0,1-.62.08,1.76,1.76,0,0,1,.62,1.29,1.81,1.81,0,0,1-2,1.74A1.9,1.9,0,0,1,2.19,78a1.59,1.59,0,0,1,.57-1.22H1.31c-1,0-1.08,0-1.09.54v0H0V75.5H.22v.12c0,.53.05.55,1.09.54H4.77c1,0,1.08,0,1.1-.54V75.5h.21a10,10,0,0,0,.23,1.1Zm-3.24.08a1.33,1.33,0,0,0-.63,1.07,1.14,1.14,0,0,0,.42.84,2.24,2.24,0,0,0,1.46.39,1.73,1.73,0,0,0,1.45-.52A1,1,0,0,0,6,77.88a1.34,1.34,0,0,0-.66-1.09Z"/><path d="M7.25,97c1,0,1.07,0,1.08-.53v-.09h.22a4.56,4.56,0,0,0,.2,1.17v.09H3.62c-1,0-1.08,0-1.09.53v.06H2.32A7.51,7.51,0,0,0,2.19,97,3.42,3.42,0,0,1,2.78,97h.11a1.73,1.73,0,0,1,1.34-3.1,1.78,1.78,0,0,1,1.52,3ZM5.48,97A1.69,1.69,0,0,0,6,95.78c0-.74-.63-1.15-1.75-1.15s-1.8.45-1.8,1.18A1.43,1.43,0,0,0,3.14,97Z"/><path d="M6,98.52a6.34,6.34,0,0,0,.27,1.09,3.33,3.33,0,0,1-1,.14,1.4,1.4,0,0,1,1,1.15.61.61,0,0,1-.58.62.31.31,0,0,1-.33-.29c0-.17.1-.26.34-.34s.24-.13.24-.24-.22-.45-.5-.63a1.75,1.75,0,0,0-1.15-.23H3.65c-1,0-1.08,0-1.09.52v.13H2.35V98.52h.21v.09c0,.53.06.55,1.09.54H4.73c1,0,1.08,0,1.1-.54v-.09Z"/><path d="M4.25,105.7a1.94,1.94,0,0,1-2.06-1.91,2,2,0,0,1,.46-1.26,2.14,2.14,0,0,1,1.64-.66,1.92,1.92,0,1,1,0,3.83Zm0-3.1c-1.28,0-1.85.36-1.85,1.18S3,105,4.22,105s1.87-.38,1.87-1.18S5.5,102.6,4.25,102.6Z"/><path d="M6.31,107.28a2.39,2.39,0,0,1-.62.08,1.73,1.73,0,0,1,.62,1.29,1.81,1.81,0,0,1-2,1.74,1.9,1.9,0,0,1-2.11-1.82,1.57,1.57,0,0,1,.57-1.21H1.31c-1,0-1.08,0-1.09.53V108H0v-1.89H.22v.13c0,.52.05.54,1.09.53H4.77c1,0,1.08,0,1.1-.53v-.13h.21a10,10,0,0,0,.23,1.1Zm-3.24.08a1.33,1.33,0,0,0-.63,1.06,1.11,1.11,0,0,0,.42.84,2.23,2.23,0,0,0,1.46.4,1.73,1.73,0,0,0,1.45-.52,1,1,0,0,0,.27-.69,1.34,1.34,0,0,0-.66-1.09Z"/><path d="M7.25,127.52c1,0,1.07,0,1.08-.54v-.09h.22a4.56,4.56,0,0,0,.2,1.18v.08H3.62c-1,0-1.08,0-1.09.54v.06H2.32a7.37,7.37,0,0,0-.13-1.14,2.65,2.65,0,0,1,.59,0h.11a1.86,1.86,0,0,1-.7-1.38,1.89,1.89,0,0,1,2-1.72,1.89,1.89,0,0,1,2.08,1.75,1.92,1.92,0,0,1-.56,1.31Zm-1.77,0A1.69,1.69,0,0,0,6,126.35c0-.74-.63-1.15-1.75-1.15s-1.8.44-1.8,1.18a1.44,1.44,0,0,0,.67,1.14Z"/><path d="M6,129.06a6.49,6.49,0,0,0,.27,1.08,3.33,3.33,0,0,1-1,.14,1.41,1.41,0,0,1,1,1.16.6.6,0,0,1-.58.61.31.31,0,0,1-.33-.29c0-.16.1-.25.34-.34s.24-.13.24-.23a1,1,0,0,0-.5-.64,1.75,1.75,0,0,0-1.15-.23H3.65c-1,0-1.08,0-1.09.53V131H2.35v-1.91h.21v.09c0,.52.06.54,1.09.53H4.73c1,0,1.08,0,1.1-.53v-.09Z"/><path d="M4.25,136.24a1.94,1.94,0,0,1-2.06-1.91,2,2,0,0,1,.46-1.26,2.14,2.14,0,0,1,1.64-.66,1.92,1.92,0,1,1,0,3.83Zm0-3.1c-1.28,0-1.85.36-1.85,1.18s.57,1.19,1.82,1.19,1.87-.38,1.87-1.18S5.5,133.14,4.25,133.14Z"/><path d="M6.31,137.81a2.39,2.39,0,0,1-.62.08,1.75,1.75,0,0,1,.62,1.29,1.81,1.81,0,0,1-2,1.74,1.9,1.9,0,0,1-2.11-1.81,1.58,1.58,0,0,1,.57-1.22H1.31c-1,0-1.08,0-1.09.54v0H0v-1.89H.22v.13c0,.53.05.54,1.09.54H4.77c1,0,1.08,0,1.1-.54v-.13h.21a9.54,9.54,0,0,0,.23,1.1Zm-3.24.08A1.33,1.33,0,0,0,2.44,139a1.11,1.11,0,0,0,.42.83,2.23,2.23,0,0,0,1.46.4,1.73,1.73,0,0,0,1.45-.52A1,1,0,0,0,6,139a1.34,1.34,0,0,0-.66-1.09Z"/><path d="M7.25,158.05c1,0,1.07,0,1.08-.54v-.09h.22a4.56,4.56,0,0,0,.2,1.18v.08H3.62c-1,0-1.08,0-1.09.54v.06H2.32a7.37,7.37,0,0,0-.13-1.14,2.65,2.65,0,0,1,.59,0h.11a1.86,1.86,0,0,1-.7-1.38,1.89,1.89,0,0,1,2-1.72,1.89,1.89,0,0,1,2.08,1.75,1.92,1.92,0,0,1-.56,1.31Zm-1.77,0A1.69,1.69,0,0,0,6,156.88c0-.74-.63-1.15-1.75-1.15s-1.8.44-1.8,1.18a1.44,1.44,0,0,0,.67,1.14Z"/><path d="M6,159.62a6.26,6.26,0,0,0,.27,1.08,3,3,0,0,1-1,.15,1.38,1.38,0,0,1,1,1.15.61.61,0,0,1-.58.62.31.31,0,0,1-.33-.3c0-.16.1-.25.34-.34s.24-.12.24-.23a1,1,0,0,0-.5-.63,1.74,1.74,0,0,0-1.15-.24H3.65c-1,0-1.08,0-1.09.53v.13H2.35v-1.92h.21v.09c0,.53.06.55,1.09.54H4.73c1,0,1.08,0,1.1-.54v-.09Z"/><path d="M4.25,166.81a1.94,1.94,0,0,1-2.06-1.92,2,2,0,0,1,.46-1.26A2.14,2.14,0,0,1,4.29,163a1.92,1.92,0,1,1,0,3.84Zm0-3.11c-1.28,0-1.85.36-1.85,1.18s.57,1.19,1.82,1.19,1.87-.37,1.87-1.18S5.5,163.7,4.25,163.7Z"/><path d="M6.31,168.38a2.39,2.39,0,0,1-.62.08,1.75,1.75,0,0,1,.62,1.29,1.81,1.81,0,0,1-2,1.74,1.9,1.9,0,0,1-2.11-1.82,1.57,1.57,0,0,1,.57-1.21H1.31c-1,0-1.08,0-1.09.54v.05H0v-1.89H.22v.13c0,.53.05.54,1.09.53H4.77c1,0,1.08,0,1.1-.53v-.13h.21a10,10,0,0,0,.23,1.1Zm-3.24.08a1.33,1.33,0,0,0-.63,1.06,1.11,1.11,0,0,0,.42.84,2.23,2.23,0,0,0,1.46.4,1.73,1.73,0,0,0,1.45-.52,1,1,0,0,0,.27-.69,1.34,1.34,0,0,0-.66-1.09Z"/><path d="M7.25,188.63c1,0,1.07,0,1.08-.53V188h.22a4.56,4.56,0,0,0,.2,1.17v.09H3.62c-1,0-1.08,0-1.09.54v.05H2.32a7.66,7.66,0,0,0-.13-1.14,3.42,3.42,0,0,1,.59-.05h.11a1.73,1.73,0,0,1,1.34-3.1,1.78,1.78,0,0,1,1.52,3Zm-1.77,0A1.67,1.67,0,0,0,6,187.46c0-.74-.63-1.15-1.75-1.15s-1.8.45-1.8,1.18a1.43,1.43,0,0,0,.67,1.14Z"/><path d="M6,190.18a6.49,6.49,0,0,0,.27,1.08,3.33,3.33,0,0,1-1,.14,1.41,1.41,0,0,1,1,1.16.6.6,0,0,1-.58.61.31.31,0,0,1-.33-.29c0-.16.1-.25.34-.34s.24-.13.24-.23a1,1,0,0,0-.5-.64,1.75,1.75,0,0,0-1.15-.23H3.65c-1,0-1.08,0-1.09.53v.12H2.35v-1.91h.21v.09c0,.52.06.54,1.09.53H4.73c1,0,1.08,0,1.1-.53v-.09Z"/><path d="M4.25,197.37a1.94,1.94,0,0,1-2.06-1.92,2.05,2.05,0,0,1,.46-1.26,2.14,2.14,0,0,1,1.64-.66,1.92,1.92,0,1,1,0,3.84Zm0-3.1c-1.28,0-1.85.35-1.85,1.18s.57,1.18,1.82,1.18,1.87-.37,1.87-1.18S5.5,194.27,4.25,194.27Z"/><path d="M6.31,198.92a2,2,0,0,1-.62.08,1.76,1.76,0,0,1,.62,1.29,1.81,1.81,0,0,1-2,1.74,1.9,1.9,0,0,1-2.11-1.81A1.59,1.59,0,0,1,2.76,199H1.31c-1,0-1.08,0-1.09.54v.05H0v-1.88H.22v.12c0,.53.05.55,1.09.54H4.77c1,0,1.08,0,1.1-.54v-.12h.21a10,10,0,0,0,.23,1.1ZM3.07,199a1.33,1.33,0,0,0-.63,1.07,1.14,1.14,0,0,0,.42.84,2.24,2.24,0,0,0,1.46.39,1.73,1.73,0,0,0,1.45-.52,1,1,0,0,0,.27-.69A1.34,1.34,0,0,0,5.38,199Z"/><path d="M7.25,219.18c1,0,1.07,0,1.08-.54v-.09h.22a4.56,4.56,0,0,0,.2,1.17v.09H3.62c-1,0-1.08,0-1.09.54v.05H2.32a7.39,7.39,0,0,0-.13-1.13,2.61,2.61,0,0,1,.59-.06h.11a1.86,1.86,0,0,1-.7-1.38,1.89,1.89,0,0,1,2-1.72,1.89,1.89,0,0,1,2.08,1.75,1.92,1.92,0,0,1-.56,1.31Zm-1.77,0A1.69,1.69,0,0,0,6,218c0-.75-.63-1.16-1.75-1.16s-1.8.45-1.8,1.18a1.46,1.46,0,0,0,.67,1.15Z"/><path d="M6,220.74a6.49,6.49,0,0,0,.27,1.08,3.33,3.33,0,0,1-1,.14,1.41,1.41,0,0,1,1,1.15.6.6,0,0,1-.58.62.31.31,0,0,1-.33-.29c0-.16.1-.25.34-.34S6,223,6,222.86s-.22-.45-.5-.63A1.75,1.75,0,0,0,4.33,222H3.65c-1,0-1.08,0-1.09.52v.13H2.35v-1.91h.21v.09c0,.52.06.54,1.09.53H4.73c1,0,1.08,0,1.1-.53v-.09Z"/><path d="M4.25,227.9A1.94,1.94,0,0,1,2.19,226a2.06,2.06,0,0,1,.46-1.27,2.14,2.14,0,0,1,1.64-.66,1.92,1.92,0,1,1,0,3.84Zm0-3.1c-1.28,0-1.85.35-1.85,1.18s.57,1.19,1.82,1.19,1.87-.38,1.87-1.18S5.5,224.8,4.25,224.8Z"/><path d="M6.31,229.49a2.91,2.91,0,0,1-.62.08,1.73,1.73,0,0,1,.62,1.28,1.82,1.82,0,0,1-2,1.75,1.9,1.9,0,0,1-2.11-1.82,1.57,1.57,0,0,1,.57-1.21H1.31c-1,0-1.08,0-1.09.53v.06H0v-1.89H.22v.12c0,.53.05.55,1.09.54H4.77c1,0,1.08,0,1.1-.54v-.12h.21a10,10,0,0,0,.23,1.1Zm-3.24.08a1.33,1.33,0,0,0-.63,1.06,1.13,1.13,0,0,0,.42.84,2.24,2.24,0,0,0,1.46.39,1.73,1.73,0,0,0,1.45-.52,1,1,0,0,0,.27-.68,1.33,1.33,0,0,0-.66-1.09Z"/><path d="M7.25,254.21c1,0,1.07,0,1.08-.54v-.09h.22a4.56,4.56,0,0,0,.2,1.18v.08H3.62c-1,0-1.08,0-1.09.54v.06H2.32a7.37,7.37,0,0,0-.13-1.14,2.65,2.65,0,0,1,.59-.05h.11a1.86,1.86,0,0,1-.7-1.38,1.89,1.89,0,0,1,2-1.72,1.89,1.89,0,0,1,2.08,1.75,1.92,1.92,0,0,1-.56,1.31Zm-1.77,0A1.69,1.69,0,0,0,6,253c0-.74-.63-1.15-1.75-1.15s-1.8.44-1.8,1.18a1.43,1.43,0,0,0,.67,1.14Z"/><path d="M6,255.75a6,6,0,0,0,.27,1.08,3,3,0,0,1-1,.15,1.4,1.4,0,0,1,1,1.15.61.61,0,0,1-.58.62.31.31,0,0,1-.33-.3c0-.16.1-.25.34-.34S6,258,6,257.88s-.22-.45-.5-.63A1.74,1.74,0,0,0,4.33,257H3.65c-1,0-1.08,0-1.09.53v.13H2.35v-1.92h.21v.09c0,.53.06.55,1.09.54H4.73c1,0,1.08,0,1.1-.54v-.09Z"/><path d="M4.25,262.94A1.94,1.94,0,0,1,2.19,261a2.05,2.05,0,0,1,.46-1.26,2.14,2.14,0,0,1,1.64-.66,1.92,1.92,0,1,1,0,3.84Zm0-3.11c-1.28,0-1.85.36-1.85,1.18S3,262.2,4.22,262.2s1.87-.37,1.87-1.18S5.5,259.83,4.25,259.83Z"/><path d="M6.31,264.52a2.39,2.39,0,0,1-.62.08,1.73,1.73,0,0,1,.62,1.29,1.81,1.81,0,0,1-2,1.74,1.9,1.9,0,0,1-2.11-1.82,1.57,1.57,0,0,1,.57-1.21H1.31c-1,0-1.08,0-1.09.53v.06H0V263.3H.22v.13c0,.53.05.54,1.09.53H4.77c1,0,1.08,0,1.1-.53v-.13h.21a10,10,0,0,0,.23,1.1Zm-3.24.08a1.33,1.33,0,0,0-.63,1.06,1.11,1.11,0,0,0,.42.84,2.23,2.23,0,0,0,1.46.4,1.73,1.73,0,0,0,1.45-.52,1,1,0,0,0,.27-.69,1.34,1.34,0,0,0-.66-1.09Z"/><path d="M7.25,287c1,0,1.07,0,1.08-.54v-.09h.22a4.56,4.56,0,0,0,.2,1.17v.09H3.62c-1,0-1.08,0-1.09.54v.05H2.32a7.39,7.39,0,0,0-.13-1.13,2.61,2.61,0,0,1,.59-.06h.11a1.86,1.86,0,0,1-.7-1.38,1.89,1.89,0,0,1,2-1.72,1.89,1.89,0,0,1,2.08,1.75A1.92,1.92,0,0,1,5.75,287Zm-1.77,0A1.69,1.69,0,0,0,6,285.83c0-.75-.63-1.16-1.75-1.16s-1.8.45-1.8,1.18A1.46,1.46,0,0,0,3.14,287Z"/><path d="M6,288.55a6.26,6.26,0,0,0,.27,1.08,3.29,3.29,0,0,1-1,.15,1.38,1.38,0,0,1,1,1.15.61.61,0,0,1-.58.62.31.31,0,0,1-.33-.3c0-.16.1-.25.34-.34s.24-.12.24-.23a1,1,0,0,0-.5-.64,1.82,1.82,0,0,0-1.15-.23H3.65c-1,0-1.08,0-1.09.53v.12H2.35v-1.91h.21v.09c0,.53.06.54,1.09.54H4.73c1,0,1.08,0,1.1-.54v-.09Z"/><path d="M4.25,295.74a1.94,1.94,0,0,1-2.06-1.91,2,2,0,0,1,.46-1.26,2.14,2.14,0,0,1,1.64-.66,1.92,1.92,0,1,1,0,3.83Zm0-3.1c-1.28,0-1.85.36-1.85,1.18S3,295,4.22,295s1.87-.38,1.87-1.18S5.5,292.64,4.25,292.64Z"/><path d="M6.31,297.29a2.39,2.39,0,0,1-.62.08,1.75,1.75,0,0,1,.62,1.29,1.81,1.81,0,0,1-2,1.74,1.9,1.9,0,0,1-2.11-1.81,1.58,1.58,0,0,1,.57-1.22H1.31c-1,0-1.08,0-1.09.54v0H0v-1.89H.22v.13c0,.53.05.55,1.09.54H4.77c1,0,1.08,0,1.1-.54v-.13h.21a9.54,9.54,0,0,0,.23,1.1Zm-3.24.08a1.33,1.33,0,0,0-.63,1.07,1.14,1.14,0,0,0,.42.84,2.24,2.24,0,0,0,1.46.39,1.73,1.73,0,0,0,1.45-.52,1,1,0,0,0,.27-.69,1.34,1.34,0,0,0-.66-1.09Z"/><path d="M7.25,317.54c1,0,1.07,0,1.08-.54v-.09h.22a4.56,4.56,0,0,0,.2,1.17v.09H3.62c-1,0-1.08,0-1.09.54v.05H2.32a7.39,7.39,0,0,0-.13-1.13,2.61,2.61,0,0,1,.59-.06h.11a1.86,1.86,0,0,1-.7-1.38,1.89,1.89,0,0,1,2-1.72,1.89,1.89,0,0,1,2.08,1.75,1.92,1.92,0,0,1-.56,1.31Zm-1.77,0A1.69,1.69,0,0,0,6,316.37c0-.75-.63-1.16-1.75-1.16s-1.8.45-1.8,1.18a1.46,1.46,0,0,0,.67,1.15Z"/><path d="M6,319.1a6.49,6.49,0,0,0,.27,1.08,3.33,3.33,0,0,1-1,.14,1.41,1.41,0,0,1,1,1.16.6.6,0,0,1-.58.61.31.31,0,0,1-.33-.29c0-.16.1-.25.34-.34s.24-.13.24-.23a1,1,0,0,0-.5-.64,1.75,1.75,0,0,0-1.15-.23H3.65c-1,0-1.08,0-1.09.53V321H2.35V319.1h.21v.09c0,.52.06.54,1.09.53H4.73c1,0,1.08,0,1.1-.53v-.09Z"/><path d="M4.25,326.28a1.94,1.94,0,0,1-2.06-1.91,2,2,0,0,1,.46-1.26,2.14,2.14,0,0,1,1.64-.66,1.92,1.92,0,1,1,0,3.83Zm0-3.1c-1.28,0-1.85.36-1.85,1.18s.57,1.19,1.82,1.19,1.87-.38,1.87-1.18S5.5,323.18,4.25,323.18Z"/><path d="M6.31,327.86a2.39,2.39,0,0,1-.62.08,1.75,1.75,0,0,1,.62,1.29,1.81,1.81,0,0,1-2,1.74,1.9,1.9,0,0,1-2.11-1.81,1.58,1.58,0,0,1,.57-1.22H1.31c-1,0-1.08,0-1.09.54v0H0v-1.89H.22v.13c0,.53.05.54,1.09.53H4.77c1,0,1.08,0,1.1-.53v-.13h.21a10,10,0,0,0,.23,1.1Zm-3.24.08A1.33,1.33,0,0,0,2.44,329a1.11,1.11,0,0,0,.42.84,2.23,2.23,0,0,0,1.46.4,1.73,1.73,0,0,0,1.45-.52A1,1,0,0,0,6,329a1.34,1.34,0,0,0-.66-1.09Z"/><path d="M7.25,348.08c1,0,1.07,0,1.08-.53v-.09h.22a4.56,4.56,0,0,0,.2,1.17v.09H3.62c-1,0-1.08,0-1.09.54v.05H2.32a7.51,7.51,0,0,0-.13-1.14,3.42,3.42,0,0,1,.59-.05h.11A1.73,1.73,0,0,1,4.23,345a1.78,1.78,0,0,1,1.52,3.05Zm-1.77,0A1.67,1.67,0,0,0,6,346.91c0-.74-.63-1.15-1.75-1.15s-1.8.45-1.8,1.18a1.43,1.43,0,0,0,.67,1.14Z"/><path d="M6,349.66a6.49,6.49,0,0,0,.27,1.08,3.33,3.33,0,0,1-1,.14,1.41,1.41,0,0,1,1,1.16.6.6,0,0,1-.58.61.31.31,0,0,1-.33-.29c0-.16.1-.25.34-.34s.24-.13.24-.23a1,1,0,0,0-.5-.64,1.75,1.75,0,0,0-1.15-.23H3.65c-1,0-1.08,0-1.09.53v.12H2.35v-1.91h.21v.09c0,.52.06.54,1.09.53H4.73c1,0,1.08,0,1.1-.53v-.09Z"/><path d="M4.25,356.83a1.94,1.94,0,0,1-2.06-1.91,2,2,0,0,1,.46-1.26A2.14,2.14,0,0,1,4.29,353a1.92,1.92,0,1,1,0,3.84Zm0-3.1c-1.28,0-1.85.35-1.85,1.18S3,356.1,4.22,356.1s1.87-.38,1.87-1.18S5.5,353.73,4.25,353.73Z"/><path d="M6.31,358.41a2,2,0,0,1-.62.08,1.76,1.76,0,0,1,.62,1.29,1.81,1.81,0,0,1-2,1.74,1.9,1.9,0,0,1-2.11-1.81,1.58,1.58,0,0,1,.57-1.22H1.31c-1,0-1.08,0-1.09.54v.05H0V357.2H.22v.12c0,.53.05.55,1.09.54H4.77c1,0,1.08,0,1.1-.54v-.12h.21a10,10,0,0,0,.23,1.1Zm-3.24.08a1.33,1.33,0,0,0-.63,1.07,1.14,1.14,0,0,0,.42.84,2.24,2.24,0,0,0,1.46.39,1.73,1.73,0,0,0,1.45-.52,1,1,0,0,0,.27-.69,1.34,1.34,0,0,0-.66-1.09Z"/></g></g></svg>