<svg xmlns="http://www.w3.org/2000/svg"  width= "auto" height= "200px" viewBox="0 0 9.13 87.3"><defs><style>.cls-1{fill:#fff;}</style></defs><title>finalhand2</title><g id="Layer_2" data-name="Layer 2"><g id="Layer_1-2" data-name="Layer 1"><path class="cls-1" d="M5.19,3.22c.45.18.45.18.53.18S6,3.23,6,3V2.91h.22V4.18H6v0c0-.36-.18-.48-.84-.72L1,1.82C.26,1.53,0,1.34,0,1A.27.27,0,0,1,.27.75c.23,0,.38.13.54.46s.21.4.54.53l.91.34L5.32.7c.51-.22.6-.31.61-.63V0h.22V1.65H5.94v0c0-.28-.07-.39-.19-.39s-.06,0-.45.17l-2.23,1Z"/><path class="cls-1" d="M4.28,8.19a1.93,1.93,0,0,1-2.06-1.9A2.11,2.11,0,0,1,2.67,5,2.17,2.17,0,0,1,4.3,4.35a1.92,1.92,0,1,1,0,3.84Zm0-3.1c-1.28,0-1.85.36-1.84,1.19S3,7.46,4.25,7.46s1.87-.39,1.87-1.19S5.52,5.08,4.27,5.09Z"/><path class="cls-1" d="M3.72,12.44c-1,0-1.08,0-1.1.52v0H2.41a2.3,2.3,0,0,0-.16-1V12a2,2,0,0,1,.89-.15,1.68,1.68,0,0,1-.9-1.38,1.14,1.14,0,0,1,.53-1,1.72,1.72,0,0,1,.83-.14H4.89c1,0,1.08,0,1.09-.54v0H6.2V9.94H3.56c-.45,0-.57,0-.72.12a.7.7,0,0,0-.28.58,1.2,1.2,0,0,0,.48.89,1.29,1.29,0,0,0,1,.27h.86c1,0,1.08,0,1.08-.55v-.08h.22v1.26Z"/><path class="cls-1" d="M6,17.63v-.75H3.73c-1,0-1.08,0-1.08.55v.18H2.43V15.68h.22v.06c0,.52.06.54,1.09.53H6v-.67h.22v.68h.34a2.45,2.45,0,0,1,1.57.3,1.41,1.41,0,0,1,.69,1.24c0,.62-.32,1.15-.7,1.15a.31.31,0,0,1-.3-.3c0-.17.09-.27.37-.43s.42-.31.42-.55A.75.75,0,0,0,8,17a4.56,4.56,0,0,0-1.5-.07H6.24v.75Z"/><path class="cls-1" d="M3.75,20.06c-1,0-1.08,0-1.09.54v.11H2.45V18.78h.21v.11c0,.27,0,.41.18.48a.55.55,0,0,0,.31.05h.6l3.77,0c.75,0,.91-.08.91-.55V18.8h.22a3.36,3.36,0,0,0,.21,1.14V20Z"/><path class="cls-1" d="M3.76,22.3c-1,0-1.08,0-1.08.54v.09H2.46V21h.22v.14c0,.27,0,.4.18.48a.55.55,0,0,0,.31.05,1.39,1.39,0,0,0,.3,0H4.91c1,0,1-.05,1-.57V21h.22a6,6,0,0,0,.25,1.22v.09Zm4.61,0a.46.46,0,1,1,0-.92.46.46,0,1,1,0,.92Z"/><path class="cls-1" d="M3.4,26.73a1.43,1.43,0,0,1-1.08-1.49,1.85,1.85,0,0,1,2-1.83A2,2,0,0,1,6.43,25.3c0,.66-.34,1.25-.73,1.25a.28.28,0,0,1-.32-.27c0-.23.09-.31.41-.38s.43-.21.43-.59c0-.79-.58-1.18-1.72-1.17A3.05,3.05,0,0,0,3,24.48a1.1,1.1,0,0,0-.45.95,1.06,1.06,0,0,0,.83,1.1Z"/><path class="cls-1" d="M6.31,30.72H6.09v0a1.82,1.82,0,0,0-.63-1l-.35-.39L4.88,29,3.3,30.28c-.42.35-.55.51-.58.77v0H2.5V29.3h.22v.05c0,.27.07.4.2.4s.13,0,.45-.3l1.13-.92-.15-.19H3.79c-1,0-1.07,0-1.08.51v0H2.49V27H2.7v.14c0,.26,0,.39.18.47a.69.69,0,0,0,.31.05h.6l3.82,0c.7,0,.86-.09.86-.53v-.06h.22a3.56,3.56,0,0,0,.2,1.12v.1l-4.3,0,.29.37a6,6,0,0,0,.68.76.51.51,0,0,0,.32.16q.21,0,.21-.27v-.07H6.3Z"/><path class="cls-1" d="M5,31.91H4.56a3,3,0,0,0-1.46.29,1,1,0,0,0-.49.9,1.16,1.16,0,0,0,.76,1.13v.21a1.48,1.48,0,0,1-1-1.46,1.87,1.87,0,0,1,2-1.8,1.89,1.89,0,0,1,2.1,1.74A1.46,1.46,0,0,1,5,34.42Zm.2,1.74a.46.46,0,0,0,.2,0,.77.77,0,0,0,.85-.78.91.91,0,0,0-.42-.76,1.35,1.35,0,0,0-.64-.19Z"/><path class="cls-1" d="M6.21,35a6.66,6.66,0,0,0,.28,1.08,3.65,3.65,0,0,1-1,.15,1.41,1.41,0,0,1,1,1.14.62.62,0,0,1-.58.62.31.31,0,0,1-.33-.29c0-.16.09-.25.34-.34s.23-.13.23-.24a1,1,0,0,0-.5-.63,1.76,1.76,0,0,0-1.15-.22H3.83c-1,0-1.08,0-1.08.53v.13H2.53V35h.22v.09c0,.53.06.55,1.09.53H4.91c1,0,1.08,0,1.09-.54V35Z"/><path class="cls-1" d="M6.15,41.63H3.85a1.9,1.9,0,0,0-.82.09.5.5,0,0,0-.3.45.64.64,0,0,0,.38.55L3,42.87a1.05,1.05,0,0,1-.62-.94.91.91,0,0,1,.47-.79A2.4,2.4,0,0,1,4,41H6.15v-.51h.22c0,.51.52.93,1.2,1v.14H6.37v1.09H6.15Z"/><path class="cls-1" d="M5.76,44.46a1.52,1.52,0,0,1,.78,1.3A1.17,1.17,0,0,1,6,46.81,2.07,2.07,0,0,1,4.94,47H3.89c-1,0-1.08,0-1.09.54v.08H2.58V45.74h.21v.08c0,.52.06.54,1.09.53H5a1.71,1.71,0,0,0,.91-.14.73.73,0,0,0,.31-.65,1.26,1.26,0,0,0-.84-1.09H3.87c-1,0-1.07,0-1.08.54v0H2.57V43.22h.22v.09c0,.27.05.4.18.48a.6.6,0,0,0,.32,0H7.67c.72,0,.88-.09.88-.55v-.06h.22A3.64,3.64,0,0,0,9,44.35v.09Z"/><path class="cls-1" d="M6.28,48a6.41,6.41,0,0,0,.28,1.08,3.3,3.3,0,0,1-1,.15,1.38,1.38,0,0,1,1,1.15A.61.61,0,0,1,6,51a.31.31,0,0,1-.33-.3c0-.16.09-.25.34-.34s.23-.12.23-.23a1,1,0,0,0-.5-.63,1.78,1.78,0,0,0-1.15-.23H3.9c-1,0-1.08,0-1.09.54V50H2.6V48h.22v.09c0,.53.06.54,1.09.53H5c1,0,1.08,0,1.1-.54V48Z"/><path class="cls-1" d="M4.53,55.21a1.93,1.93,0,0,1-2.07-1.9,2.06,2.06,0,0,1,.45-1.26,2.13,2.13,0,0,1,1.63-.67,1.92,1.92,0,1,1,0,3.83Zm0-3.1c-1.28,0-1.84.37-1.84,1.19s.57,1.19,1.82,1.18,1.87-.38,1.87-1.19S5.76,52.1,4.51,52.11Z"/><path class="cls-1" d="M4,59.47c-1,0-1.08,0-1.09.52v0H2.65a2.35,2.35,0,0,0-.16-1v0a2,2,0,0,1,.89-.16,1.63,1.63,0,0,1-.89-1.37,1.14,1.14,0,0,1,.52-1,1.87,1.87,0,0,1,.83-.13h1.3c1,0,1.08,0,1.08-.54v-.06h.22V57H3.81c-.46,0-.58,0-.73.12a.71.71,0,0,0-.28.57,1.2,1.2,0,0,0,.48.9,1.29,1.29,0,0,0,1,.27h.86c1,0,1.08,0,1.08-.54V58.2h.22v1.25Z"/><path class="cls-1" d="M6.6,64a.43.43,0,0,1-.39.45A.26.26,0,0,1,6.09,64c.15-.09.17-.12.17-.21A.53.53,0,0,0,6,63.39a1.52,1.52,0,0,1-.8.23A1.36,1.36,0,0,1,4,62.93a1.8,1.8,0,0,1-.22-1c0-.65-.16-.93-.42-.93s-.21.1-.27.33a6.11,6.11,0,0,0-.08.89,2.72,2.72,0,0,1-.29,1.35,1.24,1.24,0,0,1-1,.49c-.86,0-1.38-.69-1.39-1.82s.48-1.82,1.18-1.82a.55.55,0,0,1,.64.54.53.53,0,0,1,0,.12,1,1,0,0,0-.68-.27c-.57,0-.94.57-.94,1.45s.39,1.36,1,1.36a.73.73,0,0,0,.71-.45,2.46,2.46,0,0,0,.16-1c0-1.09.25-1.51.75-1.51s.67.28.77.8a1.61,1.61,0,0,1,1.35-.85A1.42,1.42,0,0,1,6.62,62.1a1.57,1.57,0,0,1-.47,1.18A1.07,1.07,0,0,1,6.6,64ZM5.15,61.31c-.77,0-1.19.29-1.18.82s.43.82,1.22.81A1.72,1.72,0,0,0,6,62.8a.8.8,0,0,0,.44-.7C6.4,61.59,6,61.3,5.15,61.31Z"/><path class="cls-1" d="M5.87,65.82a1.55,1.55,0,0,1,.78,1.31,1.15,1.15,0,0,1-.51,1,2,2,0,0,1-1.09.17H4c-1,0-1.08,0-1.09.54V69H2.69V67.1H2.9v.08c0,.53.06.55,1.09.53H5.14a1.82,1.82,0,0,0,.91-.14.74.74,0,0,0,.31-.66,1.24,1.24,0,0,0-.84-1.08H4c-1,0-1.08,0-1.09.55v0H2.68V64.58h.22v.09c0,.27,0,.39.18.47s.13,0,.32,0H4l3.8,0c.72,0,.88-.09.88-.54v-.06h.22a3.71,3.71,0,0,0,.2,1.15v.09Z"/><path class="cls-1" d="M6.31,72.79H4a1.9,1.9,0,0,0-.82.09.49.49,0,0,0-.3.45c0,.22.12.38.38.55L3.19,74a1,1,0,0,1-.62-.94A.88.88,0,0,1,3,72.3a2.4,2.4,0,0,1,1.12-.14H6.31v-.52h.22c0,.51.52.93,1.2,1v.14H6.53v1.09H6.32Z"/><path class="cls-1" d="M4,75.68c-1,0-1.08,0-1.09.54v.09H2.73V74.37h.22v.14c0,.27,0,.4.18.48a.62.62,0,0,0,.32.05H5.19c1,0,1-.05,1-.57v-.12h.22a6.74,6.74,0,0,0,.25,1.22v.09Zm4.6,0a.46.46,0,1,1,.49-.46A.47.47,0,0,1,8.64,75.72Z"/><path class="cls-1" d="M6.7,77.77a2.08,2.08,0,0,1-.8.14,1.67,1.67,0,0,1,.81,1.36,1.07,1.07,0,0,1-.84,1.12c.63.51.85.87.86,1.39a1.17,1.17,0,0,1-.43.94c-.22.16-.36.19-1.08.19H4.07c-1,0-1.08,0-1.08.53v.06H2.77v-1.8H3v0c0,.53.06.55,1.09.53H5.34c.48,0,.64,0,.79-.15a.66.66,0,0,0,.26-.57c0-.4-.26-.74-.83-1.14H4.06c-1,0-1.07,0-1.09.5v0H2.76V79.21H3v.06c0,.53.06.54,1.09.53H5.12a1.93,1.93,0,0,0,.89-.1A.7.7,0,0,0,6.39,79a1.21,1.21,0,0,0-.34-.76l-.41-.36H4.05c-1,0-1.07,0-1.09.52v0H2.74V76.72H3v0c0,.53.06.55,1.09.53H5.19c1,0,1.07,0,1.08-.54v0h.22a5.33,5.33,0,0,0,.21,1Z"/><path class="cls-1" d="M5.29,84.78H4.83a3,3,0,0,0-1.46.29,1,1,0,0,0-.49.9,1.18,1.18,0,0,0,.76,1.13v.21a1.49,1.49,0,0,1-1-1.47,1.87,1.87,0,0,1,2-1.79,1.89,1.89,0,0,1,2.1,1.74,1.48,1.48,0,0,1-1.44,1.51Zm.2,1.74h.2a.78.78,0,0,0,.86-.78A.92.92,0,0,0,6.12,85a1.31,1.31,0,0,0-.64-.19Z"/></g></g></svg>