<svg xmlns="http://www.w3.org/2000/svg" height= "400px" width= "auto" viewBox="0 0 8.75 188.44"><defs><style>.cls-1{fill:#f7f2ed;}.cls-2{fill:none;}</style></defs><title>redominutes</title><g id="Layer_2" data-name="Layer 2"><g id="Layer_1-2" data-name="Layer 1"><path class="cls-1" d="M3.05,3.78c-.5,0-.8-.29-.8-.74s.21-.62.66-.7A2.53,2.53,0,0,1,2.25.89.83.83,0,0,1,3.07,0c.56,0,1,.48,1.53,1.66l.29.68h.19a1.35,1.35,0,0,0,.62-.07.75.75,0,0,0,.41-.75A.77.77,0,0,0,5.9.89C5.82.81,5.79.8,5.59.77S5.17.6,5.17.41A.26.26,0,0,1,5.44.14.77.77,0,0,1,6,.46a1.73,1.73,0,0,1,.34,1.15,1.32,1.32,0,0,1-.56,1.24A1.28,1.28,0,0,1,5,3H3.43a2.11,2.11,0,0,0-.64,0,.27.27,0,0,0-.2.24c0,.19.16.33.46.37ZM4.47,1.86C4.14,1.12,3.74.73,3.25.73s-.66.22-.66.52a2,2,0,0,0,.58,1.09h1.5Z"/><path class="cls-1" d="M3.47,4.34v.17a1.89,1.89,0,0,0-.74.34,1,1,0,0,0-.34.72.65.65,0,0,0,.68.66A.77.77,0,0,0,3.63,6,2.22,2.22,0,0,0,4,5.36a2,2,0,0,1,.59-.81,1.12,1.12,0,0,1,.63-.2,1,1,0,0,1,1.06,1,1,1,0,0,1-.4.79,1.48,1.48,0,0,0,.33.17v.16H5.07V6.27c.62-.13,1-.51,1-.94a.58.58,0,0,0-.58-.59A.76.76,0,0,0,5,5a3.53,3.53,0,0,0-.33.58,2.05,2.05,0,0,1-.52.79,1.31,1.31,0,0,1-.84.29A1.07,1.07,0,0,1,2.19,5.58a1.1,1.1,0,0,1,.43-.88,1.06,1.06,0,0,0-.4-.19V4.34Z"/><path class="cls-1" d="M5.94,10.59H3.64a1.9,1.9,0,0,0-.82.09.49.49,0,0,0-.3.45.66.66,0,0,0,.38.55l-.09.14a1,1,0,0,1-.62-.94.9.9,0,0,1,.48-.79A2.29,2.29,0,0,1,3.78,10H5.94V9.44h.22c0,.51.51.93,1.19,1v.14H6.16v1.09H5.94Z"/><path class="cls-1" d="M5.53,13.45a1.53,1.53,0,0,1,.78,1.3A1.17,1.17,0,0,1,5.8,15.8,2.15,2.15,0,0,1,4.7,16H3.65c-1,0-1.08,0-1.09.54v.07H2.35V14.71h.21v.08c0,.53.06.54,1.09.54H4.8a1.66,1.66,0,0,0,.9-.14A.73.73,0,0,0,6,14.54a1.28,1.28,0,0,0-.85-1.09H3.65c-1,0-1.08,0-1.09.53v0H2.35V12.19h.21v.09c0,.26,0,.39.18.47a.62.62,0,0,0,.32.05h4.4c.71,0,.87-.08.87-.53v-.07h.22a3.71,3.71,0,0,0,.2,1.15v.09Z"/><path class="cls-1" d="M4.86,17.84H4.4a3.06,3.06,0,0,0-1.46.28,1,1,0,0,0-.5.9,1.18,1.18,0,0,0,.76,1.13v.21a1.49,1.49,0,0,1-1-1.47,1.88,1.88,0,0,1,2-1.79,1.89,1.89,0,0,1,2.09,1.75,1.47,1.47,0,0,1-1.45,1.51Zm.19,1.74a.75.75,0,0,0,.2,0,.78.78,0,0,0,.86-.78.92.92,0,0,0-.42-.77,1.47,1.47,0,0,0-.64-.19Z"/><path class="cls-1" d="M5.18,26.07c.45.19.45.19.52.19s.24-.17.24-.42v-.07h.22V27H5.94V27c0-.36-.17-.48-.83-.72L1,24.66c-.75-.3-1-.49-1-.79a.26.26,0,0,1,.27-.28c.23,0,.38.12.54.45s.21.41.53.54l.91.34,3.08-1.36c.51-.22.59-.3.61-.63v-.07h.22v1.66H5.94v-.05c0-.27-.06-.39-.19-.39s-.06,0-.45.17l-2.23,1Z"/><path class="cls-1" d="M4.86,28,4.4,28a3,3,0,0,0-1.46.29,1,1,0,0,0-.5.89,1.2,1.2,0,0,0,.76,1.14v.2a1.47,1.47,0,0,1-1-1.46,1.88,1.88,0,0,1,2-1.79A1.89,1.89,0,0,1,6.31,29a1.46,1.46,0,0,1-1.45,1.5Zm.19,1.74h.2A.78.78,0,0,0,6.11,29a.92.92,0,0,0-.42-.77A1.35,1.35,0,0,0,5.05,28Z"/><path class="cls-1" d="M3.05,34.92a.73.73,0,0,1-.8-.74c0-.4.21-.62.66-.7A2.59,2.59,0,0,1,2.25,32a.82.82,0,0,1,.82-.89c.56,0,1,.48,1.53,1.66l.29.68h.19a1.35,1.35,0,0,0,.62-.07.77.77,0,0,0,.41-.75A.81.81,0,0,0,5.9,32c-.08-.07-.11-.08-.31-.11s-.42-.17-.42-.36a.26.26,0,0,1,.27-.27.79.79,0,0,1,.53.31,1.76,1.76,0,0,1,.34,1.16A1.33,1.33,0,0,1,5.75,34c-.19.11-.31.12-.77.12H3.43c-.53,0-.53,0-.64,0a.26.26,0,0,0-.2.24c0,.19.16.32.46.37ZM4.47,33c-.33-.75-.73-1.13-1.22-1.13s-.66.21-.66.52a2,2,0,0,0,.58,1.09h1.5Z"/><path class="cls-1" d="M6,35.25a6.49,6.49,0,0,0,.27,1.08,3.33,3.33,0,0,1-1,.14,1.41,1.41,0,0,1,1,1.15.6.6,0,0,1-.58.62A.31.31,0,0,1,5.4,38c0-.16.1-.25.34-.34s.24-.13.24-.23a1,1,0,0,0-.5-.64,1.75,1.75,0,0,0-1.15-.23H3.65c-1,0-1.08,0-1.09.53v.12H2.35V35.25h.21v.09c0,.52.06.54,1.09.53H4.73c1,0,1.08,0,1.1-.53v-.09Z"/><path class="cls-1" d="M2.19,44.64l3-1.07-3-1.09v-.2l3-1.1.31-.11c.31-.1.4-.22.41-.48v-.06h.22v1.64H5.94v-.06c0-.29-.06-.42-.23-.42s-.15,0-.54.18l-2,.72,3,1.12v.17L3.12,45l2.16.8c.36.13.36.13.42.13s.23-.12.24-.36v-.09h.22v1.17H5.94v-.07c-.05-.32-.1-.37-.72-.58l-3-1.12Z"/><path class="cls-1" d="M4.86,47.54l-.46,0a3,3,0,0,0-1.46.29,1,1,0,0,0-.5.89,1.2,1.2,0,0,0,.76,1.14V50a1.47,1.47,0,0,1-1-1.46,1.88,1.88,0,0,1,2-1.79,1.89,1.89,0,0,1,2.09,1.75A1.46,1.46,0,0,1,4.86,50Zm.19,1.73a.75.75,0,0,0,.2,0,.78.78,0,0,0,.86-.78.91.91,0,0,0-.42-.76,1.35,1.35,0,0,0-.64-.19Z"/><path class="cls-1" d="M3.05,54.48a.72.72,0,0,1-.8-.74c0-.39.21-.62.66-.7a2.54,2.54,0,0,1-.66-1.44.83.83,0,0,1,.82-.9c.56,0,1,.48,1.53,1.66l.29.68h.19c.39,0,.49,0,.62-.07a.75.75,0,0,0,.41-.75.78.78,0,0,0-.21-.63c-.08-.08-.11-.08-.31-.12s-.42-.17-.42-.36a.26.26,0,0,1,.27-.27.77.77,0,0,1,.53.32,1.73,1.73,0,0,1,.34,1.15,1.32,1.32,0,0,1-.56,1.24,1.28,1.28,0,0,1-.77.13H3.43a2.11,2.11,0,0,0-.64,0,.27.27,0,0,0-.2.25c0,.18.16.32.46.36Zm1.42-1.92c-.33-.74-.73-1.13-1.22-1.13s-.66.22-.66.52A2,2,0,0,0,3.17,53h1.5Z"/><path class="cls-1" d="M6,54.85a6.49,6.49,0,0,0,.27,1.08,3.33,3.33,0,0,1-1,.14,1.41,1.41,0,0,1,1,1.16.6.6,0,0,1-.58.61.31.31,0,0,1-.33-.29c0-.16.1-.25.34-.34S6,57.08,6,57a1,1,0,0,0-.5-.64,1.75,1.75,0,0,0-1.15-.23H3.65c-1,0-1.08,0-1.09.53v.12H2.35V54.85h.21v.09c0,.52.06.54,1.09.53H4.73c1,0,1.08,0,1.1-.53v-.09Z"/><path class="cls-1" d="M3.47,58.34v.17a1.76,1.76,0,0,0-.74.35,1,1,0,0,0-.34.71.65.65,0,0,0,.68.66A.77.77,0,0,0,3.63,60a2.22,2.22,0,0,0,.4-.63,2,2,0,0,1,.59-.81,1.12,1.12,0,0,1,.63-.2,1,1,0,0,1,1.06,1,1,1,0,0,1-.4.79,1.48,1.48,0,0,0,.33.17v.16H5.07v-.16c.62-.13,1-.51,1-.94a.58.58,0,0,0-.58-.59A.76.76,0,0,0,5,59a3.53,3.53,0,0,0-.33.58,2.05,2.05,0,0,1-.52.79,1.31,1.31,0,0,1-.84.29,1.07,1.07,0,0,1-1.12-1.09,1.1,1.1,0,0,1,.43-.88,1.06,1.06,0,0,0-.4-.19v-.17Z"/><path class="cls-1" d="M4.25,67.38a1.94,1.94,0,0,1-2.06-1.92,2.05,2.05,0,0,1,.46-1.26,2.14,2.14,0,0,1,1.64-.66,1.92,1.92,0,1,1,0,3.84Zm0-3.1c-1.28,0-1.85.35-1.85,1.18S3,66.65,4.22,66.65s1.87-.38,1.87-1.19S5.5,64.28,4.25,64.28Z"/><path class="cls-1" d="M6.31,69.07a3.57,3.57,0,0,1-.79.12,1.75,1.75,0,0,1,.79,1.38,1.09,1.09,0,0,1-.49,1,1.76,1.76,0,0,1-1,.15H3.65c-1,0-1.08,0-1.09.53v.06H2.35V70.45h.21v.09c0,.27,0,.39.18.47a.71.71,0,0,0,.32.06H4.88c.55,0,.64,0,.81-.12A.7.7,0,0,0,6,70.34a1.42,1.42,0,0,0-.81-1.15H3.65c-1,0-1.08,0-1.09.53v.06H2.35V68h.21V68c0,.52.06.54,1.09.53H4.79c1,0,1.08,0,1.09-.53V68h.21a5.86,5.86,0,0,0,.22,1Z"/><path class="cls-2" d="M3.05,78.85c-.5,0-.8-.29-.8-.74s.21-.62.66-.7A2.53,2.53,0,0,1,2.25,76a.83.83,0,0,1,.82-.89c.56,0,1,.48,1.53,1.66l.29.68h.19a1.35,1.35,0,0,0,.62-.07.75.75,0,0,0,.41-.75A.77.77,0,0,0,5.9,76c-.08-.08-.11-.08-.31-.12s-.42-.17-.42-.36a.26.26,0,0,1,.27-.27.77.77,0,0,1,.53.32,1.73,1.73,0,0,1,.34,1.15,1.32,1.32,0,0,1-.56,1.24,1.28,1.28,0,0,1-.77.13H3.43a2.11,2.11,0,0,0-.64,0,.27.27,0,0,0-.2.25c0,.18.16.32.46.36Zm1.42-1.92c-.33-.74-.73-1.13-1.22-1.13s-.66.22-.66.52a2,2,0,0,0,.58,1.09h1.5Z"/><path class="cls-2" d="M3.47,79.43v.17a1.76,1.76,0,0,0-.74.35,1,1,0,0,0-.34.71.65.65,0,0,0,.68.66.77.77,0,0,0,.56-.24,2.22,2.22,0,0,0,.4-.63,2,2,0,0,1,.59-.81,1.12,1.12,0,0,1,.63-.2,1,1,0,0,1,1.06,1,1,1,0,0,1-.4.79,1.48,1.48,0,0,0,.33.17v.16H5.07v-.16c.62-.13,1-.51,1-.94a.58.58,0,0,0-.58-.59A.76.76,0,0,0,5,80.1a3.53,3.53,0,0,0-.33.58,2.05,2.05,0,0,1-.52.79,1.31,1.31,0,0,1-.84.29,1.07,1.07,0,0,1-1.12-1.09,1.1,1.1,0,0,1,.43-.88,1.06,1.06,0,0,0-.4-.19v-.17Z"/><path class="cls-2" d="M5.94,85.69H3.64a1.9,1.9,0,0,0-.82.09.49.49,0,0,0-.3.45.66.66,0,0,0,.38.55l-.09.14A1,1,0,0,1,2.19,86a.89.89,0,0,1,.48-.79c.22-.12.4-.13,1.11-.13H5.94v-.52h.22c0,.51.51.93,1.19,1v.14H6.16v1.09H5.94Z"/><path class="cls-2" d="M5.53,88.52a1.52,1.52,0,0,1,.78,1.3,1.17,1.17,0,0,1-.51,1.05A2.15,2.15,0,0,1,4.7,91H3.65c-1,0-1.08,0-1.09.54v.07H2.35V89.78h.21v.08c0,.53.06.54,1.09.54H4.8a1.66,1.66,0,0,0,.9-.14A.74.74,0,0,0,6,89.61a1.28,1.28,0,0,0-.85-1.09H3.65c-1,0-1.08,0-1.09.53v0H2.35V87.26h.21v.09c0,.26,0,.39.18.47a.62.62,0,0,0,.32.05h4.4c.71,0,.87-.08.87-.53v-.07h.22a3.71,3.71,0,0,0,.2,1.15v.09Z"/><path class="cls-2" d="M4.86,92.94l-.46,0a3,3,0,0,0-1.46.29,1,1,0,0,0-.5.89,1.2,1.2,0,0,0,.76,1.14v.2a1.48,1.48,0,0,1-1-1.46,1.88,1.88,0,0,1,2-1.79,1.89,1.89,0,0,1,2.09,1.75,1.46,1.46,0,0,1-1.45,1.5Zm.19,1.73a.75.75,0,0,0,.2,0,.78.78,0,0,0,.86-.78.94.94,0,0,0-.42-.77A1.49,1.49,0,0,0,5.05,93Z"/><path class="cls-2" d="M5.18,101.16c.45.18.45.18.52.18s.24-.17.24-.42v-.07h.22v1.27H5.94v0c0-.37-.17-.49-.83-.73L1,99.74c-.75-.29-1-.49-1-.78a.27.27,0,0,1,.27-.29c.23,0,.38.12.54.46s.21.4.53.53l.91.34,3.08-1.36c.51-.22.59-.3.61-.62V98h.22V99.6H5.94v0c0-.27-.06-.39-.19-.39s-.06,0-.45.17l-2.23,1Z"/><path class="cls-2" d="M4.86,103.05l-.46,0a3,3,0,0,0-1.46.29,1,1,0,0,0-.5.89,1.2,1.2,0,0,0,.76,1.14v.2a1.47,1.47,0,0,1-1-1.46,1.88,1.88,0,0,1,2-1.79,1.89,1.89,0,0,1,2.09,1.75,1.46,1.46,0,0,1-1.45,1.5Zm.19,1.73a.75.75,0,0,0,.2,0,.78.78,0,0,0,.86-.78.91.91,0,0,0-.42-.76,1.35,1.35,0,0,0-.64-.19Z"/><path class="cls-2" d="M3.05,110a.73.73,0,0,1-.8-.74c0-.4.21-.62.66-.7a2.56,2.56,0,0,1-.66-1.45.82.82,0,0,1,.82-.89c.56,0,1,.48,1.53,1.66l.29.68h.19a1.35,1.35,0,0,0,.62-.07.76.76,0,0,0,.41-.75.81.81,0,0,0-.21-.64c-.08-.07-.11-.08-.31-.11s-.42-.17-.42-.36a.26.26,0,0,1,.27-.27.79.79,0,0,1,.53.31,1.78,1.78,0,0,1,.34,1.16,1.32,1.32,0,0,1-.56,1.24c-.19.11-.31.12-.77.12H3.43c-.53,0-.53,0-.64,0a.26.26,0,0,0-.2.24c0,.19.16.32.46.37Zm1.42-1.92c-.33-.74-.73-1.13-1.22-1.13s-.66.22-.66.52a2,2,0,0,0,.58,1.09h1.5Z"/><path class="cls-2" d="M6,110.35a6.26,6.26,0,0,0,.27,1.08,3.29,3.29,0,0,1-1,.15,1.38,1.38,0,0,1,1,1.15.61.61,0,0,1-.58.62.31.31,0,0,1-.33-.3c0-.16.1-.25.34-.34s.24-.12.24-.23a1,1,0,0,0-.5-.64,1.82,1.82,0,0,0-1.15-.23H3.65c-1,0-1.08,0-1.09.53v.12H2.35v-1.91h.21v.09c0,.53.06.55,1.09.54H4.73c1,0,1.08,0,1.1-.54v-.09Z"/><path class="cls-2" d="M2.19,119.71l3-1.07-3-1.09v-.2l3-1.1.31-.11c.31-.1.4-.22.41-.48v-.06h.22v1.65H5.94v-.07c0-.29-.06-.42-.23-.42s-.15,0-.54.18l-2,.73,3,1.11V119l-3,1.09,2.16.79c.36.13.36.13.42.13s.23-.12.24-.36v-.09h.22v1.17H5.94v-.07c-.05-.32-.1-.37-.72-.58l-3-1.12Z"/><path class="cls-2" d="M4.86,122.64l-.46,0a3.06,3.06,0,0,0-1.46.28,1,1,0,0,0-.5.9,1.18,1.18,0,0,0,.76,1.13v.21a1.49,1.49,0,0,1-1-1.47,1.88,1.88,0,0,1,2-1.79,1.9,1.9,0,0,1,2.09,1.76,1.47,1.47,0,0,1-1.45,1.5Zm.19,1.73a.75.75,0,0,0,.2,0,.78.78,0,0,0,.86-.78.94.94,0,0,0-.42-.77,1.47,1.47,0,0,0-.64-.19Z"/><path class="cls-2" d="M3.05,129.59a.73.73,0,0,1-.8-.75c0-.39.21-.61.66-.69a2.59,2.59,0,0,1-.66-1.45.83.83,0,0,1,.82-.9c.56,0,1,.49,1.53,1.67l.29.68h.19a1.35,1.35,0,0,0,.62-.07.77.77,0,0,0,.41-.75.81.81,0,0,0-.21-.64c-.08-.07-.11-.08-.31-.12s-.42-.17-.42-.35a.25.25,0,0,1,.27-.27.75.75,0,0,1,.53.31,1.75,1.75,0,0,1,.34,1.15,1.35,1.35,0,0,1-.56,1.25,1.39,1.39,0,0,1-.77.12H3.43c-.53,0-.53,0-.64,0a.25.25,0,0,0-.2.24c0,.19.16.32.46.37Zm1.42-1.92c-.33-.75-.73-1.13-1.22-1.13s-.66.21-.66.52a2,2,0,0,0,.58,1.09h1.5Z"/><path class="cls-2" d="M6,129.94A6.49,6.49,0,0,0,6.31,131a3.33,3.33,0,0,1-1,.14,1.41,1.41,0,0,1,1,1.15.6.6,0,0,1-.58.62.31.31,0,0,1-.33-.29c0-.16.1-.25.34-.34s.24-.13.24-.24-.22-.45-.5-.63a1.75,1.75,0,0,0-1.15-.23H3.65c-1,0-1.08,0-1.09.52v.13H2.35v-1.91h.21V130c0,.52.06.54,1.09.53H4.73c1,0,1.08,0,1.1-.53v-.09Z"/><path class="cls-2" d="M3.47,133.43v.17a2,2,0,0,0-.74.35,1,1,0,0,0-.34.72.65.65,0,0,0,.68.66.75.75,0,0,0,.56-.25,2.06,2.06,0,0,0,.4-.63,2,2,0,0,1,.59-.8,1.06,1.06,0,0,1,.63-.21,1,1,0,0,1,1.06,1,1,1,0,0,1-.4.78,1.14,1.14,0,0,0,.33.17v.16H5.07v-.16c.62-.12,1-.51,1-.94a.58.58,0,0,0-.58-.59.76.76,0,0,0-.52.27,3.53,3.53,0,0,0-.33.58,2.05,2.05,0,0,1-.52.79,1.26,1.26,0,0,1-.84.29,1.06,1.06,0,0,1-1.12-1.09,1.08,1.08,0,0,1,.43-.87,1.06,1.06,0,0,0-.4-.2v-.17Z"/><path class="cls-2" d="M4.25,142.48a1.94,1.94,0,0,1-2.06-1.91,2,2,0,0,1,.46-1.26,2.14,2.14,0,0,1,1.64-.67,1.92,1.92,0,1,1,0,3.84Zm0-3.1c-1.28,0-1.85.36-1.85,1.18s.57,1.19,1.82,1.19,1.87-.38,1.87-1.18S5.5,139.38,4.25,139.38Z"/><path class="cls-2" d="M6.31,144.17a4.4,4.4,0,0,1-.79.11,1.77,1.77,0,0,1,.79,1.39,1.09,1.09,0,0,1-.49,1c-.23.13-.37.15-1,.15H3.65c-1,0-1.08,0-1.09.53v.06H2.35v-1.85h.21v.09c0,.27,0,.39.18.48a1,1,0,0,0,.32,0H4.88c.55,0,.64,0,.81-.12a.69.69,0,0,0,.33-.62,1.42,1.42,0,0,0-.81-1.15H3.65c-1,0-1.08,0-1.09.54v.05H2.35v-1.81h.21v.06c0,.53.06.54,1.09.54H4.79c1,0,1.08,0,1.09-.54v-.06h.21a6,6,0,0,0,.22,1Z"/><path class="cls-2" d="M3.05,154a.72.72,0,0,1-.8-.74c0-.39.21-.62.66-.7a2.54,2.54,0,0,1-.66-1.44.83.83,0,0,1,.82-.9c.56,0,1,.49,1.53,1.66l.29.68h.19c.39,0,.49,0,.62-.07a.75.75,0,0,0,.41-.75.8.8,0,0,0-.21-.63c-.08-.07-.11-.08-.31-.12s-.42-.17-.42-.36a.25.25,0,0,1,.27-.26.75.75,0,0,1,.53.31,1.75,1.75,0,0,1,.34,1.15A1.32,1.32,0,0,1,5.75,153a1.28,1.28,0,0,1-.77.13H3.43c-.53,0-.53,0-.64,0a.25.25,0,0,0-.2.24c0,.18.16.32.46.36ZM4.47,152c-.33-.74-.73-1.12-1.22-1.12s-.66.21-.66.51a2,2,0,0,0,.58,1.09h1.5Z"/><path class="cls-2" d="M3.47,154.51v.17a2,2,0,0,0-.74.35,1,1,0,0,0-.34.72.65.65,0,0,0,.68.66.77.77,0,0,0,.56-.24,2.34,2.34,0,0,0,.4-.64,2,2,0,0,1,.59-.8,1.06,1.06,0,0,1,.63-.21,1,1,0,0,1,1.06,1,1,1,0,0,1-.4.78,1.14,1.14,0,0,0,.33.17v.16H5.07v-.16c.62-.12,1-.51,1-.94a.58.58,0,0,0-.58-.59.76.76,0,0,0-.52.27,3.53,3.53,0,0,0-.33.58,2.05,2.05,0,0,1-.52.79,1.27,1.27,0,0,1-.84.3,1.1,1.1,0,0,1-.69-2,1.23,1.23,0,0,0-.4-.2v-.17Z"/><path class="cls-2" d="M5.94,160.76H3.64a1.9,1.9,0,0,0-.82.09.49.49,0,0,0-.3.45.66.66,0,0,0,.38.55l-.09.14a1,1,0,0,1-.62-.94.9.9,0,0,1,.48-.79,2.29,2.29,0,0,1,1.11-.13H5.94v-.52h.22c0,.51.51.93,1.19,1v.14H6.16v1.09H5.94Z"/><path class="cls-2" d="M5.53,163.61a1.52,1.52,0,0,1,.78,1.3A1.17,1.17,0,0,1,5.8,166a2.15,2.15,0,0,1-1.1.16H3.65c-1,0-1.08,0-1.09.54v.07H2.35v-1.86h.21V165c0,.53.06.54,1.09.54H4.8a1.66,1.66,0,0,0,.9-.14A.74.74,0,0,0,6,164.7a1.28,1.28,0,0,0-.85-1.09H3.65c-1,0-1.08,0-1.09.53v0H2.35v-1.83h.21v.09c0,.26,0,.39.18.47a.62.62,0,0,0,.32.05h4.4c.71,0,.87-.08.87-.53v-.07h.22a3.71,3.71,0,0,0,.2,1.15v.09Z"/><path class="cls-2" d="M4.86,168l-.46,0a3,3,0,0,0-1.46.29,1,1,0,0,0-.5.89,1.2,1.2,0,0,0,.76,1.14v.2a1.48,1.48,0,0,1-1-1.46,1.88,1.88,0,0,1,2-1.79A1.89,1.89,0,0,1,6.31,169a1.46,1.46,0,0,1-1.45,1.5Zm.19,1.73a.75.75,0,0,0,.2,0,.78.78,0,0,0,.86-.78.94.94,0,0,0-.42-.77,1.49,1.49,0,0,0-.64-.18Z"/><path class="cls-2" d="M5.18,176.26c.45.19.45.19.52.19s.24-.17.24-.42V176h.22v1.26H5.94v0c0-.37-.17-.48-.83-.72L1,174.85c-.75-.3-1-.5-1-.79a.27.27,0,0,1,.27-.29c.23,0,.38.13.54.46s.21.4.53.54l.91.34,3.08-1.36c.51-.23.59-.31.61-.63v-.07h.22v1.65H5.94v0c0-.28-.06-.4-.19-.4s-.06,0-.45.17l-2.23,1Z"/><path class="cls-2" d="M4.86,178.14l-.46,0a3,3,0,0,0-1.46.29,1,1,0,0,0-.5.89,1.2,1.2,0,0,0,.76,1.14v.2a1.48,1.48,0,0,1-1-1.46,1.88,1.88,0,0,1,2-1.79,1.89,1.89,0,0,1,2.09,1.75,1.46,1.46,0,0,1-1.45,1.5Zm.19,1.73a.75.75,0,0,0,.2,0,.78.78,0,0,0,.86-.78.94.94,0,0,0-.42-.77,1.49,1.49,0,0,0-.64-.18Z"/><path class="cls-2" d="M3.05,185.11a.73.73,0,0,1-.8-.75c0-.39.21-.61.66-.69a2.59,2.59,0,0,1-.66-1.45.83.83,0,0,1,.82-.9c.56,0,1,.49,1.53,1.67l.29.68h.19a1.35,1.35,0,0,0,.62-.07.78.78,0,0,0,.41-.76.8.8,0,0,0-.21-.63c-.08-.07-.11-.08-.31-.12s-.42-.17-.42-.35a.25.25,0,0,1,.27-.27.75.75,0,0,1,.53.31,1.75,1.75,0,0,1,.34,1.15,1.35,1.35,0,0,1-.56,1.25,1.39,1.39,0,0,1-.77.12H3.43c-.53,0-.53,0-.64,0a.25.25,0,0,0-.2.24c0,.19.16.32.46.37Zm1.42-1.93c-.33-.74-.73-1.12-1.22-1.12s-.66.21-.66.52a2,2,0,0,0,.58,1.09h1.5Z"/><path class="cls-2" d="M6,185.45a6.49,6.49,0,0,0,.27,1.08,3.33,3.33,0,0,1-1,.14,1.41,1.41,0,0,1,1,1.16.6.6,0,0,1-.58.61.31.31,0,0,1-.33-.29c0-.16.1-.25.34-.34s.24-.13.24-.23a1,1,0,0,0-.5-.64,1.75,1.75,0,0,0-1.15-.23H3.65c-1,0-1.08,0-1.09.53v.12H2.35v-1.91h.21v.09c0,.52.06.54,1.09.53H4.73c1,0,1.08,0,1.1-.53v-.09Z"/></g></g></svg>