<svg xmlns="http://www.w3.org/2000/svg" height = "600px" width ="auto" viewBox="0 0 9.9 427.11"><title>waterdroplets</title><g id="Layer_2" data-name="Layer 2"><g id="Layer_1-2" data-name="Layer 1"><path d="M8.39,3.07c1,0,1.07,0,1.09-.53V2.45H9.7a4.16,4.16,0,0,0,.2,1.17v.09l-5.13,0c-1,0-1.08,0-1.1.53v.06H3.46a7.48,7.48,0,0,0-.12-1.14,3.42,3.42,0,0,1,.59-.05H4a1.9,1.9,0,0,1-.68-1.39A1.88,1.88,0,0,1,5.39,0,1.88,1.88,0,0,1,7.46,1.76a1.9,1.9,0,0,1-.56,1.3Zm-1.77,0a1.71,1.71,0,0,0,.55-1.17c0-.74-.62-1.15-1.75-1.16s-1.8.44-1.8,1.18a1.4,1.4,0,0,0,.67,1.14Z"/><path d="M7.18,4.65a7.66,7.66,0,0,0,.27,1.08,3.33,3.33,0,0,1-1,.14A1.41,1.41,0,0,1,7.45,7a.61.61,0,0,1-.58.61.31.31,0,0,1-.33-.29c0-.16.09-.25.34-.34s.24-.13.24-.23a1,1,0,0,0-.5-.64A1.81,1.81,0,0,0,5.47,5.9H4.79c-1,0-1.08,0-1.09.52v.13H3.48V4.64h.22v.09c0,.52,0,.54,1.08.54H5.87c1,0,1.08,0,1.1-.53V4.65Z"/><path d="M5.37,11.82A1.94,1.94,0,0,1,3.32,9.9a2.13,2.13,0,0,1,.46-1.26A2.15,2.15,0,0,1,5.42,8a1.92,1.92,0,1,1,0,3.84Zm0-3.11c-1.28,0-1.84.36-1.85,1.18s.57,1.19,1.81,1.19,1.88-.37,1.88-1.17S6.63,8.72,5.38,8.71Z"/><path d="M7.43,13.39a2.39,2.39,0,0,1-.62.08,1.73,1.73,0,0,1,.62,1.29,1.82,1.82,0,0,1-2,1.73,1.9,1.9,0,0,1-2.1-1.82,1.57,1.57,0,0,1,.57-1.21H2.43c-1,0-1.08,0-1.09.53V14H1.12V12.15h.22v.13c0,.52.06.54,1.09.54H5.89c1,0,1.08,0,1.1-.54v-.12h.22a9.57,9.57,0,0,0,.22,1.1Zm-3.24.07a1.33,1.33,0,0,0-.63,1.06,1.15,1.15,0,0,0,.41.84,2.25,2.25,0,0,0,1.47.4,1.78,1.78,0,0,0,1.45-.51,1,1,0,0,0,.26-.69,1.36,1.36,0,0,0-.65-1.1Z"/><path d="M8.3,38.1c1,0,1.07,0,1.09-.53v-.09h.22a4.21,4.21,0,0,0,.19,1.18v.08H4.67c-1,0-1.08,0-1.1.53v.05h-.2a8.85,8.85,0,0,0-.12-1.13,2.61,2.61,0,0,1,.58,0h.11a1.92,1.92,0,0,1-.69-1.39,1.88,1.88,0,0,1,2-1.71A1.89,1.89,0,0,1,7.37,36.8a1.93,1.93,0,0,1-.57,1.3Zm-1.77,0a1.69,1.69,0,0,0,.54-1.17c0-.74-.62-1.16-1.74-1.16s-1.8.44-1.81,1.18a1.44,1.44,0,0,0,.67,1.14Z"/><path d="M7.09,39.65a5.62,5.62,0,0,0,.27,1.08,3.35,3.35,0,0,1-1,.14,1.38,1.38,0,0,1,1,1.15.61.61,0,0,1-.58.62.31.31,0,0,1-.33-.3c0-.16.1-.25.34-.34s.24-.12.24-.23a1,1,0,0,0-.5-.63,1.73,1.73,0,0,0-1.14-.24H4.7c-1,0-1.08,0-1.09.52v.13H3.39V39.63h.21v.09c0,.53.06.55,1.09.54H5.78c1,0,1.08,0,1.1-.54v-.09Z"/><path d="M5.27,46.84a1.93,1.93,0,0,1-2-1.92,2,2,0,0,1,.46-1.26A2.11,2.11,0,0,1,5.33,43a1.92,1.92,0,1,1-.06,3.83Zm0-3.1c-1.28,0-1.85.35-1.85,1.17S4,46.1,5.25,46.11s1.87-.37,1.88-1.18S6.53,43.74,5.29,43.74Z"/><path d="M7.34,48.4a2.13,2.13,0,0,1-.63.08,1.73,1.73,0,0,1,.62,1.29,1.82,1.82,0,0,1-2,1.74,1.89,1.89,0,0,1-2.1-1.82,1.55,1.55,0,0,1,.57-1.22H2.33c-1,0-1.08,0-1.09.53v0H1V47.17h.22v.12c0,.53.05.55,1.08.54H5.8c1,0,1.07,0,1.1-.53v-.12h.21a8.08,8.08,0,0,0,.23,1.1Zm-3.25.07a1.33,1.33,0,0,0-.63,1.07,1.14,1.14,0,0,0,.42.84,2.29,2.29,0,0,0,1.46.4,1.73,1.73,0,0,0,1.45-.52,1,1,0,0,0,.27-.69,1.35,1.35,0,0,0-.65-1.09Z"/><path d="M8.21,70.91c1,0,1.07,0,1.09-.53v-.09h.22a4.53,4.53,0,0,0,.19,1.17v.09l-5.13,0c-1,0-1.07,0-1.1.54v.05h-.2A9,9,0,0,0,3.16,71a3.39,3.39,0,0,1,.58,0h.11a1.92,1.92,0,0,1-.69-1.39,1.9,1.9,0,0,1,2-1.71,1.79,1.79,0,0,1,1.51,3.07Zm-1.77,0A1.69,1.69,0,0,0,7,69.74c0-.75-.62-1.16-1.74-1.16s-1.8.44-1.8,1.17A1.42,1.42,0,0,0,4.1,70.9Z"/><path d="M7,72.46a6.49,6.49,0,0,0,.27,1.08,3.35,3.35,0,0,1-1,.14,1.39,1.39,0,0,1,1,1.16.6.6,0,0,1-.58.61.31.31,0,0,1-.33-.29c0-.16.1-.25.35-.34s.23-.13.23-.23a1,1,0,0,0-.5-.64,1.79,1.79,0,0,0-1.14-.24H4.61c-1,0-1.08,0-1.09.53v.12H3.3V72.45h.21v.09c0,.52.06.54,1.09.54H5.69c1,0,1.08,0,1.1-.53v-.09Z"/><path d="M5.19,79.63a1.94,1.94,0,0,1-2.05-1.92,2,2,0,0,1,.46-1.26,2.15,2.15,0,0,1,1.64-.66,1.92,1.92,0,1,1,0,3.84Zm0-3.11c-1.28,0-1.85.35-1.85,1.18s.56,1.19,1.81,1.19S7,78.52,7,77.72,6.44,76.53,5.2,76.52Z"/><path d="M7.25,81.21a2.53,2.53,0,0,1-.63.08,1.71,1.71,0,0,1,.62,1.29,1.8,1.8,0,0,1-2,1.73,1.88,1.88,0,0,1-2.1-1.82,1.54,1.54,0,0,1,.57-1.21H2.24c-1,0-1.08,0-1.09.54v0H.93V80h.22v.13c0,.53.05.54,1.08.54H5.71c1,0,1.07,0,1.1-.53V80H7a8.08,8.08,0,0,0,.23,1.1ZM4,81.28a1.33,1.33,0,0,0-.63,1.06,1.13,1.13,0,0,0,.42.84,2.23,2.23,0,0,0,1.46.4,1.76,1.76,0,0,0,1.45-.51A1,1,0,0,0,7,82.38a1.35,1.35,0,0,0-.65-1.09Z"/><path d="M8.13,101.45c1,0,1.07,0,1.09-.53v-.09h.21a4.56,4.56,0,0,0,.2,1.17v.09l-5.13,0c-1,0-1.08,0-1.1.54v0H3.19a6.4,6.4,0,0,0-.12-1.14,3.42,3.42,0,0,1,.59,0h.1a1.74,1.74,0,0,1,1.36-3.1,1.89,1.89,0,0,1,2.07,1.76,1.92,1.92,0,0,1-.56,1.31Zm-1.77,0a1.69,1.69,0,0,0,.54-1.17c0-.75-.62-1.16-1.75-1.16s-1.8.44-1.8,1.17A1.46,1.46,0,0,0,4,101.44Z"/><path d="M6.91,103a7.66,7.66,0,0,0,.27,1.08,3.22,3.22,0,0,1-1,.14,1.38,1.38,0,0,1,1,1.15.61.61,0,0,1-.58.62.31.31,0,0,1-.33-.3c0-.16.1-.25.34-.33s.24-.13.24-.24-.22-.45-.5-.63a1.73,1.73,0,0,0-1.14-.24H4.52c-1,0-1.07,0-1.09.52v.13H3.22V103h.22v.09c0,.53.06.55,1.09.54H5.6c1,0,1.08,0,1.1-.54V103Z"/><path d="M5.1,110.18a1.93,1.93,0,0,1-2-1.92A2.06,2.06,0,0,1,3.51,107a2.17,2.17,0,0,1,1.64-.66,1.92,1.92,0,1,1-.05,3.84Zm0-3.1c-1.27,0-1.84.35-1.85,1.17s.57,1.19,1.82,1.19S7,109.08,7,108.27,6.36,107.08,5.11,107.08Z"/><path d="M7.16,111.77a2.39,2.39,0,0,1-.62.08,1.73,1.73,0,0,1,.62,1.29,1.8,1.8,0,0,1-2,1.73A1.9,1.9,0,0,1,3,113.05a1.58,1.58,0,0,1,.58-1.21H2.16c-1,0-1.08,0-1.09.54v0H.85v-1.89h.21v.13c0,.53.06.54,1.09.54H5.62c1,0,1.08,0,1.1-.53v-.13h.22a9.57,9.57,0,0,0,.22,1.1Zm-3.24.07a1.33,1.33,0,0,0-.63,1.06,1.15,1.15,0,0,0,.41.84,2.28,2.28,0,0,0,1.47.4,1.78,1.78,0,0,0,1.45-.51,1,1,0,0,0,.26-.69,1.31,1.31,0,0,0-.64-1.09Z"/><path d="M8,132c1,0,1.07,0,1.09-.53v-.09h.22a4.53,4.53,0,0,0,.19,1.17v.09H4.42c-1,0-1.08,0-1.1.53v.05H3.11A7.35,7.35,0,0,0,3,132.08a2.61,2.61,0,0,1,.59-.06h.1A1.83,1.83,0,0,1,3,130.65a1.87,1.87,0,0,1,2-1.71,1.88,1.88,0,0,1,2.07,1.75A1.92,1.92,0,0,1,6.55,132Zm-1.77,0a1.71,1.71,0,0,0,.55-1.17c0-.74-.62-1.16-1.75-1.16s-1.8.44-1.8,1.17A1.42,1.42,0,0,0,3.94,132Z"/><path d="M6.83,133.55a7.66,7.66,0,0,0,.27,1.08,3.33,3.33,0,0,1-1,.14,1.41,1.41,0,0,1,1,1.16.61.61,0,0,1-.58.61.31.31,0,0,1-.33-.29c0-.16.09-.25.34-.34s.24-.13.24-.23a1,1,0,0,0-.5-.64,1.81,1.81,0,0,0-1.15-.24H4.44c-1,0-1.08,0-1.09.53v.12H3.13v-1.91h.22v.09c0,.52.05.54,1.08.54H5.52c1,0,1.08,0,1.1-.53v-.09Z"/><path d="M5,140.73a1.93,1.93,0,0,1-2-1.92,2.09,2.09,0,0,1,.46-1.26,2.11,2.11,0,0,1,1.64-.65A1.92,1.92,0,1,1,5,140.73Zm0-3.1c-1.28,0-1.85.35-1.85,1.17S3.75,140,5,140s1.88-.37,1.88-1.17S6.28,137.63,5,137.63Z"/><path d="M7.08,142.32a2,2,0,0,1-.62.08,1.76,1.76,0,0,1,.62,1.29,1.83,1.83,0,0,1-2,1.74A1.9,1.9,0,0,1,3,143.61a1.55,1.55,0,0,1,.57-1.22H2.08c-1,0-1.08,0-1.09.53V143H.77v-1.88H1v.12c0,.53.06.55,1.09.54H5.54c1,0,1.08,0,1.1-.53v-.13h.22a8.08,8.08,0,0,0,.22,1.1Zm-3.25.07a1.34,1.34,0,0,0-.62,1.06,1.17,1.17,0,0,0,.41.85,2.24,2.24,0,0,0,1.46.39,1.69,1.69,0,0,0,1.45-.51,1,1,0,0,0,.27-.69,1.33,1.33,0,0,0-.65-1.09Z"/><path d="M8,162.57c1,0,1.07,0,1.09-.53V162h.22a4.53,4.53,0,0,0,.19,1.17v.09l-5.13,0c-1,0-1.07,0-1.1.54v.05H3a9,9,0,0,0-.12-1.14,3.39,3.39,0,0,1,.58,0H3.6a1.92,1.92,0,0,1-.69-1.39,1.9,1.9,0,0,1,2-1.71A1.9,1.9,0,0,1,7,161.26a1.85,1.85,0,0,1-.57,1.3Zm-1.77,0a1.67,1.67,0,0,0,.54-1.17c0-.74-.62-1.15-1.74-1.15s-1.8.44-1.8,1.17a1.42,1.42,0,0,0,.66,1.15Z"/><path d="M6.75,164.11A6.49,6.49,0,0,0,7,165.19a3.35,3.35,0,0,1-1,.14,1.39,1.39,0,0,1,1,1.16.6.6,0,0,1-.58.61.31.31,0,0,1-.33-.29c0-.16.1-.25.35-.34s.23-.13.23-.23a1,1,0,0,0-.5-.64A1.79,1.79,0,0,0,5,165.36H4.36c-1,0-1.08,0-1.09.52V166H3.05V164.1h.21v.09c0,.52.06.54,1.09.54H5.44c1,0,1.08,0,1.1-.53v-.09Z"/><path d="M4.94,171.29a1.93,1.93,0,0,1-2.05-1.92,2,2,0,0,1,.46-1.26A2.14,2.14,0,0,1,5,167.46a1.92,1.92,0,1,1,0,3.83Zm0-3.1c-1.28,0-1.85.35-1.85,1.17s.56,1.2,1.81,1.2,1.87-.37,1.88-1.17S6.2,168.19,5,168.19Z"/><path d="M7,172.86a2.53,2.53,0,0,1-.63.08A1.71,1.71,0,0,1,7,174.23,1.8,1.8,0,0,1,5,176a1.88,1.88,0,0,1-2.1-1.82,1.54,1.54,0,0,1,.57-1.21H2c-1,0-1.08,0-1.09.54v0H.68v-1.89H.91v.13c0,.53,0,.54,1.08.54H5.46c1,0,1.07,0,1.1-.53v-.13h.21a8.08,8.08,0,0,0,.23,1.1Zm-3.25.07A1.33,1.33,0,0,0,3.12,174a1.13,1.13,0,0,0,.42.84,2.23,2.23,0,0,0,1.46.4,1.76,1.76,0,0,0,1.45-.51,1,1,0,0,0,.27-.69,1.35,1.35,0,0,0-.65-1.09Z"/><path d="M7.88,193.13c1,0,1.07,0,1.09-.53v-.09h.21a4.56,4.56,0,0,0,.2,1.17v.09l-5.13,0c-1,0-1.08,0-1.1.53v.06H2.94a6.4,6.4,0,0,0-.12-1.14,3.42,3.42,0,0,1,.59,0h.11a1.74,1.74,0,0,1,1.35-3.1,1.78,1.78,0,0,1,1.51,3.06Zm-1.77,0A1.67,1.67,0,0,0,6.65,192c0-.74-.62-1.15-1.75-1.16s-1.79.45-1.8,1.18a1.46,1.46,0,0,0,.67,1.15Z"/><path d="M6.66,194.68a7.34,7.34,0,0,0,.27,1.08,3.22,3.22,0,0,1-1,.14,1.39,1.39,0,0,1,1,1.16.61.61,0,0,1-.58.61.31.31,0,0,1-.33-.29c0-.16.1-.25.34-.34s.24-.13.24-.23a1,1,0,0,0-.5-.64A1.79,1.79,0,0,0,5,195.93H4.27c-1,0-1.07,0-1.08.53v.12H3v-1.91h.22v.09c0,.53.06.54,1.09.54H5.36c1,0,1.07,0,1.1-.53v-.09Z"/><path d="M4.85,201.84a1.92,1.92,0,0,1-2-1.92,2,2,0,0,1,.46-1.26A2.09,2.09,0,0,1,4.9,198a1.92,1.92,0,1,1-.05,3.83Zm0-3.1c-1.27,0-1.84.35-1.84,1.17s.56,1.2,1.81,1.2,1.87-.37,1.87-1.17S6.11,198.74,4.86,198.74Z"/><path d="M6.91,203.42a2,2,0,0,1-.62.08,1.76,1.76,0,0,1,.62,1.29,1.82,1.82,0,0,1-2,1.74,1.91,1.91,0,0,1-2.11-1.82,1.59,1.59,0,0,1,.58-1.22H1.91c-1,0-1.08,0-1.09.53v0H.6v-1.88H.82v.12c0,.53.06.55,1.09.54H5.37c1,0,1.08,0,1.1-.53v-.13h.22a10,10,0,0,0,.22,1.1Zm-3.24.07A1.33,1.33,0,0,0,3,204.55a1.17,1.17,0,0,0,.41.85,2.29,2.29,0,0,0,1.47.39,1.71,1.71,0,0,0,1.45-.51,1,1,0,0,0,.26-.69A1.31,1.31,0,0,0,6,203.5Z"/><path d="M7.79,223.67c1,0,1.07,0,1.09-.53v-.09H9.1a4.16,4.16,0,0,0,.2,1.17v.09l-5.13,0c-1,0-1.08,0-1.1.53v.06H2.86a7.48,7.48,0,0,0-.12-1.14,3.42,3.42,0,0,1,.59-.05h.1a1.74,1.74,0,0,1,1.36-3.1,1.78,1.78,0,0,1,1.51,3.06Zm-1.77,0a1.69,1.69,0,0,0,.55-1.17c0-.74-.62-1.15-1.75-1.16s-1.8.45-1.8,1.18a1.43,1.43,0,0,0,.67,1.15Z"/><path d="M6.58,225.22a7.43,7.43,0,0,0,.27,1.09,3.33,3.33,0,0,1-1,.14,1.4,1.4,0,0,1,1,1.15.62.62,0,0,1-.58.62.31.31,0,0,1-.33-.3c0-.16.09-.25.34-.34s.24-.12.24-.23a1,1,0,0,0-.5-.64,1.82,1.82,0,0,0-1.15-.23H4.19c-1,0-1.08,0-1.09.52v.13H2.88v-1.92h.22v.09c0,.53.05.55,1.08.54H5.27c1,0,1.08,0,1.1-.53v-.09Z"/><path d="M4.77,232.41a1.94,1.94,0,0,1-2-1.92,2.07,2.07,0,0,1,.46-1.26,2.15,2.15,0,0,1,1.64-.66,1.92,1.92,0,1,1-.05,3.84Zm0-3.11c-1.28,0-1.85.36-1.85,1.18s.57,1.19,1.81,1.19,1.88-.37,1.88-1.17S6,229.31,4.78,229.3Z"/><path d="M6.83,234a2.39,2.39,0,0,1-.62.08,1.75,1.75,0,0,1,.62,1.29,1.83,1.83,0,0,1-2,1.74,1.9,1.9,0,0,1-2.1-1.83A1.54,1.54,0,0,1,3.28,234H1.83c-1,0-1.08,0-1.09.53v.05H.52v-1.89H.74v.13c0,.53.06.55,1.09.54H5.29c1,0,1.08,0,1.1-.53v-.13h.22a7.53,7.53,0,0,0,.22,1.1ZM3.58,234A1.34,1.34,0,0,0,3,235.09a1.13,1.13,0,0,0,.41.84,2.23,2.23,0,0,0,1.46.4,1.72,1.72,0,0,0,1.45-.51,1,1,0,0,0,.27-.69A1.33,1.33,0,0,0,5.9,234Z"/><path d="M7.71,254.22c1,0,1.07,0,1.09-.53v-.09H9a4.53,4.53,0,0,0,.19,1.17v.09H4.08c-1,0-1.07,0-1.1.53v.05h-.2a8.85,8.85,0,0,0-.12-1.13,2.61,2.61,0,0,1,.58-.05h.11a1.73,1.73,0,0,1,1.35-3.09,1.78,1.78,0,0,1,1.51,3.06Zm-1.77,0a1.69,1.69,0,0,0,.54-1.17c0-.74-.62-1.16-1.74-1.16s-1.8.44-1.8,1.17a1.41,1.41,0,0,0,.66,1.15Z"/><path d="M6.5,255.76a6.26,6.26,0,0,0,.27,1.08,3,3,0,0,1-1,.14,1.39,1.39,0,0,1,1,1.16.59.59,0,0,1-.58.61.31.31,0,0,1-.33-.29c0-.16.1-.25.35-.34s.23-.12.23-.23a1,1,0,0,0-.5-.64A1.74,1.74,0,0,0,4.79,257H4.11c-1,0-1.08,0-1.09.53v.12H2.8v-1.91H3v.09c0,.53.06.54,1.09.54H5.19c1,0,1.08,0,1.1-.53v-.09Z"/><path d="M4.69,262.94A1.93,1.93,0,0,1,2.64,261a2,2,0,0,1,.46-1.26,2.11,2.11,0,0,1,1.64-.65,1.92,1.92,0,1,1,0,3.83Zm0-3.1c-1.28,0-1.85.35-1.85,1.17s.56,1.2,1.81,1.2,1.88-.37,1.88-1.17S6,259.84,4.7,259.84Z"/><path d="M6.75,264.52a2.53,2.53,0,0,1-.63.08,1.71,1.71,0,0,1,.62,1.29,1.8,1.8,0,0,1-2,1.73,1.88,1.88,0,0,1-2.1-1.82,1.54,1.54,0,0,1,.57-1.21H1.74c-1,0-1.08,0-1.09.54v.05H.43v-1.89H.66v.13c0,.53,0,.54,1.08.54H5.21c1,0,1.08,0,1.1-.53v-.13h.21a10,10,0,0,0,.23,1.1Zm-3.25.07a1.36,1.36,0,0,0-.63,1.06,1.11,1.11,0,0,0,.42.84,2.23,2.23,0,0,0,1.46.4,1.76,1.76,0,0,0,1.45-.51,1,1,0,0,0,.27-.69,1.35,1.35,0,0,0-.65-1.09Z"/><path d="M7.61,289.26c1,0,1.07,0,1.09-.53v-.09h.22a4.16,4.16,0,0,0,.2,1.17v.09l-5.13,0c-1,0-1.08,0-1.1.54v.05H2.68a7.48,7.48,0,0,0-.12-1.14,3.42,3.42,0,0,1,.59-.05h.1a1.74,1.74,0,0,1,1.36-3.1,1.78,1.78,0,0,1,1.51,3.06Zm-1.76,0a1.67,1.67,0,0,0,.54-1.17c0-.74-.62-1.15-1.75-1.16s-1.8.45-1.8,1.18a1.43,1.43,0,0,0,.67,1.15Z"/><path d="M6.4,290.8a7.34,7.34,0,0,0,.27,1.08,3.33,3.33,0,0,1-1,.14,1.41,1.41,0,0,1,1,1.16.61.61,0,0,1-.58.61.31.31,0,0,1-.33-.29c0-.16.09-.25.34-.34s.24-.13.24-.23a1,1,0,0,0-.5-.64,1.81,1.81,0,0,0-1.15-.24H4c-1,0-1.08,0-1.09.53v.12H2.71v-1.91h.22v.09c0,.53,0,.54,1.09.54H5.09c1,0,1.08,0,1.1-.53v-.09Z"/><path d="M4.59,298a1.93,1.93,0,0,1-2-1.92A2.13,2.13,0,0,1,3,294.8a2.15,2.15,0,0,1,1.64-.66,1.92,1.92,0,1,1,0,3.84Zm0-3.1c-1.28,0-1.84.35-1.85,1.17s.57,1.19,1.81,1.2,1.88-.37,1.88-1.18S5.85,294.88,4.6,294.88Z"/><path d="M6.65,299.54a2,2,0,0,1-.62.08,1.76,1.76,0,0,1,.62,1.29,1.82,1.82,0,0,1-2,1.74,1.91,1.91,0,0,1-2.11-1.82,1.58,1.58,0,0,1,.57-1.22H1.65c-1,0-1.08,0-1.09.53v.05H.34v-1.88H.56v.12c0,.53.06.55,1.09.54H5.11c1,0,1.08,0,1.1-.53v-.13h.22a10,10,0,0,0,.22,1.1Zm-3.24.07a1.33,1.33,0,0,0-.63,1.06,1.17,1.17,0,0,0,.41.85,2.25,2.25,0,0,0,1.47.39,1.71,1.71,0,0,0,1.45-.51,1,1,0,0,0,.26-.69,1.33,1.33,0,0,0-.65-1.09Z"/><path d="M7.53,322c1,0,1.06,0,1.08-.53v-.09h.21a4.56,4.56,0,0,0,.2,1.17v.09H3.9c-1,0-1.08,0-1.1.53v.05H2.59a7.35,7.35,0,0,0-.12-1.13,2.61,2.61,0,0,1,.59-.06h.1A1.74,1.74,0,0,1,4.52,319a1.89,1.89,0,0,1,2.07,1.76A1.92,1.92,0,0,1,6,322Zm-1.77,0a1.69,1.69,0,0,0,.54-1.17c0-.74-.62-1.16-1.75-1.16s-1.8.44-1.8,1.17A1.44,1.44,0,0,0,3.42,322Z"/><path d="M6.31,323.6a7.66,7.66,0,0,0,.27,1.08,3.28,3.28,0,0,1-1,.14,1.41,1.41,0,0,1,1,1.16.61.61,0,0,1-.58.61.31.31,0,0,1-.33-.29c0-.17.09-.25.34-.34s.24-.13.24-.23a1,1,0,0,0-.5-.64,1.74,1.74,0,0,0-1.15-.24H3.92c-1,0-1.07,0-1.09.52v.13H2.62v-1.92h.22v.09c0,.52.06.54,1.09.54H5c1,0,1.08,0,1.1-.53v-.09Z"/><path d="M4.5,330.77a1.92,1.92,0,0,1-2-1.92,2.08,2.08,0,0,1,.45-1.26,2.11,2.11,0,0,1,1.64-.65,1.92,1.92,0,1,1,0,3.83Zm0-3.1c-1.28,0-1.84.35-1.85,1.17s.57,1.2,1.82,1.2,1.87-.37,1.87-1.17S5.76,327.67,4.51,327.67Z"/><path d="M6.56,332.33a2.39,2.39,0,0,1-.62.08,1.75,1.75,0,0,1,.62,1.29,1.81,1.81,0,0,1-2,1.73,1.9,1.9,0,0,1-2.11-1.82A1.57,1.57,0,0,1,3,332.4H1.56c-1,0-1.08,0-1.09.54V333H.25v-1.89H.47v.13c0,.53.06.54,1.09.54H5c1,0,1.08,0,1.1-.53v-.13h.22a9.17,9.17,0,0,0,.22,1.1Zm-3.24.07a1.33,1.33,0,0,0-.63,1.06,1.13,1.13,0,0,0,.41.84,2.25,2.25,0,0,0,1.47.4A1.78,1.78,0,0,0,6,334.19a1,1,0,0,0,.26-.69,1.33,1.33,0,0,0-.65-1.09Z"/><path d="M7.44,352.59c1,0,1.07,0,1.09-.54V352h.22a4.53,4.53,0,0,0,.19,1.18v.09l-5.12,0c-1,0-1.08,0-1.1.53v.06H2.51a7.35,7.35,0,0,0-.12-1.14,2.65,2.65,0,0,1,.59-.05h.1a1.74,1.74,0,0,1,1.35-3.1,1.89,1.89,0,0,1,2.08,1.76,1.92,1.92,0,0,1-.56,1.3Zm-1.77,0a1.75,1.75,0,0,0,.55-1.17c0-.74-.62-1.15-1.75-1.16s-1.8.44-1.8,1.18a1.4,1.4,0,0,0,.67,1.14Z"/><path d="M6.23,354.15a7.66,7.66,0,0,0,.27,1.08,3.35,3.35,0,0,1-1,.14,1.39,1.39,0,0,1,1,1.15.62.62,0,0,1-.58.62.31.31,0,0,1-.33-.3c0-.16.09-.25.34-.34s.23-.12.23-.23-.21-.45-.49-.63a1.76,1.76,0,0,0-1.15-.24H3.84c-1,0-1.08,0-1.09.52v.13H2.53v-1.92h.22v.09c0,.53.05.55,1.08.54H4.92c1,0,1.08,0,1.1-.54v-.09Z"/><path d="M4.42,361.31a1.93,1.93,0,0,1-2-1.92,2.07,2.07,0,0,1,.46-1.26,2.11,2.11,0,0,1,1.64-.65,1.92,1.92,0,1,1,0,3.83Zm0-3.1c-1.28,0-1.85.35-1.85,1.17s.56,1.19,1.81,1.2,1.88-.37,1.88-1.18S5.68,358.21,4.43,358.21Z"/><path d="M6.48,362.9a2.47,2.47,0,0,1-.63.08,1.66,1.66,0,0,1,.62,1.29,1.8,1.8,0,0,1-2,1.73,1.89,1.89,0,0,1-2.1-1.82A1.54,1.54,0,0,1,2.93,363H1.47c-1,0-1.07,0-1.09.53v.06H.17v-1.89H.39v.13c0,.52,0,.54,1.09.54H4.94c1,0,1.08,0,1.1-.54v-.12h.22a7.8,7.8,0,0,0,.22,1.1ZM3.23,363A1.34,1.34,0,0,0,2.61,364a1.08,1.08,0,0,0,.41.84,2.23,2.23,0,0,0,1.46.4,1.73,1.73,0,0,0,1.45-.52,1,1,0,0,0,.27-.68,1.38,1.38,0,0,0-.65-1.1Z"/><path d="M7.36,383.13c1,0,1.07,0,1.09-.53v-.09h.22a4.53,4.53,0,0,0,.19,1.17v.09l-5.13,0c-1,0-1.07,0-1.1.54v0h-.2a9.2,9.2,0,0,0-.12-1.14,3.39,3.39,0,0,1,.58-.05H3a1.74,1.74,0,0,1,1.35-3.1,1.79,1.79,0,0,1,1.51,3.07Zm-1.77,0A1.69,1.69,0,0,0,6.13,382c0-.75-.62-1.16-1.74-1.16s-1.8.44-1.8,1.17a1.42,1.42,0,0,0,.66,1.15Z"/><path d="M6.15,384.71a5.62,5.62,0,0,0,.27,1.08,3.35,3.35,0,0,1-1,.14,1.39,1.39,0,0,1,1,1.16.6.6,0,0,1-.58.61.31.31,0,0,1-.33-.29c0-.16.1-.25.34-.34s.24-.13.24-.23a1,1,0,0,0-.5-.64A1.79,1.79,0,0,0,4.44,386H3.76c-1,0-1.08,0-1.09.53v.12H2.45V384.7h.21v.09c0,.52.06.54,1.09.54H4.84c1,0,1.08,0,1.1-.53v-.09Z"/><path d="M4.33,391.89a1.93,1.93,0,0,1-2-1.92,2,2,0,0,1,.46-1.26,2.15,2.15,0,0,1,1.64-.66,1.92,1.92,0,1,1-.06,3.84Zm0-3.11c-1.28,0-1.85.35-1.85,1.18s.56,1.19,1.81,1.19,1.87-.37,1.88-1.17S5.59,388.79,4.35,388.78Z"/><path d="M6.4,393.46a2.53,2.53,0,0,1-.63.07,1.73,1.73,0,0,1,.62,1.29,1.82,1.82,0,0,1-2,1.74,1.89,1.89,0,0,1-2.1-1.82,1.55,1.55,0,0,1,.57-1.22H1.39c-1,0-1.08,0-1.09.53v.06H.08v-1.89H.31v.12c0,.53,0,.55,1.08.54l3.47,0c1,0,1.07,0,1.09-.54v-.12h.21a8.08,8.08,0,0,0,.23,1.1Zm-3.25.07a1.32,1.32,0,0,0-.63,1.06,1.13,1.13,0,0,0,.42.84,2.23,2.23,0,0,0,1.46.4,1.73,1.73,0,0,0,1.45-.52,1,1,0,0,0,.27-.68,1.35,1.35,0,0,0-.65-1.1Z"/><path d="M7.28,413.7c1,0,1.06,0,1.09-.54v-.09h.21a4.56,4.56,0,0,0,.2,1.17v.09l-5.13,0c-1,0-1.08,0-1.1.53v.06H2.34a7.35,7.35,0,0,0-.12-1.14,2.65,2.65,0,0,1,.59,0h.1a1.9,1.9,0,0,1-.68-1.39,1.88,1.88,0,0,1,2-1.71,1.88,1.88,0,0,1,2.07,1.76,1.92,1.92,0,0,1-.56,1.3Zm-1.77,0a1.69,1.69,0,0,0,.54-1.17c0-.74-.62-1.15-1.75-1.16s-1.8.44-1.8,1.18a1.43,1.43,0,0,0,.67,1.14Z"/><path d="M6.06,415.25a7.43,7.43,0,0,0,.27,1.09,3.22,3.22,0,0,1-1,.14,1.38,1.38,0,0,1,1,1.15.62.62,0,0,1-.58.62.31.31,0,0,1-.33-.3c0-.16.1-.25.34-.34s.24-.12.24-.23-.22-.45-.5-.63a1.73,1.73,0,0,0-1.14-.24H3.67c-1,0-1.07,0-1.09.52v.13H2.37v-1.92h.22v.09c0,.53.06.55,1.09.54H4.75c1,0,1.08,0,1.1-.54v-.09Z"/><path d="M4.25,422.43a1.93,1.93,0,0,1-2-1.92,2.06,2.06,0,0,1,.45-1.26,2.15,2.15,0,0,1,1.64-.66,1.92,1.92,0,1,1,0,3.84Zm0-3.11c-1.27,0-1.84.36-1.85,1.18s.57,1.19,1.82,1.19,1.87-.37,1.87-1.17S5.51,419.33,4.26,419.32Z"/><path d="M6.31,424a2,2,0,0,1-.62.08,1.76,1.76,0,0,1,.62,1.29,1.82,1.82,0,0,1-2,1.74,1.91,1.91,0,0,1-2.11-1.82,1.58,1.58,0,0,1,.57-1.22H1.31c-1,0-1.08,0-1.09.53v0H0v-1.88H.22v.12c0,.53.06.55,1.09.54H4.77c1,0,1.08,0,1.1-.53v-.12h.22a10,10,0,0,0,.22,1.1Zm-3.24.07a1.33,1.33,0,0,0-.63,1.06,1.17,1.17,0,0,0,.41.85,2.33,2.33,0,0,0,1.47.4,1.75,1.75,0,0,0,1.45-.52,1,1,0,0,0,.26-.69,1.3,1.3,0,0,0-.65-1.09Z"/></g></g></svg>